M48
; DRILL file {KiCad 5.1.9+dfsg1-1} date Fri Aug 13 01:52:09 2021
; FORMAT={-:-/ absolute / inch / decimal}
; #@! TF.CreationDate,2021-08-13T01:52:09-07:00
; #@! TF.GenerationSoftware,Kicad,Pcbnew,5.1.9+dfsg1-1
; #@! TF.FileFunction,Plated,1,2,PTH
FMAT,2
INCH
T1C0.0276
T2C0.0315
T3C0.0320
T4C0.0354
T5C0.0394
%
G90
G05
T1
X5.35Y-3.25
X5.35Y-3.55
X5.55Y-3.25
X5.55Y-3.55
T2
X1.55Y-2.7516
X1.55Y-2.85
X2.55Y-2.7516
X2.55Y-2.85
X3.55Y-2.7516
X3.55Y-2.85
X4.55Y-2.7516
X4.55Y-2.85
X5.35Y-1.4
X5.35Y-1.65
X5.4287Y-1.4
X5.4484Y-1.65
X5.55Y-2.7516
X5.55Y-2.85
T3
X5.35Y-4.45
X5.35Y-4.75
X5.55Y-4.45
X5.55Y-4.75
T4
X5.4Y-4.0
X5.5Y-4.0
T5
X1.05Y-0.85
X1.05Y-0.95
X1.05Y-1.05
X1.05Y-1.15
X1.05Y-1.25
X1.05Y-1.35
X1.05Y-1.45
X1.05Y-1.55
X1.05Y-1.65
X1.05Y-1.75
X1.05Y-1.85
X1.05Y-1.95
X1.05Y-2.05
X1.05Y-2.15
X1.05Y-2.25
X1.05Y-2.35
X1.05Y-2.45
X1.05Y-2.55
X1.05Y-2.65
X1.05Y-2.75
X1.05Y-2.85
X1.05Y-2.95
X1.05Y-3.05
X1.05Y-3.15
X1.05Y-3.25
X1.05Y-3.35
X1.05Y-3.45
X1.05Y-3.55
X1.05Y-3.65
X1.05Y-3.75
X1.05Y-3.85
X1.05Y-3.95
X1.05Y-4.05
X1.05Y-4.15
X1.05Y-4.25
X1.05Y-4.35
X1.05Y-4.45
X1.05Y-4.55
X1.05Y-4.65
X1.05Y-4.75
X2.05Y-0.85
X2.05Y-0.95
X2.05Y-1.05
X2.05Y-1.15
X2.05Y-1.25
X2.05Y-1.35
X2.05Y-1.45
X2.05Y-1.55
X2.05Y-1.65
X2.05Y-1.75
X2.05Y-1.85
X2.05Y-1.95
X2.05Y-2.05
X2.05Y-2.15
X2.05Y-2.25
X2.05Y-2.35
X2.05Y-2.45
X2.05Y-2.55
X2.05Y-2.65
X2.05Y-2.75
X2.05Y-2.85
X2.05Y-2.95
X2.05Y-3.05
X2.05Y-3.15
X2.05Y-3.25
X2.05Y-3.35
X2.05Y-3.45
X2.05Y-3.55
X2.05Y-3.65
X2.05Y-3.75
X2.05Y-3.85
X2.05Y-3.95
X2.05Y-4.05
X2.05Y-4.15
X2.05Y-4.25
X2.05Y-4.35
X2.05Y-4.45
X2.05Y-4.55
X2.05Y-4.65
X2.05Y-4.75
X3.05Y-0.85
X3.05Y-0.95
X3.05Y-1.05
X3.05Y-1.15
X3.05Y-1.25
X3.05Y-1.35
X3.05Y-1.45
X3.05Y-1.55
X3.05Y-1.65
X3.05Y-1.75
X3.05Y-1.85
X3.05Y-1.95
X3.05Y-2.05
X3.05Y-2.15
X3.05Y-2.25
X3.05Y-2.35
X3.05Y-2.45
X3.05Y-2.55
X3.05Y-2.65
X3.05Y-2.75
X3.05Y-2.85
X3.05Y-2.95
X3.05Y-3.05
X3.05Y-3.15
X3.05Y-3.25
X3.05Y-3.35
X3.05Y-3.45
X3.05Y-3.55
X3.05Y-3.65
X3.05Y-3.75
X3.05Y-3.85
X3.05Y-3.95
X3.05Y-4.05
X3.05Y-4.15
X3.05Y-4.25
X3.05Y-4.35
X3.05Y-4.45
X3.05Y-4.55
X3.05Y-4.65
X3.05Y-4.75
X4.05Y-0.85
X4.05Y-0.95
X4.05Y-1.05
X4.05Y-1.15
X4.05Y-1.25
X4.05Y-1.35
X4.05Y-1.45
X4.05Y-1.55
X4.05Y-1.65
X4.05Y-1.75
X4.05Y-1.85
X4.05Y-1.95
X4.05Y-2.05
X4.05Y-2.15
X4.05Y-2.25
X4.05Y-2.35
X4.05Y-2.45
X4.05Y-2.55
X4.05Y-2.65
X4.05Y-2.75
X4.05Y-2.85
X4.05Y-2.95
X4.05Y-3.05
X4.05Y-3.15
X4.05Y-3.25
X4.05Y-3.35
X4.05Y-3.45
X4.05Y-3.55
X4.05Y-3.65
X4.05Y-3.75
X4.05Y-3.85
X4.05Y-3.95
X4.05Y-4.05
X4.05Y-4.15
X4.05Y-4.25
X4.05Y-4.35
X4.05Y-4.45
X4.05Y-4.55
X4.05Y-4.65
X4.05Y-4.75
X5.05Y-0.85
X5.05Y-0.95
X5.05Y-1.05
X5.05Y-1.15
X5.05Y-1.25
X5.05Y-1.35
X5.05Y-1.45
X5.05Y-1.55
X5.05Y-1.65
X5.05Y-1.75
X5.05Y-1.85
X5.05Y-1.95
X5.05Y-2.05
X5.05Y-2.15
X5.05Y-2.25
X5.05Y-2.35
X5.05Y-2.45
X5.05Y-2.55
X5.05Y-2.65
X5.05Y-2.75
X5.05Y-2.85
X5.05Y-2.95
X5.05Y-3.05
X5.05Y-3.15
X5.05Y-3.25
X5.05Y-3.35
X5.05Y-3.45
X5.05Y-3.55
X5.05Y-3.65
X5.05Y-3.75
X5.05Y-3.85
X5.05Y-3.95
X5.05Y-4.05
X5.05Y-4.15
X5.05Y-4.25
X5.05Y-4.35
X5.05Y-4.45
X5.05Y-4.55
X5.05Y-4.65
X5.05Y-4.75
X5.55Y-2.15
X5.55Y-2.25
T5
G00X5.3Y-1.0894
M15
G01X5.3Y-1.0106
M16
G05
G00X5.4575Y-0.865
M15
G01X5.3787Y-0.865
M16
G05
G00X5.5362Y-1.0894
M15
G01X5.5362Y-1.0106
M16
G05
T0
M30
