%TF.GenerationSoftware,KiCad,Pcbnew,5.1.9+dfsg1-1*%
%TF.CreationDate,2021-08-13T01:52:04-07:00*%
%TF.ProjectId,Bus2021A_5Slot,42757332-3032-4314-915f-35536c6f742e,0*%
%TF.SameCoordinates,Original*%
%TF.FileFunction,Legend,Top*%
%TF.FilePolarity,Positive*%
%FSLAX46Y46*%
G04 Gerber Fmt 4.6, Leading zero omitted, Abs format (unit mm)*
G04 Created by KiCad (PCBNEW 5.1.9+dfsg1-1) date 2021-08-13 01:52:04*
%MOMM*%
%LPD*%
G01*
G04 APERTURE LIST*
%ADD10C,0.150000*%
%ADD11C,0.120000*%
G04 APERTURE END LIST*
D10*
X121918214Y-112482380D02*
X121918214Y-113291904D01*
X121965833Y-113387142D01*
X122013452Y-113434761D01*
X122108690Y-113482380D01*
X122299166Y-113482380D01*
X122394404Y-113434761D01*
X122442023Y-113387142D01*
X122489642Y-113291904D01*
X122489642Y-112482380D01*
X122918214Y-113434761D02*
X123061071Y-113482380D01*
X123299166Y-113482380D01*
X123394404Y-113434761D01*
X123442023Y-113387142D01*
X123489642Y-113291904D01*
X123489642Y-113196666D01*
X123442023Y-113101428D01*
X123394404Y-113053809D01*
X123299166Y-113006190D01*
X123108690Y-112958571D01*
X123013452Y-112910952D01*
X122965833Y-112863333D01*
X122918214Y-112768095D01*
X122918214Y-112672857D01*
X122965833Y-112577619D01*
X123013452Y-112530000D01*
X123108690Y-112482380D01*
X123346785Y-112482380D01*
X123489642Y-112530000D01*
X124489642Y-113482380D02*
X124156309Y-113006190D01*
X123918214Y-113482380D02*
X123918214Y-112482380D01*
X124299166Y-112482380D01*
X124394404Y-112530000D01*
X124442023Y-112577619D01*
X124489642Y-112672857D01*
X124489642Y-112815714D01*
X124442023Y-112910952D01*
X124394404Y-112958571D01*
X124299166Y-113006190D01*
X123918214Y-113006190D01*
X125442023Y-113482380D02*
X124870595Y-113482380D01*
X125156309Y-113482380D02*
X125156309Y-112482380D01*
X125061071Y-112625238D01*
X124965833Y-112720476D01*
X124870595Y-112768095D01*
X122203928Y-62682380D02*
X122203928Y-61682380D01*
X122775357Y-62682380D01*
X122775357Y-61682380D01*
X123251547Y-62682380D02*
X123251547Y-61682380D01*
X123584880Y-62396666D01*
X123918214Y-61682380D01*
X123918214Y-62682380D01*
X124394404Y-62682380D02*
X124394404Y-61682380D01*
X125203928Y-62158571D02*
X125346785Y-62206190D01*
X125394404Y-62253809D01*
X125442023Y-62349047D01*
X125442023Y-62491904D01*
X125394404Y-62587142D01*
X125346785Y-62634761D01*
X125251547Y-62682380D01*
X124870595Y-62682380D01*
X124870595Y-61682380D01*
X125203928Y-61682380D01*
X125299166Y-61730000D01*
X125346785Y-61777619D01*
X125394404Y-61872857D01*
X125394404Y-61968095D01*
X125346785Y-62063333D01*
X125299166Y-62110952D01*
X125203928Y-62158571D01*
X124870595Y-62158571D01*
X123061071Y-34456666D02*
X123537261Y-34456666D01*
X122965833Y-34742380D02*
X123299166Y-33742380D01*
X123632500Y-34742380D01*
X124489642Y-34742380D02*
X123918214Y-34742380D01*
X124203928Y-34742380D02*
X124203928Y-33742380D01*
X124108690Y-33885238D01*
X124013452Y-33980476D01*
X123918214Y-34028095D01*
X125108690Y-33742380D02*
X125203928Y-33742380D01*
X125299166Y-33790000D01*
X125346785Y-33837619D01*
X125394404Y-33932857D01*
X125442023Y-34123333D01*
X125442023Y-34361428D01*
X125394404Y-34551904D01*
X125346785Y-34647142D01*
X125299166Y-34694761D01*
X125203928Y-34742380D01*
X125108690Y-34742380D01*
X125013452Y-34694761D01*
X124965833Y-34647142D01*
X124918214Y-34551904D01*
X124870595Y-34361428D01*
X124870595Y-34123333D01*
X124918214Y-33932857D01*
X124965833Y-33837619D01*
X125013452Y-33790000D01*
X125108690Y-33742380D01*
X123918214Y-108402380D02*
X123918214Y-107402380D01*
X124156309Y-107402380D01*
X124299166Y-107450000D01*
X124394404Y-107545238D01*
X124442023Y-107640476D01*
X124489642Y-107830952D01*
X124489642Y-107973809D01*
X124442023Y-108164285D01*
X124394404Y-108259523D01*
X124299166Y-108354761D01*
X124156309Y-108402380D01*
X123918214Y-108402380D01*
X125346785Y-107402380D02*
X125156309Y-107402380D01*
X125061071Y-107450000D01*
X125013452Y-107497619D01*
X124918214Y-107640476D01*
X124870595Y-107830952D01*
X124870595Y-108211904D01*
X124918214Y-108307142D01*
X124965833Y-108354761D01*
X125061071Y-108402380D01*
X125251547Y-108402380D01*
X125346785Y-108354761D01*
X125394404Y-108307142D01*
X125442023Y-108211904D01*
X125442023Y-107973809D01*
X125394404Y-107878571D01*
X125346785Y-107830952D01*
X125251547Y-107783333D01*
X125061071Y-107783333D01*
X124965833Y-107830952D01*
X124918214Y-107878571D01*
X124870595Y-107973809D01*
X123632500Y-82907142D02*
X123584880Y-82954761D01*
X123442023Y-83002380D01*
X123346785Y-83002380D01*
X123203928Y-82954761D01*
X123108690Y-82859523D01*
X123061071Y-82764285D01*
X123013452Y-82573809D01*
X123013452Y-82430952D01*
X123061071Y-82240476D01*
X123108690Y-82145238D01*
X123203928Y-82050000D01*
X123346785Y-82002380D01*
X123442023Y-82002380D01*
X123584880Y-82050000D01*
X123632500Y-82097619D01*
X124537261Y-83002380D02*
X124061071Y-83002380D01*
X124061071Y-82002380D01*
X124870595Y-83002380D02*
X124870595Y-82002380D01*
X125442023Y-83002380D02*
X125013452Y-82430952D01*
X125442023Y-82002380D02*
X124870595Y-82573809D01*
X124013452Y-39536666D02*
X124489642Y-39536666D01*
X123918214Y-39822380D02*
X124251547Y-38822380D01*
X124584880Y-39822380D01*
X125061071Y-39250952D02*
X124965833Y-39203333D01*
X124918214Y-39155714D01*
X124870595Y-39060476D01*
X124870595Y-39012857D01*
X124918214Y-38917619D01*
X124965833Y-38870000D01*
X125061071Y-38822380D01*
X125251547Y-38822380D01*
X125346785Y-38870000D01*
X125394404Y-38917619D01*
X125442023Y-39012857D01*
X125442023Y-39060476D01*
X125394404Y-39155714D01*
X125346785Y-39203333D01*
X125251547Y-39250952D01*
X125061071Y-39250952D01*
X124965833Y-39298571D01*
X124918214Y-39346190D01*
X124870595Y-39441428D01*
X124870595Y-39631904D01*
X124918214Y-39727142D01*
X124965833Y-39774761D01*
X125061071Y-39822380D01*
X125251547Y-39822380D01*
X125346785Y-39774761D01*
X125394404Y-39727142D01*
X125442023Y-39631904D01*
X125442023Y-39441428D01*
X125394404Y-39346190D01*
X125346785Y-39298571D01*
X125251547Y-39250952D01*
X123061071Y-24296666D02*
X123537261Y-24296666D01*
X122965833Y-24582380D02*
X123299166Y-23582380D01*
X123632500Y-24582380D01*
X124489642Y-24582380D02*
X123918214Y-24582380D01*
X124203928Y-24582380D02*
X124203928Y-23582380D01*
X124108690Y-23725238D01*
X124013452Y-23820476D01*
X123918214Y-23868095D01*
X125346785Y-23915714D02*
X125346785Y-24582380D01*
X125108690Y-23534761D02*
X124870595Y-24249047D01*
X125489642Y-24249047D01*
X124013452Y-42076666D02*
X124489642Y-42076666D01*
X123918214Y-42362380D02*
X124251547Y-41362380D01*
X124584880Y-42362380D01*
X124822976Y-41362380D02*
X125489642Y-41362380D01*
X125061071Y-42362380D01*
X124013452Y-44616666D02*
X124489642Y-44616666D01*
X123918214Y-44902380D02*
X124251547Y-43902380D01*
X124584880Y-44902380D01*
X125346785Y-43902380D02*
X125156309Y-43902380D01*
X125061071Y-43950000D01*
X125013452Y-43997619D01*
X124918214Y-44140476D01*
X124870595Y-44330952D01*
X124870595Y-44711904D01*
X124918214Y-44807142D01*
X124965833Y-44854761D01*
X125061071Y-44902380D01*
X125251547Y-44902380D01*
X125346785Y-44854761D01*
X125394404Y-44807142D01*
X125442023Y-44711904D01*
X125442023Y-44473809D01*
X125394404Y-44378571D01*
X125346785Y-44330952D01*
X125251547Y-44283333D01*
X125061071Y-44283333D01*
X124965833Y-44330952D01*
X124918214Y-44378571D01*
X124870595Y-44473809D01*
X121918214Y-117562380D02*
X121918214Y-118371904D01*
X121965833Y-118467142D01*
X122013452Y-118514761D01*
X122108690Y-118562380D01*
X122299166Y-118562380D01*
X122394404Y-118514761D01*
X122442023Y-118467142D01*
X122489642Y-118371904D01*
X122489642Y-117562380D01*
X122918214Y-118514761D02*
X123061071Y-118562380D01*
X123299166Y-118562380D01*
X123394404Y-118514761D01*
X123442023Y-118467142D01*
X123489642Y-118371904D01*
X123489642Y-118276666D01*
X123442023Y-118181428D01*
X123394404Y-118133809D01*
X123299166Y-118086190D01*
X123108690Y-118038571D01*
X123013452Y-117990952D01*
X122965833Y-117943333D01*
X122918214Y-117848095D01*
X122918214Y-117752857D01*
X122965833Y-117657619D01*
X123013452Y-117610000D01*
X123108690Y-117562380D01*
X123346785Y-117562380D01*
X123489642Y-117610000D01*
X124489642Y-118562380D02*
X124156309Y-118086190D01*
X123918214Y-118562380D02*
X123918214Y-117562380D01*
X124299166Y-117562380D01*
X124394404Y-117610000D01*
X124442023Y-117657619D01*
X124489642Y-117752857D01*
X124489642Y-117895714D01*
X124442023Y-117990952D01*
X124394404Y-118038571D01*
X124299166Y-118086190D01*
X123918214Y-118086190D01*
X124822976Y-117562380D02*
X125442023Y-117562380D01*
X125108690Y-117943333D01*
X125251547Y-117943333D01*
X125346785Y-117990952D01*
X125394404Y-118038571D01*
X125442023Y-118133809D01*
X125442023Y-118371904D01*
X125394404Y-118467142D01*
X125346785Y-118514761D01*
X125251547Y-118562380D01*
X124965833Y-118562380D01*
X124870595Y-118514761D01*
X124822976Y-118467142D01*
X124013452Y-59856666D02*
X124489642Y-59856666D01*
X123918214Y-60142380D02*
X124251547Y-59142380D01*
X124584880Y-60142380D01*
X125108690Y-59142380D02*
X125203928Y-59142380D01*
X125299166Y-59190000D01*
X125346785Y-59237619D01*
X125394404Y-59332857D01*
X125442023Y-59523333D01*
X125442023Y-59761428D01*
X125394404Y-59951904D01*
X125346785Y-60047142D01*
X125299166Y-60094761D01*
X125203928Y-60142380D01*
X125108690Y-60142380D01*
X125013452Y-60094761D01*
X124965833Y-60047142D01*
X124918214Y-59951904D01*
X124870595Y-59761428D01*
X124870595Y-59523333D01*
X124918214Y-59332857D01*
X124965833Y-59237619D01*
X125013452Y-59190000D01*
X125108690Y-59142380D01*
X123918214Y-105862380D02*
X123918214Y-104862380D01*
X124156309Y-104862380D01*
X124299166Y-104910000D01*
X124394404Y-105005238D01*
X124442023Y-105100476D01*
X124489642Y-105290952D01*
X124489642Y-105433809D01*
X124442023Y-105624285D01*
X124394404Y-105719523D01*
X124299166Y-105814761D01*
X124156309Y-105862380D01*
X123918214Y-105862380D01*
X125394404Y-104862380D02*
X124918214Y-104862380D01*
X124870595Y-105338571D01*
X124918214Y-105290952D01*
X125013452Y-105243333D01*
X125251547Y-105243333D01*
X125346785Y-105290952D01*
X125394404Y-105338571D01*
X125442023Y-105433809D01*
X125442023Y-105671904D01*
X125394404Y-105767142D01*
X125346785Y-105814761D01*
X125251547Y-105862380D01*
X125013452Y-105862380D01*
X124918214Y-105814761D01*
X124870595Y-105767142D01*
X122822976Y-67714761D02*
X122965833Y-67762380D01*
X123203928Y-67762380D01*
X123299166Y-67714761D01*
X123346785Y-67667142D01*
X123394404Y-67571904D01*
X123394404Y-67476666D01*
X123346785Y-67381428D01*
X123299166Y-67333809D01*
X123203928Y-67286190D01*
X123013452Y-67238571D01*
X122918214Y-67190952D01*
X122870595Y-67143333D01*
X122822976Y-67048095D01*
X122822976Y-66952857D01*
X122870595Y-66857619D01*
X122918214Y-66810000D01*
X123013452Y-66762380D01*
X123251547Y-66762380D01*
X123394404Y-66810000D01*
X124013452Y-66762380D02*
X124203928Y-66762380D01*
X124299166Y-66810000D01*
X124394404Y-66905238D01*
X124442023Y-67095714D01*
X124442023Y-67429047D01*
X124394404Y-67619523D01*
X124299166Y-67714761D01*
X124203928Y-67762380D01*
X124013452Y-67762380D01*
X123918214Y-67714761D01*
X123822976Y-67619523D01*
X123775357Y-67429047D01*
X123775357Y-67095714D01*
X123822976Y-66905238D01*
X123918214Y-66810000D01*
X124013452Y-66762380D01*
X125203928Y-67238571D02*
X125346785Y-67286190D01*
X125394404Y-67333809D01*
X125442023Y-67429047D01*
X125442023Y-67571904D01*
X125394404Y-67667142D01*
X125346785Y-67714761D01*
X125251547Y-67762380D01*
X124870595Y-67762380D01*
X124870595Y-66762380D01*
X125203928Y-66762380D01*
X125299166Y-66810000D01*
X125346785Y-66857619D01*
X125394404Y-66952857D01*
X125394404Y-67048095D01*
X125346785Y-67143333D01*
X125299166Y-67190952D01*
X125203928Y-67238571D01*
X124870595Y-67238571D01*
X123918214Y-110942380D02*
X123918214Y-109942380D01*
X124156309Y-109942380D01*
X124299166Y-109990000D01*
X124394404Y-110085238D01*
X124442023Y-110180476D01*
X124489642Y-110370952D01*
X124489642Y-110513809D01*
X124442023Y-110704285D01*
X124394404Y-110799523D01*
X124299166Y-110894761D01*
X124156309Y-110942380D01*
X123918214Y-110942380D01*
X124822976Y-109942380D02*
X125489642Y-109942380D01*
X125061071Y-110942380D01*
X123299166Y-80462380D02*
X122965833Y-79986190D01*
X122727738Y-80462380D02*
X122727738Y-79462380D01*
X123108690Y-79462380D01*
X123203928Y-79510000D01*
X123251547Y-79557619D01*
X123299166Y-79652857D01*
X123299166Y-79795714D01*
X123251547Y-79890952D01*
X123203928Y-79938571D01*
X123108690Y-79986190D01*
X122727738Y-79986190D01*
X123632500Y-79462380D02*
X123870595Y-80462380D01*
X124061071Y-79748095D01*
X124251547Y-80462380D01*
X124489642Y-79462380D01*
X125203928Y-79938571D02*
X125346785Y-79986190D01*
X125394404Y-80033809D01*
X125442023Y-80129047D01*
X125442023Y-80271904D01*
X125394404Y-80367142D01*
X125346785Y-80414761D01*
X125251547Y-80462380D01*
X124870595Y-80462380D01*
X124870595Y-79462380D01*
X125203928Y-79462380D01*
X125299166Y-79510000D01*
X125346785Y-79557619D01*
X125394404Y-79652857D01*
X125394404Y-79748095D01*
X125346785Y-79843333D01*
X125299166Y-79890952D01*
X125203928Y-79938571D01*
X124870595Y-79938571D01*
X124013452Y-47156666D02*
X124489642Y-47156666D01*
X123918214Y-47442380D02*
X124251547Y-46442380D01*
X124584880Y-47442380D01*
X125394404Y-46442380D02*
X124918214Y-46442380D01*
X124870595Y-46918571D01*
X124918214Y-46870952D01*
X125013452Y-46823333D01*
X125251547Y-46823333D01*
X125346785Y-46870952D01*
X125394404Y-46918571D01*
X125442023Y-47013809D01*
X125442023Y-47251904D01*
X125394404Y-47347142D01*
X125346785Y-47394761D01*
X125251547Y-47442380D01*
X125013452Y-47442380D01*
X124918214Y-47394761D01*
X124870595Y-47347142D01*
X123346785Y-69350000D02*
X123251547Y-69302380D01*
X123108690Y-69302380D01*
X122965833Y-69350000D01*
X122870595Y-69445238D01*
X122822976Y-69540476D01*
X122775357Y-69730952D01*
X122775357Y-69873809D01*
X122822976Y-70064285D01*
X122870595Y-70159523D01*
X122965833Y-70254761D01*
X123108690Y-70302380D01*
X123203928Y-70302380D01*
X123346785Y-70254761D01*
X123394404Y-70207142D01*
X123394404Y-69873809D01*
X123203928Y-69873809D01*
X123822976Y-70302380D02*
X123822976Y-69302380D01*
X124394404Y-70302380D01*
X124394404Y-69302380D01*
X124870595Y-70302380D02*
X124870595Y-69302380D01*
X125108690Y-69302380D01*
X125251547Y-69350000D01*
X125346785Y-69445238D01*
X125394404Y-69540476D01*
X125442023Y-69730952D01*
X125442023Y-69873809D01*
X125394404Y-70064285D01*
X125346785Y-70159523D01*
X125251547Y-70254761D01*
X125108690Y-70302380D01*
X124870595Y-70302380D01*
X122584880Y-77922380D02*
X122251547Y-77446190D01*
X122013452Y-77922380D02*
X122013452Y-76922380D01*
X122394404Y-76922380D01*
X122489642Y-76970000D01*
X122537261Y-77017619D01*
X122584880Y-77112857D01*
X122584880Y-77255714D01*
X122537261Y-77350952D01*
X122489642Y-77398571D01*
X122394404Y-77446190D01*
X122013452Y-77446190D01*
X123013452Y-77398571D02*
X123346785Y-77398571D01*
X123489642Y-77922380D02*
X123013452Y-77922380D01*
X123013452Y-76922380D01*
X123489642Y-76922380D01*
X123870595Y-77874761D02*
X124013452Y-77922380D01*
X124251547Y-77922380D01*
X124346785Y-77874761D01*
X124394404Y-77827142D01*
X124442023Y-77731904D01*
X124442023Y-77636666D01*
X124394404Y-77541428D01*
X124346785Y-77493809D01*
X124251547Y-77446190D01*
X124061071Y-77398571D01*
X123965833Y-77350952D01*
X123918214Y-77303333D01*
X123870595Y-77208095D01*
X123870595Y-77112857D01*
X123918214Y-77017619D01*
X123965833Y-76970000D01*
X124061071Y-76922380D01*
X124299166Y-76922380D01*
X124442023Y-76970000D01*
X125203928Y-77398571D02*
X125346785Y-77446190D01*
X125394404Y-77493809D01*
X125442023Y-77589047D01*
X125442023Y-77731904D01*
X125394404Y-77827142D01*
X125346785Y-77874761D01*
X125251547Y-77922380D01*
X124870595Y-77922380D01*
X124870595Y-76922380D01*
X125203928Y-76922380D01*
X125299166Y-76970000D01*
X125346785Y-77017619D01*
X125394404Y-77112857D01*
X125394404Y-77208095D01*
X125346785Y-77303333D01*
X125299166Y-77350952D01*
X125203928Y-77398571D01*
X124870595Y-77398571D01*
X123918214Y-103322380D02*
X123918214Y-102322380D01*
X124156309Y-102322380D01*
X124299166Y-102370000D01*
X124394404Y-102465238D01*
X124442023Y-102560476D01*
X124489642Y-102750952D01*
X124489642Y-102893809D01*
X124442023Y-103084285D01*
X124394404Y-103179523D01*
X124299166Y-103274761D01*
X124156309Y-103322380D01*
X123918214Y-103322380D01*
X125346785Y-102655714D02*
X125346785Y-103322380D01*
X125108690Y-102274761D02*
X124870595Y-102989047D01*
X125489642Y-102989047D01*
X123918214Y-100782380D02*
X123918214Y-99782380D01*
X124156309Y-99782380D01*
X124299166Y-99830000D01*
X124394404Y-99925238D01*
X124442023Y-100020476D01*
X124489642Y-100210952D01*
X124489642Y-100353809D01*
X124442023Y-100544285D01*
X124394404Y-100639523D01*
X124299166Y-100734761D01*
X124156309Y-100782380D01*
X123918214Y-100782380D01*
X124822976Y-99782380D02*
X125442023Y-99782380D01*
X125108690Y-100163333D01*
X125251547Y-100163333D01*
X125346785Y-100210952D01*
X125394404Y-100258571D01*
X125442023Y-100353809D01*
X125442023Y-100591904D01*
X125394404Y-100687142D01*
X125346785Y-100734761D01*
X125251547Y-100782380D01*
X124965833Y-100782380D01*
X124870595Y-100734761D01*
X124822976Y-100687142D01*
X123584880Y-75382380D02*
X123251547Y-74906190D01*
X123013452Y-75382380D02*
X123013452Y-74382380D01*
X123394404Y-74382380D01*
X123489642Y-74430000D01*
X123537261Y-74477619D01*
X123584880Y-74572857D01*
X123584880Y-74715714D01*
X123537261Y-74810952D01*
X123489642Y-74858571D01*
X123394404Y-74906190D01*
X123013452Y-74906190D01*
X124013452Y-75382380D02*
X124013452Y-74382380D01*
X124251547Y-74382380D01*
X124394404Y-74430000D01*
X124489642Y-74525238D01*
X124537261Y-74620476D01*
X124584880Y-74810952D01*
X124584880Y-74953809D01*
X124537261Y-75144285D01*
X124489642Y-75239523D01*
X124394404Y-75334761D01*
X124251547Y-75382380D01*
X124013452Y-75382380D01*
X125203928Y-74906190D02*
X125203928Y-75382380D01*
X124870595Y-74382380D02*
X125203928Y-74906190D01*
X125537261Y-74382380D01*
X123251547Y-88082380D02*
X123251547Y-87082380D01*
X123156309Y-87225238D02*
X123346785Y-87225238D01*
X123489642Y-87272857D01*
X123584880Y-87368095D01*
X123632500Y-87463333D01*
X123632500Y-87653809D01*
X123584880Y-87749047D01*
X123489642Y-87844285D01*
X123346785Y-87891904D01*
X123156309Y-87891904D01*
X123013452Y-87844285D01*
X122918214Y-87749047D01*
X122870595Y-87653809D01*
X122870595Y-87463333D01*
X122918214Y-87368095D01*
X123013452Y-87272857D01*
X123156309Y-87225238D01*
X123965833Y-87177619D02*
X124013452Y-87130000D01*
X124108690Y-87082380D01*
X124346785Y-87082380D01*
X124442023Y-87130000D01*
X124489642Y-87177619D01*
X124537261Y-87272857D01*
X124537261Y-87368095D01*
X124489642Y-87510952D01*
X123918214Y-88082380D01*
X124537261Y-88082380D01*
X125108690Y-88082380D02*
X125013452Y-88034761D01*
X124965833Y-87987142D01*
X124918214Y-87891904D01*
X124918214Y-87606190D01*
X124965833Y-87510952D01*
X125013452Y-87463333D01*
X125108690Y-87415714D01*
X125251547Y-87415714D01*
X125346785Y-87463333D01*
X125394404Y-87510952D01*
X125442023Y-87606190D01*
X125442023Y-87891904D01*
X125394404Y-87987142D01*
X125346785Y-88034761D01*
X125251547Y-88082380D01*
X125108690Y-88082380D01*
X121965833Y-90574761D02*
X122108690Y-90622380D01*
X122346785Y-90622380D01*
X122442023Y-90574761D01*
X122489642Y-90527142D01*
X122537261Y-90431904D01*
X122537261Y-90336666D01*
X122489642Y-90241428D01*
X122442023Y-90193809D01*
X122346785Y-90146190D01*
X122156309Y-90098571D01*
X122061071Y-90050952D01*
X122013452Y-90003333D01*
X121965833Y-89908095D01*
X121965833Y-89812857D01*
X122013452Y-89717619D01*
X122061071Y-89670000D01*
X122156309Y-89622380D01*
X122394404Y-89622380D01*
X122537261Y-89670000D01*
X123156309Y-90146190D02*
X123156309Y-90622380D01*
X122822976Y-89622380D02*
X123156309Y-90146190D01*
X123489642Y-89622380D01*
X123822976Y-90622380D02*
X123822976Y-89622380D01*
X124394404Y-90622380D01*
X124394404Y-89622380D01*
X125442023Y-90527142D02*
X125394404Y-90574761D01*
X125251547Y-90622380D01*
X125156309Y-90622380D01*
X125013452Y-90574761D01*
X124918214Y-90479523D01*
X124870595Y-90384285D01*
X124822976Y-90193809D01*
X124822976Y-90050952D01*
X124870595Y-89860476D01*
X124918214Y-89765238D01*
X125013452Y-89670000D01*
X125156309Y-89622380D01*
X125251547Y-89622380D01*
X125394404Y-89670000D01*
X125442023Y-89717619D01*
X124013452Y-57316666D02*
X124489642Y-57316666D01*
X123918214Y-57602380D02*
X124251547Y-56602380D01*
X124584880Y-57602380D01*
X125442023Y-57602380D02*
X124870595Y-57602380D01*
X125156309Y-57602380D02*
X125156309Y-56602380D01*
X125061071Y-56745238D01*
X124965833Y-56840476D01*
X124870595Y-56888095D01*
X122918214Y-72461428D02*
X123680119Y-72461428D01*
X123299166Y-72842380D02*
X123299166Y-72080476D01*
X124632500Y-71842380D02*
X124156309Y-71842380D01*
X124108690Y-72318571D01*
X124156309Y-72270952D01*
X124251547Y-72223333D01*
X124489642Y-72223333D01*
X124584880Y-72270952D01*
X124632500Y-72318571D01*
X124680119Y-72413809D01*
X124680119Y-72651904D01*
X124632500Y-72747142D01*
X124584880Y-72794761D01*
X124489642Y-72842380D01*
X124251547Y-72842380D01*
X124156309Y-72794761D01*
X124108690Y-72747142D01*
X125013452Y-72175714D02*
X125251547Y-72842380D01*
X125489642Y-72175714D01*
X123918214Y-95702380D02*
X123918214Y-94702380D01*
X124156309Y-94702380D01*
X124299166Y-94750000D01*
X124394404Y-94845238D01*
X124442023Y-94940476D01*
X124489642Y-95130952D01*
X124489642Y-95273809D01*
X124442023Y-95464285D01*
X124394404Y-95559523D01*
X124299166Y-95654761D01*
X124156309Y-95702380D01*
X123918214Y-95702380D01*
X125442023Y-95702380D02*
X124870595Y-95702380D01*
X125156309Y-95702380D02*
X125156309Y-94702380D01*
X125061071Y-94845238D01*
X124965833Y-94940476D01*
X124870595Y-94988095D01*
X123918214Y-98242380D02*
X123918214Y-97242380D01*
X124156309Y-97242380D01*
X124299166Y-97290000D01*
X124394404Y-97385238D01*
X124442023Y-97480476D01*
X124489642Y-97670952D01*
X124489642Y-97813809D01*
X124442023Y-98004285D01*
X124394404Y-98099523D01*
X124299166Y-98194761D01*
X124156309Y-98242380D01*
X123918214Y-98242380D01*
X124870595Y-97337619D02*
X124918214Y-97290000D01*
X125013452Y-97242380D01*
X125251547Y-97242380D01*
X125346785Y-97290000D01*
X125394404Y-97337619D01*
X125442023Y-97432857D01*
X125442023Y-97528095D01*
X125394404Y-97670952D01*
X124822976Y-98242380D01*
X125442023Y-98242380D01*
X123061071Y-21756666D02*
X123537261Y-21756666D01*
X122965833Y-22042380D02*
X123299166Y-21042380D01*
X123632500Y-22042380D01*
X124489642Y-22042380D02*
X123918214Y-22042380D01*
X124203928Y-22042380D02*
X124203928Y-21042380D01*
X124108690Y-21185238D01*
X124013452Y-21280476D01*
X123918214Y-21328095D01*
X125394404Y-21042380D02*
X124918214Y-21042380D01*
X124870595Y-21518571D01*
X124918214Y-21470952D01*
X125013452Y-21423333D01*
X125251547Y-21423333D01*
X125346785Y-21470952D01*
X125394404Y-21518571D01*
X125442023Y-21613809D01*
X125442023Y-21851904D01*
X125394404Y-21947142D01*
X125346785Y-21994761D01*
X125251547Y-22042380D01*
X125013452Y-22042380D01*
X124918214Y-21994761D01*
X124870595Y-21947142D01*
X121918214Y-120102380D02*
X121918214Y-120911904D01*
X121965833Y-121007142D01*
X122013452Y-121054761D01*
X122108690Y-121102380D01*
X122299166Y-121102380D01*
X122394404Y-121054761D01*
X122442023Y-121007142D01*
X122489642Y-120911904D01*
X122489642Y-120102380D01*
X122918214Y-121054761D02*
X123061071Y-121102380D01*
X123299166Y-121102380D01*
X123394404Y-121054761D01*
X123442023Y-121007142D01*
X123489642Y-120911904D01*
X123489642Y-120816666D01*
X123442023Y-120721428D01*
X123394404Y-120673809D01*
X123299166Y-120626190D01*
X123108690Y-120578571D01*
X123013452Y-120530952D01*
X122965833Y-120483333D01*
X122918214Y-120388095D01*
X122918214Y-120292857D01*
X122965833Y-120197619D01*
X123013452Y-120150000D01*
X123108690Y-120102380D01*
X123346785Y-120102380D01*
X123489642Y-120150000D01*
X124489642Y-121102380D02*
X124156309Y-120626190D01*
X123918214Y-121102380D02*
X123918214Y-120102380D01*
X124299166Y-120102380D01*
X124394404Y-120150000D01*
X124442023Y-120197619D01*
X124489642Y-120292857D01*
X124489642Y-120435714D01*
X124442023Y-120530952D01*
X124394404Y-120578571D01*
X124299166Y-120626190D01*
X123918214Y-120626190D01*
X125346785Y-120435714D02*
X125346785Y-121102380D01*
X125108690Y-120054761D02*
X124870595Y-120769047D01*
X125489642Y-120769047D01*
X124013452Y-54776666D02*
X124489642Y-54776666D01*
X123918214Y-55062380D02*
X124251547Y-54062380D01*
X124584880Y-55062380D01*
X124870595Y-54157619D02*
X124918214Y-54110000D01*
X125013452Y-54062380D01*
X125251547Y-54062380D01*
X125346785Y-54110000D01*
X125394404Y-54157619D01*
X125442023Y-54252857D01*
X125442023Y-54348095D01*
X125394404Y-54490952D01*
X124822976Y-55062380D01*
X125442023Y-55062380D01*
X123061071Y-31916666D02*
X123537261Y-31916666D01*
X122965833Y-32202380D02*
X123299166Y-31202380D01*
X123632500Y-32202380D01*
X124489642Y-32202380D02*
X123918214Y-32202380D01*
X124203928Y-32202380D02*
X124203928Y-31202380D01*
X124108690Y-31345238D01*
X124013452Y-31440476D01*
X123918214Y-31488095D01*
X125442023Y-32202380D02*
X124870595Y-32202380D01*
X125156309Y-32202380D02*
X125156309Y-31202380D01*
X125061071Y-31345238D01*
X124965833Y-31440476D01*
X124870595Y-31488095D01*
X121918214Y-115022380D02*
X121918214Y-115831904D01*
X121965833Y-115927142D01*
X122013452Y-115974761D01*
X122108690Y-116022380D01*
X122299166Y-116022380D01*
X122394404Y-115974761D01*
X122442023Y-115927142D01*
X122489642Y-115831904D01*
X122489642Y-115022380D01*
X122918214Y-115974761D02*
X123061071Y-116022380D01*
X123299166Y-116022380D01*
X123394404Y-115974761D01*
X123442023Y-115927142D01*
X123489642Y-115831904D01*
X123489642Y-115736666D01*
X123442023Y-115641428D01*
X123394404Y-115593809D01*
X123299166Y-115546190D01*
X123108690Y-115498571D01*
X123013452Y-115450952D01*
X122965833Y-115403333D01*
X122918214Y-115308095D01*
X122918214Y-115212857D01*
X122965833Y-115117619D01*
X123013452Y-115070000D01*
X123108690Y-115022380D01*
X123346785Y-115022380D01*
X123489642Y-115070000D01*
X124489642Y-116022380D02*
X124156309Y-115546190D01*
X123918214Y-116022380D02*
X123918214Y-115022380D01*
X124299166Y-115022380D01*
X124394404Y-115070000D01*
X124442023Y-115117619D01*
X124489642Y-115212857D01*
X124489642Y-115355714D01*
X124442023Y-115450952D01*
X124394404Y-115498571D01*
X124299166Y-115546190D01*
X123918214Y-115546190D01*
X124870595Y-115117619D02*
X124918214Y-115070000D01*
X125013452Y-115022380D01*
X125251547Y-115022380D01*
X125346785Y-115070000D01*
X125394404Y-115117619D01*
X125442023Y-115212857D01*
X125442023Y-115308095D01*
X125394404Y-115450952D01*
X124822976Y-116022380D01*
X125442023Y-116022380D01*
X124013452Y-36996666D02*
X124489642Y-36996666D01*
X123918214Y-37282380D02*
X124251547Y-36282380D01*
X124584880Y-37282380D01*
X124965833Y-37282380D02*
X125156309Y-37282380D01*
X125251547Y-37234761D01*
X125299166Y-37187142D01*
X125394404Y-37044285D01*
X125442023Y-36853809D01*
X125442023Y-36472857D01*
X125394404Y-36377619D01*
X125346785Y-36330000D01*
X125251547Y-36282380D01*
X125061071Y-36282380D01*
X124965833Y-36330000D01*
X124918214Y-36377619D01*
X124870595Y-36472857D01*
X124870595Y-36710952D01*
X124918214Y-36806190D01*
X124965833Y-36853809D01*
X125061071Y-36901428D01*
X125251547Y-36901428D01*
X125346785Y-36853809D01*
X125394404Y-36806190D01*
X125442023Y-36710952D01*
X124013452Y-52236666D02*
X124489642Y-52236666D01*
X123918214Y-52522380D02*
X124251547Y-51522380D01*
X124584880Y-52522380D01*
X124822976Y-51522380D02*
X125442023Y-51522380D01*
X125108690Y-51903333D01*
X125251547Y-51903333D01*
X125346785Y-51950952D01*
X125394404Y-51998571D01*
X125442023Y-52093809D01*
X125442023Y-52331904D01*
X125394404Y-52427142D01*
X125346785Y-52474761D01*
X125251547Y-52522380D01*
X124965833Y-52522380D01*
X124870595Y-52474761D01*
X124822976Y-52427142D01*
X122346785Y-65222380D02*
X122346785Y-64222380D01*
X123394404Y-65222380D02*
X123061071Y-64746190D01*
X122822976Y-65222380D02*
X122822976Y-64222380D01*
X123203928Y-64222380D01*
X123299166Y-64270000D01*
X123346785Y-64317619D01*
X123394404Y-64412857D01*
X123394404Y-64555714D01*
X123346785Y-64650952D01*
X123299166Y-64698571D01*
X123203928Y-64746190D01*
X122822976Y-64746190D01*
X124489642Y-65317619D02*
X124394404Y-65270000D01*
X124299166Y-65174761D01*
X124156309Y-65031904D01*
X124061071Y-64984285D01*
X123965833Y-64984285D01*
X124013452Y-65222380D02*
X123918214Y-65174761D01*
X123822976Y-65079523D01*
X123775357Y-64889047D01*
X123775357Y-64555714D01*
X123822976Y-64365238D01*
X123918214Y-64270000D01*
X124013452Y-64222380D01*
X124203928Y-64222380D01*
X124299166Y-64270000D01*
X124394404Y-64365238D01*
X124442023Y-64555714D01*
X124442023Y-64889047D01*
X124394404Y-65079523D01*
X124299166Y-65174761D01*
X124203928Y-65222380D01*
X124013452Y-65222380D01*
X125203928Y-64698571D02*
X125346785Y-64746190D01*
X125394404Y-64793809D01*
X125442023Y-64889047D01*
X125442023Y-65031904D01*
X125394404Y-65127142D01*
X125346785Y-65174761D01*
X125251547Y-65222380D01*
X124870595Y-65222380D01*
X124870595Y-64222380D01*
X125203928Y-64222380D01*
X125299166Y-64270000D01*
X125346785Y-64317619D01*
X125394404Y-64412857D01*
X125394404Y-64508095D01*
X125346785Y-64603333D01*
X125299166Y-64650952D01*
X125203928Y-64698571D01*
X124870595Y-64698571D01*
X124013452Y-49696666D02*
X124489642Y-49696666D01*
X123918214Y-49982380D02*
X124251547Y-48982380D01*
X124584880Y-49982380D01*
X125346785Y-49315714D02*
X125346785Y-49982380D01*
X125108690Y-48934761D02*
X124870595Y-49649047D01*
X125489642Y-49649047D01*
X123918214Y-93162380D02*
X123918214Y-92162380D01*
X124156309Y-92162380D01*
X124299166Y-92210000D01*
X124394404Y-92305238D01*
X124442023Y-92400476D01*
X124489642Y-92590952D01*
X124489642Y-92733809D01*
X124442023Y-92924285D01*
X124394404Y-93019523D01*
X124299166Y-93114761D01*
X124156309Y-93162380D01*
X123918214Y-93162380D01*
X125108690Y-92162380D02*
X125203928Y-92162380D01*
X125299166Y-92210000D01*
X125346785Y-92257619D01*
X125394404Y-92352857D01*
X125442023Y-92543333D01*
X125442023Y-92781428D01*
X125394404Y-92971904D01*
X125346785Y-93067142D01*
X125299166Y-93114761D01*
X125203928Y-93162380D01*
X125108690Y-93162380D01*
X125013452Y-93114761D01*
X124965833Y-93067142D01*
X124918214Y-92971904D01*
X124870595Y-92781428D01*
X124870595Y-92543333D01*
X124918214Y-92352857D01*
X124965833Y-92257619D01*
X125013452Y-92210000D01*
X125108690Y-92162380D01*
X123061071Y-29376666D02*
X123537261Y-29376666D01*
X122965833Y-29662380D02*
X123299166Y-28662380D01*
X123632500Y-29662380D01*
X124489642Y-29662380D02*
X123918214Y-29662380D01*
X124203928Y-29662380D02*
X124203928Y-28662380D01*
X124108690Y-28805238D01*
X124013452Y-28900476D01*
X123918214Y-28948095D01*
X124870595Y-28757619D02*
X124918214Y-28710000D01*
X125013452Y-28662380D01*
X125251547Y-28662380D01*
X125346785Y-28710000D01*
X125394404Y-28757619D01*
X125442023Y-28852857D01*
X125442023Y-28948095D01*
X125394404Y-29090952D01*
X124822976Y-29662380D01*
X125442023Y-29662380D01*
X123251547Y-85542380D02*
X123251547Y-84542380D01*
X123156309Y-84685238D02*
X123346785Y-84685238D01*
X123489642Y-84732857D01*
X123584880Y-84828095D01*
X123632500Y-84923333D01*
X123632500Y-85113809D01*
X123584880Y-85209047D01*
X123489642Y-85304285D01*
X123346785Y-85351904D01*
X123156309Y-85351904D01*
X123013452Y-85304285D01*
X122918214Y-85209047D01*
X122870595Y-85113809D01*
X122870595Y-84923333D01*
X122918214Y-84828095D01*
X123013452Y-84732857D01*
X123156309Y-84685238D01*
X124537261Y-85542380D02*
X123965833Y-85542380D01*
X124251547Y-85542380D02*
X124251547Y-84542380D01*
X124156309Y-84685238D01*
X124061071Y-84780476D01*
X123965833Y-84828095D01*
X125108690Y-85542380D02*
X125013452Y-85494761D01*
X124965833Y-85447142D01*
X124918214Y-85351904D01*
X124918214Y-85066190D01*
X124965833Y-84970952D01*
X125013452Y-84923333D01*
X125108690Y-84875714D01*
X125251547Y-84875714D01*
X125346785Y-84923333D01*
X125394404Y-84970952D01*
X125442023Y-85066190D01*
X125442023Y-85351904D01*
X125394404Y-85447142D01*
X125346785Y-85494761D01*
X125251547Y-85542380D01*
X125108690Y-85542380D01*
X123061071Y-26836666D02*
X123537261Y-26836666D01*
X122965833Y-27122380D02*
X123299166Y-26122380D01*
X123632500Y-27122380D01*
X124489642Y-27122380D02*
X123918214Y-27122380D01*
X124203928Y-27122380D02*
X124203928Y-26122380D01*
X124108690Y-26265238D01*
X124013452Y-26360476D01*
X123918214Y-26408095D01*
X124822976Y-26122380D02*
X125442023Y-26122380D01*
X125108690Y-26503333D01*
X125251547Y-26503333D01*
X125346785Y-26550952D01*
X125394404Y-26598571D01*
X125442023Y-26693809D01*
X125442023Y-26931904D01*
X125394404Y-27027142D01*
X125346785Y-27074761D01*
X125251547Y-27122380D01*
X124965833Y-27122380D01*
X124870595Y-27074761D01*
X124822976Y-27027142D01*
X97184880Y-77922380D02*
X96851547Y-77446190D01*
X96613452Y-77922380D02*
X96613452Y-76922380D01*
X96994404Y-76922380D01*
X97089642Y-76970000D01*
X97137261Y-77017619D01*
X97184880Y-77112857D01*
X97184880Y-77255714D01*
X97137261Y-77350952D01*
X97089642Y-77398571D01*
X96994404Y-77446190D01*
X96613452Y-77446190D01*
X97613452Y-77398571D02*
X97946785Y-77398571D01*
X98089642Y-77922380D02*
X97613452Y-77922380D01*
X97613452Y-76922380D01*
X98089642Y-76922380D01*
X98470595Y-77874761D02*
X98613452Y-77922380D01*
X98851547Y-77922380D01*
X98946785Y-77874761D01*
X98994404Y-77827142D01*
X99042023Y-77731904D01*
X99042023Y-77636666D01*
X98994404Y-77541428D01*
X98946785Y-77493809D01*
X98851547Y-77446190D01*
X98661071Y-77398571D01*
X98565833Y-77350952D01*
X98518214Y-77303333D01*
X98470595Y-77208095D01*
X98470595Y-77112857D01*
X98518214Y-77017619D01*
X98565833Y-76970000D01*
X98661071Y-76922380D01*
X98899166Y-76922380D01*
X99042023Y-76970000D01*
X99803928Y-77398571D02*
X99946785Y-77446190D01*
X99994404Y-77493809D01*
X100042023Y-77589047D01*
X100042023Y-77731904D01*
X99994404Y-77827142D01*
X99946785Y-77874761D01*
X99851547Y-77922380D01*
X99470595Y-77922380D01*
X99470595Y-76922380D01*
X99803928Y-76922380D01*
X99899166Y-76970000D01*
X99946785Y-77017619D01*
X99994404Y-77112857D01*
X99994404Y-77208095D01*
X99946785Y-77303333D01*
X99899166Y-77350952D01*
X99803928Y-77398571D01*
X99470595Y-77398571D01*
X98613452Y-39536666D02*
X99089642Y-39536666D01*
X98518214Y-39822380D02*
X98851547Y-38822380D01*
X99184880Y-39822380D01*
X99661071Y-39250952D02*
X99565833Y-39203333D01*
X99518214Y-39155714D01*
X99470595Y-39060476D01*
X99470595Y-39012857D01*
X99518214Y-38917619D01*
X99565833Y-38870000D01*
X99661071Y-38822380D01*
X99851547Y-38822380D01*
X99946785Y-38870000D01*
X99994404Y-38917619D01*
X100042023Y-39012857D01*
X100042023Y-39060476D01*
X99994404Y-39155714D01*
X99946785Y-39203333D01*
X99851547Y-39250952D01*
X99661071Y-39250952D01*
X99565833Y-39298571D01*
X99518214Y-39346190D01*
X99470595Y-39441428D01*
X99470595Y-39631904D01*
X99518214Y-39727142D01*
X99565833Y-39774761D01*
X99661071Y-39822380D01*
X99851547Y-39822380D01*
X99946785Y-39774761D01*
X99994404Y-39727142D01*
X100042023Y-39631904D01*
X100042023Y-39441428D01*
X99994404Y-39346190D01*
X99946785Y-39298571D01*
X99851547Y-39250952D01*
X97518214Y-72461428D02*
X98280119Y-72461428D01*
X97899166Y-72842380D02*
X97899166Y-72080476D01*
X99232500Y-71842380D02*
X98756309Y-71842380D01*
X98708690Y-72318571D01*
X98756309Y-72270952D01*
X98851547Y-72223333D01*
X99089642Y-72223333D01*
X99184880Y-72270952D01*
X99232500Y-72318571D01*
X99280119Y-72413809D01*
X99280119Y-72651904D01*
X99232500Y-72747142D01*
X99184880Y-72794761D01*
X99089642Y-72842380D01*
X98851547Y-72842380D01*
X98756309Y-72794761D01*
X98708690Y-72747142D01*
X99613452Y-72175714D02*
X99851547Y-72842380D01*
X100089642Y-72175714D01*
X97851547Y-85542380D02*
X97851547Y-84542380D01*
X97756309Y-84685238D02*
X97946785Y-84685238D01*
X98089642Y-84732857D01*
X98184880Y-84828095D01*
X98232500Y-84923333D01*
X98232500Y-85113809D01*
X98184880Y-85209047D01*
X98089642Y-85304285D01*
X97946785Y-85351904D01*
X97756309Y-85351904D01*
X97613452Y-85304285D01*
X97518214Y-85209047D01*
X97470595Y-85113809D01*
X97470595Y-84923333D01*
X97518214Y-84828095D01*
X97613452Y-84732857D01*
X97756309Y-84685238D01*
X99137261Y-85542380D02*
X98565833Y-85542380D01*
X98851547Y-85542380D02*
X98851547Y-84542380D01*
X98756309Y-84685238D01*
X98661071Y-84780476D01*
X98565833Y-84828095D01*
X99708690Y-85542380D02*
X99613452Y-85494761D01*
X99565833Y-85447142D01*
X99518214Y-85351904D01*
X99518214Y-85066190D01*
X99565833Y-84970952D01*
X99613452Y-84923333D01*
X99708690Y-84875714D01*
X99851547Y-84875714D01*
X99946785Y-84923333D01*
X99994404Y-84970952D01*
X100042023Y-85066190D01*
X100042023Y-85351904D01*
X99994404Y-85447142D01*
X99946785Y-85494761D01*
X99851547Y-85542380D01*
X99708690Y-85542380D01*
X98613452Y-44616666D02*
X99089642Y-44616666D01*
X98518214Y-44902380D02*
X98851547Y-43902380D01*
X99184880Y-44902380D01*
X99946785Y-43902380D02*
X99756309Y-43902380D01*
X99661071Y-43950000D01*
X99613452Y-43997619D01*
X99518214Y-44140476D01*
X99470595Y-44330952D01*
X99470595Y-44711904D01*
X99518214Y-44807142D01*
X99565833Y-44854761D01*
X99661071Y-44902380D01*
X99851547Y-44902380D01*
X99946785Y-44854761D01*
X99994404Y-44807142D01*
X100042023Y-44711904D01*
X100042023Y-44473809D01*
X99994404Y-44378571D01*
X99946785Y-44330952D01*
X99851547Y-44283333D01*
X99661071Y-44283333D01*
X99565833Y-44330952D01*
X99518214Y-44378571D01*
X99470595Y-44473809D01*
X97661071Y-26836666D02*
X98137261Y-26836666D01*
X97565833Y-27122380D02*
X97899166Y-26122380D01*
X98232500Y-27122380D01*
X99089642Y-27122380D02*
X98518214Y-27122380D01*
X98803928Y-27122380D02*
X98803928Y-26122380D01*
X98708690Y-26265238D01*
X98613452Y-26360476D01*
X98518214Y-26408095D01*
X99422976Y-26122380D02*
X100042023Y-26122380D01*
X99708690Y-26503333D01*
X99851547Y-26503333D01*
X99946785Y-26550952D01*
X99994404Y-26598571D01*
X100042023Y-26693809D01*
X100042023Y-26931904D01*
X99994404Y-27027142D01*
X99946785Y-27074761D01*
X99851547Y-27122380D01*
X99565833Y-27122380D01*
X99470595Y-27074761D01*
X99422976Y-27027142D01*
X98613452Y-54776666D02*
X99089642Y-54776666D01*
X98518214Y-55062380D02*
X98851547Y-54062380D01*
X99184880Y-55062380D01*
X99470595Y-54157619D02*
X99518214Y-54110000D01*
X99613452Y-54062380D01*
X99851547Y-54062380D01*
X99946785Y-54110000D01*
X99994404Y-54157619D01*
X100042023Y-54252857D01*
X100042023Y-54348095D01*
X99994404Y-54490952D01*
X99422976Y-55062380D01*
X100042023Y-55062380D01*
X97661071Y-21756666D02*
X98137261Y-21756666D01*
X97565833Y-22042380D02*
X97899166Y-21042380D01*
X98232500Y-22042380D01*
X99089642Y-22042380D02*
X98518214Y-22042380D01*
X98803928Y-22042380D02*
X98803928Y-21042380D01*
X98708690Y-21185238D01*
X98613452Y-21280476D01*
X98518214Y-21328095D01*
X99994404Y-21042380D02*
X99518214Y-21042380D01*
X99470595Y-21518571D01*
X99518214Y-21470952D01*
X99613452Y-21423333D01*
X99851547Y-21423333D01*
X99946785Y-21470952D01*
X99994404Y-21518571D01*
X100042023Y-21613809D01*
X100042023Y-21851904D01*
X99994404Y-21947142D01*
X99946785Y-21994761D01*
X99851547Y-22042380D01*
X99613452Y-22042380D01*
X99518214Y-21994761D01*
X99470595Y-21947142D01*
X97661071Y-34456666D02*
X98137261Y-34456666D01*
X97565833Y-34742380D02*
X97899166Y-33742380D01*
X98232500Y-34742380D01*
X99089642Y-34742380D02*
X98518214Y-34742380D01*
X98803928Y-34742380D02*
X98803928Y-33742380D01*
X98708690Y-33885238D01*
X98613452Y-33980476D01*
X98518214Y-34028095D01*
X99708690Y-33742380D02*
X99803928Y-33742380D01*
X99899166Y-33790000D01*
X99946785Y-33837619D01*
X99994404Y-33932857D01*
X100042023Y-34123333D01*
X100042023Y-34361428D01*
X99994404Y-34551904D01*
X99946785Y-34647142D01*
X99899166Y-34694761D01*
X99803928Y-34742380D01*
X99708690Y-34742380D01*
X99613452Y-34694761D01*
X99565833Y-34647142D01*
X99518214Y-34551904D01*
X99470595Y-34361428D01*
X99470595Y-34123333D01*
X99518214Y-33932857D01*
X99565833Y-33837619D01*
X99613452Y-33790000D01*
X99708690Y-33742380D01*
X97899166Y-80462380D02*
X97565833Y-79986190D01*
X97327738Y-80462380D02*
X97327738Y-79462380D01*
X97708690Y-79462380D01*
X97803928Y-79510000D01*
X97851547Y-79557619D01*
X97899166Y-79652857D01*
X97899166Y-79795714D01*
X97851547Y-79890952D01*
X97803928Y-79938571D01*
X97708690Y-79986190D01*
X97327738Y-79986190D01*
X98232500Y-79462380D02*
X98470595Y-80462380D01*
X98661071Y-79748095D01*
X98851547Y-80462380D01*
X99089642Y-79462380D01*
X99803928Y-79938571D02*
X99946785Y-79986190D01*
X99994404Y-80033809D01*
X100042023Y-80129047D01*
X100042023Y-80271904D01*
X99994404Y-80367142D01*
X99946785Y-80414761D01*
X99851547Y-80462380D01*
X99470595Y-80462380D01*
X99470595Y-79462380D01*
X99803928Y-79462380D01*
X99899166Y-79510000D01*
X99946785Y-79557619D01*
X99994404Y-79652857D01*
X99994404Y-79748095D01*
X99946785Y-79843333D01*
X99899166Y-79890952D01*
X99803928Y-79938571D01*
X99470595Y-79938571D01*
X96518214Y-117562380D02*
X96518214Y-118371904D01*
X96565833Y-118467142D01*
X96613452Y-118514761D01*
X96708690Y-118562380D01*
X96899166Y-118562380D01*
X96994404Y-118514761D01*
X97042023Y-118467142D01*
X97089642Y-118371904D01*
X97089642Y-117562380D01*
X97518214Y-118514761D02*
X97661071Y-118562380D01*
X97899166Y-118562380D01*
X97994404Y-118514761D01*
X98042023Y-118467142D01*
X98089642Y-118371904D01*
X98089642Y-118276666D01*
X98042023Y-118181428D01*
X97994404Y-118133809D01*
X97899166Y-118086190D01*
X97708690Y-118038571D01*
X97613452Y-117990952D01*
X97565833Y-117943333D01*
X97518214Y-117848095D01*
X97518214Y-117752857D01*
X97565833Y-117657619D01*
X97613452Y-117610000D01*
X97708690Y-117562380D01*
X97946785Y-117562380D01*
X98089642Y-117610000D01*
X99089642Y-118562380D02*
X98756309Y-118086190D01*
X98518214Y-118562380D02*
X98518214Y-117562380D01*
X98899166Y-117562380D01*
X98994404Y-117610000D01*
X99042023Y-117657619D01*
X99089642Y-117752857D01*
X99089642Y-117895714D01*
X99042023Y-117990952D01*
X98994404Y-118038571D01*
X98899166Y-118086190D01*
X98518214Y-118086190D01*
X99422976Y-117562380D02*
X100042023Y-117562380D01*
X99708690Y-117943333D01*
X99851547Y-117943333D01*
X99946785Y-117990952D01*
X99994404Y-118038571D01*
X100042023Y-118133809D01*
X100042023Y-118371904D01*
X99994404Y-118467142D01*
X99946785Y-118514761D01*
X99851547Y-118562380D01*
X99565833Y-118562380D01*
X99470595Y-118514761D01*
X99422976Y-118467142D01*
X98518214Y-100782380D02*
X98518214Y-99782380D01*
X98756309Y-99782380D01*
X98899166Y-99830000D01*
X98994404Y-99925238D01*
X99042023Y-100020476D01*
X99089642Y-100210952D01*
X99089642Y-100353809D01*
X99042023Y-100544285D01*
X98994404Y-100639523D01*
X98899166Y-100734761D01*
X98756309Y-100782380D01*
X98518214Y-100782380D01*
X99422976Y-99782380D02*
X100042023Y-99782380D01*
X99708690Y-100163333D01*
X99851547Y-100163333D01*
X99946785Y-100210952D01*
X99994404Y-100258571D01*
X100042023Y-100353809D01*
X100042023Y-100591904D01*
X99994404Y-100687142D01*
X99946785Y-100734761D01*
X99851547Y-100782380D01*
X99565833Y-100782380D01*
X99470595Y-100734761D01*
X99422976Y-100687142D01*
X98232500Y-82907142D02*
X98184880Y-82954761D01*
X98042023Y-83002380D01*
X97946785Y-83002380D01*
X97803928Y-82954761D01*
X97708690Y-82859523D01*
X97661071Y-82764285D01*
X97613452Y-82573809D01*
X97613452Y-82430952D01*
X97661071Y-82240476D01*
X97708690Y-82145238D01*
X97803928Y-82050000D01*
X97946785Y-82002380D01*
X98042023Y-82002380D01*
X98184880Y-82050000D01*
X98232500Y-82097619D01*
X99137261Y-83002380D02*
X98661071Y-83002380D01*
X98661071Y-82002380D01*
X99470595Y-83002380D02*
X99470595Y-82002380D01*
X100042023Y-83002380D02*
X99613452Y-82430952D01*
X100042023Y-82002380D02*
X99470595Y-82573809D01*
X98518214Y-110942380D02*
X98518214Y-109942380D01*
X98756309Y-109942380D01*
X98899166Y-109990000D01*
X98994404Y-110085238D01*
X99042023Y-110180476D01*
X99089642Y-110370952D01*
X99089642Y-110513809D01*
X99042023Y-110704285D01*
X98994404Y-110799523D01*
X98899166Y-110894761D01*
X98756309Y-110942380D01*
X98518214Y-110942380D01*
X99422976Y-109942380D02*
X100089642Y-109942380D01*
X99661071Y-110942380D01*
X96946785Y-65222380D02*
X96946785Y-64222380D01*
X97994404Y-65222380D02*
X97661071Y-64746190D01*
X97422976Y-65222380D02*
X97422976Y-64222380D01*
X97803928Y-64222380D01*
X97899166Y-64270000D01*
X97946785Y-64317619D01*
X97994404Y-64412857D01*
X97994404Y-64555714D01*
X97946785Y-64650952D01*
X97899166Y-64698571D01*
X97803928Y-64746190D01*
X97422976Y-64746190D01*
X99089642Y-65317619D02*
X98994404Y-65270000D01*
X98899166Y-65174761D01*
X98756309Y-65031904D01*
X98661071Y-64984285D01*
X98565833Y-64984285D01*
X98613452Y-65222380D02*
X98518214Y-65174761D01*
X98422976Y-65079523D01*
X98375357Y-64889047D01*
X98375357Y-64555714D01*
X98422976Y-64365238D01*
X98518214Y-64270000D01*
X98613452Y-64222380D01*
X98803928Y-64222380D01*
X98899166Y-64270000D01*
X98994404Y-64365238D01*
X99042023Y-64555714D01*
X99042023Y-64889047D01*
X98994404Y-65079523D01*
X98899166Y-65174761D01*
X98803928Y-65222380D01*
X98613452Y-65222380D01*
X99803928Y-64698571D02*
X99946785Y-64746190D01*
X99994404Y-64793809D01*
X100042023Y-64889047D01*
X100042023Y-65031904D01*
X99994404Y-65127142D01*
X99946785Y-65174761D01*
X99851547Y-65222380D01*
X99470595Y-65222380D01*
X99470595Y-64222380D01*
X99803928Y-64222380D01*
X99899166Y-64270000D01*
X99946785Y-64317619D01*
X99994404Y-64412857D01*
X99994404Y-64508095D01*
X99946785Y-64603333D01*
X99899166Y-64650952D01*
X99803928Y-64698571D01*
X99470595Y-64698571D01*
X98613452Y-57316666D02*
X99089642Y-57316666D01*
X98518214Y-57602380D02*
X98851547Y-56602380D01*
X99184880Y-57602380D01*
X100042023Y-57602380D02*
X99470595Y-57602380D01*
X99756309Y-57602380D02*
X99756309Y-56602380D01*
X99661071Y-56745238D01*
X99565833Y-56840476D01*
X99470595Y-56888095D01*
X97422976Y-67714761D02*
X97565833Y-67762380D01*
X97803928Y-67762380D01*
X97899166Y-67714761D01*
X97946785Y-67667142D01*
X97994404Y-67571904D01*
X97994404Y-67476666D01*
X97946785Y-67381428D01*
X97899166Y-67333809D01*
X97803928Y-67286190D01*
X97613452Y-67238571D01*
X97518214Y-67190952D01*
X97470595Y-67143333D01*
X97422976Y-67048095D01*
X97422976Y-66952857D01*
X97470595Y-66857619D01*
X97518214Y-66810000D01*
X97613452Y-66762380D01*
X97851547Y-66762380D01*
X97994404Y-66810000D01*
X98613452Y-66762380D02*
X98803928Y-66762380D01*
X98899166Y-66810000D01*
X98994404Y-66905238D01*
X99042023Y-67095714D01*
X99042023Y-67429047D01*
X98994404Y-67619523D01*
X98899166Y-67714761D01*
X98803928Y-67762380D01*
X98613452Y-67762380D01*
X98518214Y-67714761D01*
X98422976Y-67619523D01*
X98375357Y-67429047D01*
X98375357Y-67095714D01*
X98422976Y-66905238D01*
X98518214Y-66810000D01*
X98613452Y-66762380D01*
X99803928Y-67238571D02*
X99946785Y-67286190D01*
X99994404Y-67333809D01*
X100042023Y-67429047D01*
X100042023Y-67571904D01*
X99994404Y-67667142D01*
X99946785Y-67714761D01*
X99851547Y-67762380D01*
X99470595Y-67762380D01*
X99470595Y-66762380D01*
X99803928Y-66762380D01*
X99899166Y-66810000D01*
X99946785Y-66857619D01*
X99994404Y-66952857D01*
X99994404Y-67048095D01*
X99946785Y-67143333D01*
X99899166Y-67190952D01*
X99803928Y-67238571D01*
X99470595Y-67238571D01*
X96518214Y-120102380D02*
X96518214Y-120911904D01*
X96565833Y-121007142D01*
X96613452Y-121054761D01*
X96708690Y-121102380D01*
X96899166Y-121102380D01*
X96994404Y-121054761D01*
X97042023Y-121007142D01*
X97089642Y-120911904D01*
X97089642Y-120102380D01*
X97518214Y-121054761D02*
X97661071Y-121102380D01*
X97899166Y-121102380D01*
X97994404Y-121054761D01*
X98042023Y-121007142D01*
X98089642Y-120911904D01*
X98089642Y-120816666D01*
X98042023Y-120721428D01*
X97994404Y-120673809D01*
X97899166Y-120626190D01*
X97708690Y-120578571D01*
X97613452Y-120530952D01*
X97565833Y-120483333D01*
X97518214Y-120388095D01*
X97518214Y-120292857D01*
X97565833Y-120197619D01*
X97613452Y-120150000D01*
X97708690Y-120102380D01*
X97946785Y-120102380D01*
X98089642Y-120150000D01*
X99089642Y-121102380D02*
X98756309Y-120626190D01*
X98518214Y-121102380D02*
X98518214Y-120102380D01*
X98899166Y-120102380D01*
X98994404Y-120150000D01*
X99042023Y-120197619D01*
X99089642Y-120292857D01*
X99089642Y-120435714D01*
X99042023Y-120530952D01*
X98994404Y-120578571D01*
X98899166Y-120626190D01*
X98518214Y-120626190D01*
X99946785Y-120435714D02*
X99946785Y-121102380D01*
X99708690Y-120054761D02*
X99470595Y-120769047D01*
X100089642Y-120769047D01*
X96518214Y-115022380D02*
X96518214Y-115831904D01*
X96565833Y-115927142D01*
X96613452Y-115974761D01*
X96708690Y-116022380D01*
X96899166Y-116022380D01*
X96994404Y-115974761D01*
X97042023Y-115927142D01*
X97089642Y-115831904D01*
X97089642Y-115022380D01*
X97518214Y-115974761D02*
X97661071Y-116022380D01*
X97899166Y-116022380D01*
X97994404Y-115974761D01*
X98042023Y-115927142D01*
X98089642Y-115831904D01*
X98089642Y-115736666D01*
X98042023Y-115641428D01*
X97994404Y-115593809D01*
X97899166Y-115546190D01*
X97708690Y-115498571D01*
X97613452Y-115450952D01*
X97565833Y-115403333D01*
X97518214Y-115308095D01*
X97518214Y-115212857D01*
X97565833Y-115117619D01*
X97613452Y-115070000D01*
X97708690Y-115022380D01*
X97946785Y-115022380D01*
X98089642Y-115070000D01*
X99089642Y-116022380D02*
X98756309Y-115546190D01*
X98518214Y-116022380D02*
X98518214Y-115022380D01*
X98899166Y-115022380D01*
X98994404Y-115070000D01*
X99042023Y-115117619D01*
X99089642Y-115212857D01*
X99089642Y-115355714D01*
X99042023Y-115450952D01*
X98994404Y-115498571D01*
X98899166Y-115546190D01*
X98518214Y-115546190D01*
X99470595Y-115117619D02*
X99518214Y-115070000D01*
X99613452Y-115022380D01*
X99851547Y-115022380D01*
X99946785Y-115070000D01*
X99994404Y-115117619D01*
X100042023Y-115212857D01*
X100042023Y-115308095D01*
X99994404Y-115450952D01*
X99422976Y-116022380D01*
X100042023Y-116022380D01*
X97661071Y-29376666D02*
X98137261Y-29376666D01*
X97565833Y-29662380D02*
X97899166Y-28662380D01*
X98232500Y-29662380D01*
X99089642Y-29662380D02*
X98518214Y-29662380D01*
X98803928Y-29662380D02*
X98803928Y-28662380D01*
X98708690Y-28805238D01*
X98613452Y-28900476D01*
X98518214Y-28948095D01*
X99470595Y-28757619D02*
X99518214Y-28710000D01*
X99613452Y-28662380D01*
X99851547Y-28662380D01*
X99946785Y-28710000D01*
X99994404Y-28757619D01*
X100042023Y-28852857D01*
X100042023Y-28948095D01*
X99994404Y-29090952D01*
X99422976Y-29662380D01*
X100042023Y-29662380D01*
X98518214Y-103322380D02*
X98518214Y-102322380D01*
X98756309Y-102322380D01*
X98899166Y-102370000D01*
X98994404Y-102465238D01*
X99042023Y-102560476D01*
X99089642Y-102750952D01*
X99089642Y-102893809D01*
X99042023Y-103084285D01*
X98994404Y-103179523D01*
X98899166Y-103274761D01*
X98756309Y-103322380D01*
X98518214Y-103322380D01*
X99946785Y-102655714D02*
X99946785Y-103322380D01*
X99708690Y-102274761D02*
X99470595Y-102989047D01*
X100089642Y-102989047D01*
X98613452Y-36996666D02*
X99089642Y-36996666D01*
X98518214Y-37282380D02*
X98851547Y-36282380D01*
X99184880Y-37282380D01*
X99565833Y-37282380D02*
X99756309Y-37282380D01*
X99851547Y-37234761D01*
X99899166Y-37187142D01*
X99994404Y-37044285D01*
X100042023Y-36853809D01*
X100042023Y-36472857D01*
X99994404Y-36377619D01*
X99946785Y-36330000D01*
X99851547Y-36282380D01*
X99661071Y-36282380D01*
X99565833Y-36330000D01*
X99518214Y-36377619D01*
X99470595Y-36472857D01*
X99470595Y-36710952D01*
X99518214Y-36806190D01*
X99565833Y-36853809D01*
X99661071Y-36901428D01*
X99851547Y-36901428D01*
X99946785Y-36853809D01*
X99994404Y-36806190D01*
X100042023Y-36710952D01*
X98613452Y-47156666D02*
X99089642Y-47156666D01*
X98518214Y-47442380D02*
X98851547Y-46442380D01*
X99184880Y-47442380D01*
X99994404Y-46442380D02*
X99518214Y-46442380D01*
X99470595Y-46918571D01*
X99518214Y-46870952D01*
X99613452Y-46823333D01*
X99851547Y-46823333D01*
X99946785Y-46870952D01*
X99994404Y-46918571D01*
X100042023Y-47013809D01*
X100042023Y-47251904D01*
X99994404Y-47347142D01*
X99946785Y-47394761D01*
X99851547Y-47442380D01*
X99613452Y-47442380D01*
X99518214Y-47394761D01*
X99470595Y-47347142D01*
X97661071Y-31916666D02*
X98137261Y-31916666D01*
X97565833Y-32202380D02*
X97899166Y-31202380D01*
X98232500Y-32202380D01*
X99089642Y-32202380D02*
X98518214Y-32202380D01*
X98803928Y-32202380D02*
X98803928Y-31202380D01*
X98708690Y-31345238D01*
X98613452Y-31440476D01*
X98518214Y-31488095D01*
X100042023Y-32202380D02*
X99470595Y-32202380D01*
X99756309Y-32202380D02*
X99756309Y-31202380D01*
X99661071Y-31345238D01*
X99565833Y-31440476D01*
X99470595Y-31488095D01*
X97946785Y-69350000D02*
X97851547Y-69302380D01*
X97708690Y-69302380D01*
X97565833Y-69350000D01*
X97470595Y-69445238D01*
X97422976Y-69540476D01*
X97375357Y-69730952D01*
X97375357Y-69873809D01*
X97422976Y-70064285D01*
X97470595Y-70159523D01*
X97565833Y-70254761D01*
X97708690Y-70302380D01*
X97803928Y-70302380D01*
X97946785Y-70254761D01*
X97994404Y-70207142D01*
X97994404Y-69873809D01*
X97803928Y-69873809D01*
X98422976Y-70302380D02*
X98422976Y-69302380D01*
X98994404Y-70302380D01*
X98994404Y-69302380D01*
X99470595Y-70302380D02*
X99470595Y-69302380D01*
X99708690Y-69302380D01*
X99851547Y-69350000D01*
X99946785Y-69445238D01*
X99994404Y-69540476D01*
X100042023Y-69730952D01*
X100042023Y-69873809D01*
X99994404Y-70064285D01*
X99946785Y-70159523D01*
X99851547Y-70254761D01*
X99708690Y-70302380D01*
X99470595Y-70302380D01*
X98518214Y-105862380D02*
X98518214Y-104862380D01*
X98756309Y-104862380D01*
X98899166Y-104910000D01*
X98994404Y-105005238D01*
X99042023Y-105100476D01*
X99089642Y-105290952D01*
X99089642Y-105433809D01*
X99042023Y-105624285D01*
X98994404Y-105719523D01*
X98899166Y-105814761D01*
X98756309Y-105862380D01*
X98518214Y-105862380D01*
X99994404Y-104862380D02*
X99518214Y-104862380D01*
X99470595Y-105338571D01*
X99518214Y-105290952D01*
X99613452Y-105243333D01*
X99851547Y-105243333D01*
X99946785Y-105290952D01*
X99994404Y-105338571D01*
X100042023Y-105433809D01*
X100042023Y-105671904D01*
X99994404Y-105767142D01*
X99946785Y-105814761D01*
X99851547Y-105862380D01*
X99613452Y-105862380D01*
X99518214Y-105814761D01*
X99470595Y-105767142D01*
X98518214Y-95702380D02*
X98518214Y-94702380D01*
X98756309Y-94702380D01*
X98899166Y-94750000D01*
X98994404Y-94845238D01*
X99042023Y-94940476D01*
X99089642Y-95130952D01*
X99089642Y-95273809D01*
X99042023Y-95464285D01*
X98994404Y-95559523D01*
X98899166Y-95654761D01*
X98756309Y-95702380D01*
X98518214Y-95702380D01*
X100042023Y-95702380D02*
X99470595Y-95702380D01*
X99756309Y-95702380D02*
X99756309Y-94702380D01*
X99661071Y-94845238D01*
X99565833Y-94940476D01*
X99470595Y-94988095D01*
X98518214Y-98242380D02*
X98518214Y-97242380D01*
X98756309Y-97242380D01*
X98899166Y-97290000D01*
X98994404Y-97385238D01*
X99042023Y-97480476D01*
X99089642Y-97670952D01*
X99089642Y-97813809D01*
X99042023Y-98004285D01*
X98994404Y-98099523D01*
X98899166Y-98194761D01*
X98756309Y-98242380D01*
X98518214Y-98242380D01*
X99470595Y-97337619D02*
X99518214Y-97290000D01*
X99613452Y-97242380D01*
X99851547Y-97242380D01*
X99946785Y-97290000D01*
X99994404Y-97337619D01*
X100042023Y-97432857D01*
X100042023Y-97528095D01*
X99994404Y-97670952D01*
X99422976Y-98242380D01*
X100042023Y-98242380D01*
X98518214Y-108402380D02*
X98518214Y-107402380D01*
X98756309Y-107402380D01*
X98899166Y-107450000D01*
X98994404Y-107545238D01*
X99042023Y-107640476D01*
X99089642Y-107830952D01*
X99089642Y-107973809D01*
X99042023Y-108164285D01*
X98994404Y-108259523D01*
X98899166Y-108354761D01*
X98756309Y-108402380D01*
X98518214Y-108402380D01*
X99946785Y-107402380D02*
X99756309Y-107402380D01*
X99661071Y-107450000D01*
X99613452Y-107497619D01*
X99518214Y-107640476D01*
X99470595Y-107830952D01*
X99470595Y-108211904D01*
X99518214Y-108307142D01*
X99565833Y-108354761D01*
X99661071Y-108402380D01*
X99851547Y-108402380D01*
X99946785Y-108354761D01*
X99994404Y-108307142D01*
X100042023Y-108211904D01*
X100042023Y-107973809D01*
X99994404Y-107878571D01*
X99946785Y-107830952D01*
X99851547Y-107783333D01*
X99661071Y-107783333D01*
X99565833Y-107830952D01*
X99518214Y-107878571D01*
X99470595Y-107973809D01*
X98518214Y-93162380D02*
X98518214Y-92162380D01*
X98756309Y-92162380D01*
X98899166Y-92210000D01*
X98994404Y-92305238D01*
X99042023Y-92400476D01*
X99089642Y-92590952D01*
X99089642Y-92733809D01*
X99042023Y-92924285D01*
X98994404Y-93019523D01*
X98899166Y-93114761D01*
X98756309Y-93162380D01*
X98518214Y-93162380D01*
X99708690Y-92162380D02*
X99803928Y-92162380D01*
X99899166Y-92210000D01*
X99946785Y-92257619D01*
X99994404Y-92352857D01*
X100042023Y-92543333D01*
X100042023Y-92781428D01*
X99994404Y-92971904D01*
X99946785Y-93067142D01*
X99899166Y-93114761D01*
X99803928Y-93162380D01*
X99708690Y-93162380D01*
X99613452Y-93114761D01*
X99565833Y-93067142D01*
X99518214Y-92971904D01*
X99470595Y-92781428D01*
X99470595Y-92543333D01*
X99518214Y-92352857D01*
X99565833Y-92257619D01*
X99613452Y-92210000D01*
X99708690Y-92162380D01*
X98613452Y-49696666D02*
X99089642Y-49696666D01*
X98518214Y-49982380D02*
X98851547Y-48982380D01*
X99184880Y-49982380D01*
X99946785Y-49315714D02*
X99946785Y-49982380D01*
X99708690Y-48934761D02*
X99470595Y-49649047D01*
X100089642Y-49649047D01*
X97661071Y-24296666D02*
X98137261Y-24296666D01*
X97565833Y-24582380D02*
X97899166Y-23582380D01*
X98232500Y-24582380D01*
X99089642Y-24582380D02*
X98518214Y-24582380D01*
X98803928Y-24582380D02*
X98803928Y-23582380D01*
X98708690Y-23725238D01*
X98613452Y-23820476D01*
X98518214Y-23868095D01*
X99946785Y-23915714D02*
X99946785Y-24582380D01*
X99708690Y-23534761D02*
X99470595Y-24249047D01*
X100089642Y-24249047D01*
X97851547Y-88082380D02*
X97851547Y-87082380D01*
X97756309Y-87225238D02*
X97946785Y-87225238D01*
X98089642Y-87272857D01*
X98184880Y-87368095D01*
X98232500Y-87463333D01*
X98232500Y-87653809D01*
X98184880Y-87749047D01*
X98089642Y-87844285D01*
X97946785Y-87891904D01*
X97756309Y-87891904D01*
X97613452Y-87844285D01*
X97518214Y-87749047D01*
X97470595Y-87653809D01*
X97470595Y-87463333D01*
X97518214Y-87368095D01*
X97613452Y-87272857D01*
X97756309Y-87225238D01*
X98565833Y-87177619D02*
X98613452Y-87130000D01*
X98708690Y-87082380D01*
X98946785Y-87082380D01*
X99042023Y-87130000D01*
X99089642Y-87177619D01*
X99137261Y-87272857D01*
X99137261Y-87368095D01*
X99089642Y-87510952D01*
X98518214Y-88082380D01*
X99137261Y-88082380D01*
X99708690Y-88082380D02*
X99613452Y-88034761D01*
X99565833Y-87987142D01*
X99518214Y-87891904D01*
X99518214Y-87606190D01*
X99565833Y-87510952D01*
X99613452Y-87463333D01*
X99708690Y-87415714D01*
X99851547Y-87415714D01*
X99946785Y-87463333D01*
X99994404Y-87510952D01*
X100042023Y-87606190D01*
X100042023Y-87891904D01*
X99994404Y-87987142D01*
X99946785Y-88034761D01*
X99851547Y-88082380D01*
X99708690Y-88082380D01*
X96518214Y-112482380D02*
X96518214Y-113291904D01*
X96565833Y-113387142D01*
X96613452Y-113434761D01*
X96708690Y-113482380D01*
X96899166Y-113482380D01*
X96994404Y-113434761D01*
X97042023Y-113387142D01*
X97089642Y-113291904D01*
X97089642Y-112482380D01*
X97518214Y-113434761D02*
X97661071Y-113482380D01*
X97899166Y-113482380D01*
X97994404Y-113434761D01*
X98042023Y-113387142D01*
X98089642Y-113291904D01*
X98089642Y-113196666D01*
X98042023Y-113101428D01*
X97994404Y-113053809D01*
X97899166Y-113006190D01*
X97708690Y-112958571D01*
X97613452Y-112910952D01*
X97565833Y-112863333D01*
X97518214Y-112768095D01*
X97518214Y-112672857D01*
X97565833Y-112577619D01*
X97613452Y-112530000D01*
X97708690Y-112482380D01*
X97946785Y-112482380D01*
X98089642Y-112530000D01*
X99089642Y-113482380D02*
X98756309Y-113006190D01*
X98518214Y-113482380D02*
X98518214Y-112482380D01*
X98899166Y-112482380D01*
X98994404Y-112530000D01*
X99042023Y-112577619D01*
X99089642Y-112672857D01*
X99089642Y-112815714D01*
X99042023Y-112910952D01*
X98994404Y-112958571D01*
X98899166Y-113006190D01*
X98518214Y-113006190D01*
X100042023Y-113482380D02*
X99470595Y-113482380D01*
X99756309Y-113482380D02*
X99756309Y-112482380D01*
X99661071Y-112625238D01*
X99565833Y-112720476D01*
X99470595Y-112768095D01*
X96803928Y-62682380D02*
X96803928Y-61682380D01*
X97375357Y-62682380D01*
X97375357Y-61682380D01*
X97851547Y-62682380D02*
X97851547Y-61682380D01*
X98184880Y-62396666D01*
X98518214Y-61682380D01*
X98518214Y-62682380D01*
X98994404Y-62682380D02*
X98994404Y-61682380D01*
X99803928Y-62158571D02*
X99946785Y-62206190D01*
X99994404Y-62253809D01*
X100042023Y-62349047D01*
X100042023Y-62491904D01*
X99994404Y-62587142D01*
X99946785Y-62634761D01*
X99851547Y-62682380D01*
X99470595Y-62682380D01*
X99470595Y-61682380D01*
X99803928Y-61682380D01*
X99899166Y-61730000D01*
X99946785Y-61777619D01*
X99994404Y-61872857D01*
X99994404Y-61968095D01*
X99946785Y-62063333D01*
X99899166Y-62110952D01*
X99803928Y-62158571D01*
X99470595Y-62158571D01*
X98613452Y-42076666D02*
X99089642Y-42076666D01*
X98518214Y-42362380D02*
X98851547Y-41362380D01*
X99184880Y-42362380D01*
X99422976Y-41362380D02*
X100089642Y-41362380D01*
X99661071Y-42362380D01*
X98613452Y-52236666D02*
X99089642Y-52236666D01*
X98518214Y-52522380D02*
X98851547Y-51522380D01*
X99184880Y-52522380D01*
X99422976Y-51522380D02*
X100042023Y-51522380D01*
X99708690Y-51903333D01*
X99851547Y-51903333D01*
X99946785Y-51950952D01*
X99994404Y-51998571D01*
X100042023Y-52093809D01*
X100042023Y-52331904D01*
X99994404Y-52427142D01*
X99946785Y-52474761D01*
X99851547Y-52522380D01*
X99565833Y-52522380D01*
X99470595Y-52474761D01*
X99422976Y-52427142D01*
X98184880Y-75382380D02*
X97851547Y-74906190D01*
X97613452Y-75382380D02*
X97613452Y-74382380D01*
X97994404Y-74382380D01*
X98089642Y-74430000D01*
X98137261Y-74477619D01*
X98184880Y-74572857D01*
X98184880Y-74715714D01*
X98137261Y-74810952D01*
X98089642Y-74858571D01*
X97994404Y-74906190D01*
X97613452Y-74906190D01*
X98613452Y-75382380D02*
X98613452Y-74382380D01*
X98851547Y-74382380D01*
X98994404Y-74430000D01*
X99089642Y-74525238D01*
X99137261Y-74620476D01*
X99184880Y-74810952D01*
X99184880Y-74953809D01*
X99137261Y-75144285D01*
X99089642Y-75239523D01*
X98994404Y-75334761D01*
X98851547Y-75382380D01*
X98613452Y-75382380D01*
X99803928Y-74906190D02*
X99803928Y-75382380D01*
X99470595Y-74382380D02*
X99803928Y-74906190D01*
X100137261Y-74382380D01*
X98613452Y-59856666D02*
X99089642Y-59856666D01*
X98518214Y-60142380D02*
X98851547Y-59142380D01*
X99184880Y-60142380D01*
X99708690Y-59142380D02*
X99803928Y-59142380D01*
X99899166Y-59190000D01*
X99946785Y-59237619D01*
X99994404Y-59332857D01*
X100042023Y-59523333D01*
X100042023Y-59761428D01*
X99994404Y-59951904D01*
X99946785Y-60047142D01*
X99899166Y-60094761D01*
X99803928Y-60142380D01*
X99708690Y-60142380D01*
X99613452Y-60094761D01*
X99565833Y-60047142D01*
X99518214Y-59951904D01*
X99470595Y-59761428D01*
X99470595Y-59523333D01*
X99518214Y-59332857D01*
X99565833Y-59237619D01*
X99613452Y-59190000D01*
X99708690Y-59142380D01*
X96565833Y-90574761D02*
X96708690Y-90622380D01*
X96946785Y-90622380D01*
X97042023Y-90574761D01*
X97089642Y-90527142D01*
X97137261Y-90431904D01*
X97137261Y-90336666D01*
X97089642Y-90241428D01*
X97042023Y-90193809D01*
X96946785Y-90146190D01*
X96756309Y-90098571D01*
X96661071Y-90050952D01*
X96613452Y-90003333D01*
X96565833Y-89908095D01*
X96565833Y-89812857D01*
X96613452Y-89717619D01*
X96661071Y-89670000D01*
X96756309Y-89622380D01*
X96994404Y-89622380D01*
X97137261Y-89670000D01*
X97756309Y-90146190D02*
X97756309Y-90622380D01*
X97422976Y-89622380D02*
X97756309Y-90146190D01*
X98089642Y-89622380D01*
X98422976Y-90622380D02*
X98422976Y-89622380D01*
X98994404Y-90622380D01*
X98994404Y-89622380D01*
X100042023Y-90527142D02*
X99994404Y-90574761D01*
X99851547Y-90622380D01*
X99756309Y-90622380D01*
X99613452Y-90574761D01*
X99518214Y-90479523D01*
X99470595Y-90384285D01*
X99422976Y-90193809D01*
X99422976Y-90050952D01*
X99470595Y-89860476D01*
X99518214Y-89765238D01*
X99613452Y-89670000D01*
X99756309Y-89622380D01*
X99851547Y-89622380D01*
X99994404Y-89670000D01*
X100042023Y-89717619D01*
X72261071Y-29376666D02*
X72737261Y-29376666D01*
X72165833Y-29662380D02*
X72499166Y-28662380D01*
X72832500Y-29662380D01*
X73689642Y-29662380D02*
X73118214Y-29662380D01*
X73403928Y-29662380D02*
X73403928Y-28662380D01*
X73308690Y-28805238D01*
X73213452Y-28900476D01*
X73118214Y-28948095D01*
X74070595Y-28757619D02*
X74118214Y-28710000D01*
X74213452Y-28662380D01*
X74451547Y-28662380D01*
X74546785Y-28710000D01*
X74594404Y-28757619D01*
X74642023Y-28852857D01*
X74642023Y-28948095D01*
X74594404Y-29090952D01*
X74022976Y-29662380D01*
X74642023Y-29662380D01*
X71165833Y-90574761D02*
X71308690Y-90622380D01*
X71546785Y-90622380D01*
X71642023Y-90574761D01*
X71689642Y-90527142D01*
X71737261Y-90431904D01*
X71737261Y-90336666D01*
X71689642Y-90241428D01*
X71642023Y-90193809D01*
X71546785Y-90146190D01*
X71356309Y-90098571D01*
X71261071Y-90050952D01*
X71213452Y-90003333D01*
X71165833Y-89908095D01*
X71165833Y-89812857D01*
X71213452Y-89717619D01*
X71261071Y-89670000D01*
X71356309Y-89622380D01*
X71594404Y-89622380D01*
X71737261Y-89670000D01*
X72356309Y-90146190D02*
X72356309Y-90622380D01*
X72022976Y-89622380D02*
X72356309Y-90146190D01*
X72689642Y-89622380D01*
X73022976Y-90622380D02*
X73022976Y-89622380D01*
X73594404Y-90622380D01*
X73594404Y-89622380D01*
X74642023Y-90527142D02*
X74594404Y-90574761D01*
X74451547Y-90622380D01*
X74356309Y-90622380D01*
X74213452Y-90574761D01*
X74118214Y-90479523D01*
X74070595Y-90384285D01*
X74022976Y-90193809D01*
X74022976Y-90050952D01*
X74070595Y-89860476D01*
X74118214Y-89765238D01*
X74213452Y-89670000D01*
X74356309Y-89622380D01*
X74451547Y-89622380D01*
X74594404Y-89670000D01*
X74642023Y-89717619D01*
X72261071Y-34456666D02*
X72737261Y-34456666D01*
X72165833Y-34742380D02*
X72499166Y-33742380D01*
X72832500Y-34742380D01*
X73689642Y-34742380D02*
X73118214Y-34742380D01*
X73403928Y-34742380D02*
X73403928Y-33742380D01*
X73308690Y-33885238D01*
X73213452Y-33980476D01*
X73118214Y-34028095D01*
X74308690Y-33742380D02*
X74403928Y-33742380D01*
X74499166Y-33790000D01*
X74546785Y-33837619D01*
X74594404Y-33932857D01*
X74642023Y-34123333D01*
X74642023Y-34361428D01*
X74594404Y-34551904D01*
X74546785Y-34647142D01*
X74499166Y-34694761D01*
X74403928Y-34742380D01*
X74308690Y-34742380D01*
X74213452Y-34694761D01*
X74165833Y-34647142D01*
X74118214Y-34551904D01*
X74070595Y-34361428D01*
X74070595Y-34123333D01*
X74118214Y-33932857D01*
X74165833Y-33837619D01*
X74213452Y-33790000D01*
X74308690Y-33742380D01*
X72499166Y-80462380D02*
X72165833Y-79986190D01*
X71927738Y-80462380D02*
X71927738Y-79462380D01*
X72308690Y-79462380D01*
X72403928Y-79510000D01*
X72451547Y-79557619D01*
X72499166Y-79652857D01*
X72499166Y-79795714D01*
X72451547Y-79890952D01*
X72403928Y-79938571D01*
X72308690Y-79986190D01*
X71927738Y-79986190D01*
X72832500Y-79462380D02*
X73070595Y-80462380D01*
X73261071Y-79748095D01*
X73451547Y-80462380D01*
X73689642Y-79462380D01*
X74403928Y-79938571D02*
X74546785Y-79986190D01*
X74594404Y-80033809D01*
X74642023Y-80129047D01*
X74642023Y-80271904D01*
X74594404Y-80367142D01*
X74546785Y-80414761D01*
X74451547Y-80462380D01*
X74070595Y-80462380D01*
X74070595Y-79462380D01*
X74403928Y-79462380D01*
X74499166Y-79510000D01*
X74546785Y-79557619D01*
X74594404Y-79652857D01*
X74594404Y-79748095D01*
X74546785Y-79843333D01*
X74499166Y-79890952D01*
X74403928Y-79938571D01*
X74070595Y-79938571D01*
X71118214Y-120102380D02*
X71118214Y-120911904D01*
X71165833Y-121007142D01*
X71213452Y-121054761D01*
X71308690Y-121102380D01*
X71499166Y-121102380D01*
X71594404Y-121054761D01*
X71642023Y-121007142D01*
X71689642Y-120911904D01*
X71689642Y-120102380D01*
X72118214Y-121054761D02*
X72261071Y-121102380D01*
X72499166Y-121102380D01*
X72594404Y-121054761D01*
X72642023Y-121007142D01*
X72689642Y-120911904D01*
X72689642Y-120816666D01*
X72642023Y-120721428D01*
X72594404Y-120673809D01*
X72499166Y-120626190D01*
X72308690Y-120578571D01*
X72213452Y-120530952D01*
X72165833Y-120483333D01*
X72118214Y-120388095D01*
X72118214Y-120292857D01*
X72165833Y-120197619D01*
X72213452Y-120150000D01*
X72308690Y-120102380D01*
X72546785Y-120102380D01*
X72689642Y-120150000D01*
X73689642Y-121102380D02*
X73356309Y-120626190D01*
X73118214Y-121102380D02*
X73118214Y-120102380D01*
X73499166Y-120102380D01*
X73594404Y-120150000D01*
X73642023Y-120197619D01*
X73689642Y-120292857D01*
X73689642Y-120435714D01*
X73642023Y-120530952D01*
X73594404Y-120578571D01*
X73499166Y-120626190D01*
X73118214Y-120626190D01*
X74546785Y-120435714D02*
X74546785Y-121102380D01*
X74308690Y-120054761D02*
X74070595Y-120769047D01*
X74689642Y-120769047D01*
X72261071Y-26836666D02*
X72737261Y-26836666D01*
X72165833Y-27122380D02*
X72499166Y-26122380D01*
X72832500Y-27122380D01*
X73689642Y-27122380D02*
X73118214Y-27122380D01*
X73403928Y-27122380D02*
X73403928Y-26122380D01*
X73308690Y-26265238D01*
X73213452Y-26360476D01*
X73118214Y-26408095D01*
X74022976Y-26122380D02*
X74642023Y-26122380D01*
X74308690Y-26503333D01*
X74451547Y-26503333D01*
X74546785Y-26550952D01*
X74594404Y-26598571D01*
X74642023Y-26693809D01*
X74642023Y-26931904D01*
X74594404Y-27027142D01*
X74546785Y-27074761D01*
X74451547Y-27122380D01*
X74165833Y-27122380D01*
X74070595Y-27074761D01*
X74022976Y-27027142D01*
X73118214Y-108402380D02*
X73118214Y-107402380D01*
X73356309Y-107402380D01*
X73499166Y-107450000D01*
X73594404Y-107545238D01*
X73642023Y-107640476D01*
X73689642Y-107830952D01*
X73689642Y-107973809D01*
X73642023Y-108164285D01*
X73594404Y-108259523D01*
X73499166Y-108354761D01*
X73356309Y-108402380D01*
X73118214Y-108402380D01*
X74546785Y-107402380D02*
X74356309Y-107402380D01*
X74261071Y-107450000D01*
X74213452Y-107497619D01*
X74118214Y-107640476D01*
X74070595Y-107830952D01*
X74070595Y-108211904D01*
X74118214Y-108307142D01*
X74165833Y-108354761D01*
X74261071Y-108402380D01*
X74451547Y-108402380D01*
X74546785Y-108354761D01*
X74594404Y-108307142D01*
X74642023Y-108211904D01*
X74642023Y-107973809D01*
X74594404Y-107878571D01*
X74546785Y-107830952D01*
X74451547Y-107783333D01*
X74261071Y-107783333D01*
X74165833Y-107830952D01*
X74118214Y-107878571D01*
X74070595Y-107973809D01*
X73213452Y-44616666D02*
X73689642Y-44616666D01*
X73118214Y-44902380D02*
X73451547Y-43902380D01*
X73784880Y-44902380D01*
X74546785Y-43902380D02*
X74356309Y-43902380D01*
X74261071Y-43950000D01*
X74213452Y-43997619D01*
X74118214Y-44140476D01*
X74070595Y-44330952D01*
X74070595Y-44711904D01*
X74118214Y-44807142D01*
X74165833Y-44854761D01*
X74261071Y-44902380D01*
X74451547Y-44902380D01*
X74546785Y-44854761D01*
X74594404Y-44807142D01*
X74642023Y-44711904D01*
X74642023Y-44473809D01*
X74594404Y-44378571D01*
X74546785Y-44330952D01*
X74451547Y-44283333D01*
X74261071Y-44283333D01*
X74165833Y-44330952D01*
X74118214Y-44378571D01*
X74070595Y-44473809D01*
X73213452Y-54776666D02*
X73689642Y-54776666D01*
X73118214Y-55062380D02*
X73451547Y-54062380D01*
X73784880Y-55062380D01*
X74070595Y-54157619D02*
X74118214Y-54110000D01*
X74213452Y-54062380D01*
X74451547Y-54062380D01*
X74546785Y-54110000D01*
X74594404Y-54157619D01*
X74642023Y-54252857D01*
X74642023Y-54348095D01*
X74594404Y-54490952D01*
X74022976Y-55062380D01*
X74642023Y-55062380D01*
X73118214Y-98242380D02*
X73118214Y-97242380D01*
X73356309Y-97242380D01*
X73499166Y-97290000D01*
X73594404Y-97385238D01*
X73642023Y-97480476D01*
X73689642Y-97670952D01*
X73689642Y-97813809D01*
X73642023Y-98004285D01*
X73594404Y-98099523D01*
X73499166Y-98194761D01*
X73356309Y-98242380D01*
X73118214Y-98242380D01*
X74070595Y-97337619D02*
X74118214Y-97290000D01*
X74213452Y-97242380D01*
X74451547Y-97242380D01*
X74546785Y-97290000D01*
X74594404Y-97337619D01*
X74642023Y-97432857D01*
X74642023Y-97528095D01*
X74594404Y-97670952D01*
X74022976Y-98242380D01*
X74642023Y-98242380D01*
X73213452Y-59856666D02*
X73689642Y-59856666D01*
X73118214Y-60142380D02*
X73451547Y-59142380D01*
X73784880Y-60142380D01*
X74308690Y-59142380D02*
X74403928Y-59142380D01*
X74499166Y-59190000D01*
X74546785Y-59237619D01*
X74594404Y-59332857D01*
X74642023Y-59523333D01*
X74642023Y-59761428D01*
X74594404Y-59951904D01*
X74546785Y-60047142D01*
X74499166Y-60094761D01*
X74403928Y-60142380D01*
X74308690Y-60142380D01*
X74213452Y-60094761D01*
X74165833Y-60047142D01*
X74118214Y-59951904D01*
X74070595Y-59761428D01*
X74070595Y-59523333D01*
X74118214Y-59332857D01*
X74165833Y-59237619D01*
X74213452Y-59190000D01*
X74308690Y-59142380D01*
X72784880Y-75382380D02*
X72451547Y-74906190D01*
X72213452Y-75382380D02*
X72213452Y-74382380D01*
X72594404Y-74382380D01*
X72689642Y-74430000D01*
X72737261Y-74477619D01*
X72784880Y-74572857D01*
X72784880Y-74715714D01*
X72737261Y-74810952D01*
X72689642Y-74858571D01*
X72594404Y-74906190D01*
X72213452Y-74906190D01*
X73213452Y-75382380D02*
X73213452Y-74382380D01*
X73451547Y-74382380D01*
X73594404Y-74430000D01*
X73689642Y-74525238D01*
X73737261Y-74620476D01*
X73784880Y-74810952D01*
X73784880Y-74953809D01*
X73737261Y-75144285D01*
X73689642Y-75239523D01*
X73594404Y-75334761D01*
X73451547Y-75382380D01*
X73213452Y-75382380D01*
X74403928Y-74906190D02*
X74403928Y-75382380D01*
X74070595Y-74382380D02*
X74403928Y-74906190D01*
X74737261Y-74382380D01*
X71118214Y-112482380D02*
X71118214Y-113291904D01*
X71165833Y-113387142D01*
X71213452Y-113434761D01*
X71308690Y-113482380D01*
X71499166Y-113482380D01*
X71594404Y-113434761D01*
X71642023Y-113387142D01*
X71689642Y-113291904D01*
X71689642Y-112482380D01*
X72118214Y-113434761D02*
X72261071Y-113482380D01*
X72499166Y-113482380D01*
X72594404Y-113434761D01*
X72642023Y-113387142D01*
X72689642Y-113291904D01*
X72689642Y-113196666D01*
X72642023Y-113101428D01*
X72594404Y-113053809D01*
X72499166Y-113006190D01*
X72308690Y-112958571D01*
X72213452Y-112910952D01*
X72165833Y-112863333D01*
X72118214Y-112768095D01*
X72118214Y-112672857D01*
X72165833Y-112577619D01*
X72213452Y-112530000D01*
X72308690Y-112482380D01*
X72546785Y-112482380D01*
X72689642Y-112530000D01*
X73689642Y-113482380D02*
X73356309Y-113006190D01*
X73118214Y-113482380D02*
X73118214Y-112482380D01*
X73499166Y-112482380D01*
X73594404Y-112530000D01*
X73642023Y-112577619D01*
X73689642Y-112672857D01*
X73689642Y-112815714D01*
X73642023Y-112910952D01*
X73594404Y-112958571D01*
X73499166Y-113006190D01*
X73118214Y-113006190D01*
X74642023Y-113482380D02*
X74070595Y-113482380D01*
X74356309Y-113482380D02*
X74356309Y-112482380D01*
X74261071Y-112625238D01*
X74165833Y-112720476D01*
X74070595Y-112768095D01*
X73118214Y-95702380D02*
X73118214Y-94702380D01*
X73356309Y-94702380D01*
X73499166Y-94750000D01*
X73594404Y-94845238D01*
X73642023Y-94940476D01*
X73689642Y-95130952D01*
X73689642Y-95273809D01*
X73642023Y-95464285D01*
X73594404Y-95559523D01*
X73499166Y-95654761D01*
X73356309Y-95702380D01*
X73118214Y-95702380D01*
X74642023Y-95702380D02*
X74070595Y-95702380D01*
X74356309Y-95702380D02*
X74356309Y-94702380D01*
X74261071Y-94845238D01*
X74165833Y-94940476D01*
X74070595Y-94988095D01*
X73118214Y-100782380D02*
X73118214Y-99782380D01*
X73356309Y-99782380D01*
X73499166Y-99830000D01*
X73594404Y-99925238D01*
X73642023Y-100020476D01*
X73689642Y-100210952D01*
X73689642Y-100353809D01*
X73642023Y-100544285D01*
X73594404Y-100639523D01*
X73499166Y-100734761D01*
X73356309Y-100782380D01*
X73118214Y-100782380D01*
X74022976Y-99782380D02*
X74642023Y-99782380D01*
X74308690Y-100163333D01*
X74451547Y-100163333D01*
X74546785Y-100210952D01*
X74594404Y-100258571D01*
X74642023Y-100353809D01*
X74642023Y-100591904D01*
X74594404Y-100687142D01*
X74546785Y-100734761D01*
X74451547Y-100782380D01*
X74165833Y-100782380D01*
X74070595Y-100734761D01*
X74022976Y-100687142D01*
X72832500Y-82907142D02*
X72784880Y-82954761D01*
X72642023Y-83002380D01*
X72546785Y-83002380D01*
X72403928Y-82954761D01*
X72308690Y-82859523D01*
X72261071Y-82764285D01*
X72213452Y-82573809D01*
X72213452Y-82430952D01*
X72261071Y-82240476D01*
X72308690Y-82145238D01*
X72403928Y-82050000D01*
X72546785Y-82002380D01*
X72642023Y-82002380D01*
X72784880Y-82050000D01*
X72832500Y-82097619D01*
X73737261Y-83002380D02*
X73261071Y-83002380D01*
X73261071Y-82002380D01*
X74070595Y-83002380D02*
X74070595Y-82002380D01*
X74642023Y-83002380D02*
X74213452Y-82430952D01*
X74642023Y-82002380D02*
X74070595Y-82573809D01*
X73118214Y-103322380D02*
X73118214Y-102322380D01*
X73356309Y-102322380D01*
X73499166Y-102370000D01*
X73594404Y-102465238D01*
X73642023Y-102560476D01*
X73689642Y-102750952D01*
X73689642Y-102893809D01*
X73642023Y-103084285D01*
X73594404Y-103179523D01*
X73499166Y-103274761D01*
X73356309Y-103322380D01*
X73118214Y-103322380D01*
X74546785Y-102655714D02*
X74546785Y-103322380D01*
X74308690Y-102274761D02*
X74070595Y-102989047D01*
X74689642Y-102989047D01*
X72261071Y-24296666D02*
X72737261Y-24296666D01*
X72165833Y-24582380D02*
X72499166Y-23582380D01*
X72832500Y-24582380D01*
X73689642Y-24582380D02*
X73118214Y-24582380D01*
X73403928Y-24582380D02*
X73403928Y-23582380D01*
X73308690Y-23725238D01*
X73213452Y-23820476D01*
X73118214Y-23868095D01*
X74546785Y-23915714D02*
X74546785Y-24582380D01*
X74308690Y-23534761D02*
X74070595Y-24249047D01*
X74689642Y-24249047D01*
X72118214Y-72461428D02*
X72880119Y-72461428D01*
X72499166Y-72842380D02*
X72499166Y-72080476D01*
X73832500Y-71842380D02*
X73356309Y-71842380D01*
X73308690Y-72318571D01*
X73356309Y-72270952D01*
X73451547Y-72223333D01*
X73689642Y-72223333D01*
X73784880Y-72270952D01*
X73832500Y-72318571D01*
X73880119Y-72413809D01*
X73880119Y-72651904D01*
X73832500Y-72747142D01*
X73784880Y-72794761D01*
X73689642Y-72842380D01*
X73451547Y-72842380D01*
X73356309Y-72794761D01*
X73308690Y-72747142D01*
X74213452Y-72175714D02*
X74451547Y-72842380D01*
X74689642Y-72175714D01*
X73213452Y-52236666D02*
X73689642Y-52236666D01*
X73118214Y-52522380D02*
X73451547Y-51522380D01*
X73784880Y-52522380D01*
X74022976Y-51522380D02*
X74642023Y-51522380D01*
X74308690Y-51903333D01*
X74451547Y-51903333D01*
X74546785Y-51950952D01*
X74594404Y-51998571D01*
X74642023Y-52093809D01*
X74642023Y-52331904D01*
X74594404Y-52427142D01*
X74546785Y-52474761D01*
X74451547Y-52522380D01*
X74165833Y-52522380D01*
X74070595Y-52474761D01*
X74022976Y-52427142D01*
X73213452Y-39536666D02*
X73689642Y-39536666D01*
X73118214Y-39822380D02*
X73451547Y-38822380D01*
X73784880Y-39822380D01*
X74261071Y-39250952D02*
X74165833Y-39203333D01*
X74118214Y-39155714D01*
X74070595Y-39060476D01*
X74070595Y-39012857D01*
X74118214Y-38917619D01*
X74165833Y-38870000D01*
X74261071Y-38822380D01*
X74451547Y-38822380D01*
X74546785Y-38870000D01*
X74594404Y-38917619D01*
X74642023Y-39012857D01*
X74642023Y-39060476D01*
X74594404Y-39155714D01*
X74546785Y-39203333D01*
X74451547Y-39250952D01*
X74261071Y-39250952D01*
X74165833Y-39298571D01*
X74118214Y-39346190D01*
X74070595Y-39441428D01*
X74070595Y-39631904D01*
X74118214Y-39727142D01*
X74165833Y-39774761D01*
X74261071Y-39822380D01*
X74451547Y-39822380D01*
X74546785Y-39774761D01*
X74594404Y-39727142D01*
X74642023Y-39631904D01*
X74642023Y-39441428D01*
X74594404Y-39346190D01*
X74546785Y-39298571D01*
X74451547Y-39250952D01*
X73118214Y-93162380D02*
X73118214Y-92162380D01*
X73356309Y-92162380D01*
X73499166Y-92210000D01*
X73594404Y-92305238D01*
X73642023Y-92400476D01*
X73689642Y-92590952D01*
X73689642Y-92733809D01*
X73642023Y-92924285D01*
X73594404Y-93019523D01*
X73499166Y-93114761D01*
X73356309Y-93162380D01*
X73118214Y-93162380D01*
X74308690Y-92162380D02*
X74403928Y-92162380D01*
X74499166Y-92210000D01*
X74546785Y-92257619D01*
X74594404Y-92352857D01*
X74642023Y-92543333D01*
X74642023Y-92781428D01*
X74594404Y-92971904D01*
X74546785Y-93067142D01*
X74499166Y-93114761D01*
X74403928Y-93162380D01*
X74308690Y-93162380D01*
X74213452Y-93114761D01*
X74165833Y-93067142D01*
X74118214Y-92971904D01*
X74070595Y-92781428D01*
X74070595Y-92543333D01*
X74118214Y-92352857D01*
X74165833Y-92257619D01*
X74213452Y-92210000D01*
X74308690Y-92162380D01*
X71118214Y-115022380D02*
X71118214Y-115831904D01*
X71165833Y-115927142D01*
X71213452Y-115974761D01*
X71308690Y-116022380D01*
X71499166Y-116022380D01*
X71594404Y-115974761D01*
X71642023Y-115927142D01*
X71689642Y-115831904D01*
X71689642Y-115022380D01*
X72118214Y-115974761D02*
X72261071Y-116022380D01*
X72499166Y-116022380D01*
X72594404Y-115974761D01*
X72642023Y-115927142D01*
X72689642Y-115831904D01*
X72689642Y-115736666D01*
X72642023Y-115641428D01*
X72594404Y-115593809D01*
X72499166Y-115546190D01*
X72308690Y-115498571D01*
X72213452Y-115450952D01*
X72165833Y-115403333D01*
X72118214Y-115308095D01*
X72118214Y-115212857D01*
X72165833Y-115117619D01*
X72213452Y-115070000D01*
X72308690Y-115022380D01*
X72546785Y-115022380D01*
X72689642Y-115070000D01*
X73689642Y-116022380D02*
X73356309Y-115546190D01*
X73118214Y-116022380D02*
X73118214Y-115022380D01*
X73499166Y-115022380D01*
X73594404Y-115070000D01*
X73642023Y-115117619D01*
X73689642Y-115212857D01*
X73689642Y-115355714D01*
X73642023Y-115450952D01*
X73594404Y-115498571D01*
X73499166Y-115546190D01*
X73118214Y-115546190D01*
X74070595Y-115117619D02*
X74118214Y-115070000D01*
X74213452Y-115022380D01*
X74451547Y-115022380D01*
X74546785Y-115070000D01*
X74594404Y-115117619D01*
X74642023Y-115212857D01*
X74642023Y-115308095D01*
X74594404Y-115450952D01*
X74022976Y-116022380D01*
X74642023Y-116022380D01*
X72546785Y-69350000D02*
X72451547Y-69302380D01*
X72308690Y-69302380D01*
X72165833Y-69350000D01*
X72070595Y-69445238D01*
X72022976Y-69540476D01*
X71975357Y-69730952D01*
X71975357Y-69873809D01*
X72022976Y-70064285D01*
X72070595Y-70159523D01*
X72165833Y-70254761D01*
X72308690Y-70302380D01*
X72403928Y-70302380D01*
X72546785Y-70254761D01*
X72594404Y-70207142D01*
X72594404Y-69873809D01*
X72403928Y-69873809D01*
X73022976Y-70302380D02*
X73022976Y-69302380D01*
X73594404Y-70302380D01*
X73594404Y-69302380D01*
X74070595Y-70302380D02*
X74070595Y-69302380D01*
X74308690Y-69302380D01*
X74451547Y-69350000D01*
X74546785Y-69445238D01*
X74594404Y-69540476D01*
X74642023Y-69730952D01*
X74642023Y-69873809D01*
X74594404Y-70064285D01*
X74546785Y-70159523D01*
X74451547Y-70254761D01*
X74308690Y-70302380D01*
X74070595Y-70302380D01*
X71784880Y-77922380D02*
X71451547Y-77446190D01*
X71213452Y-77922380D02*
X71213452Y-76922380D01*
X71594404Y-76922380D01*
X71689642Y-76970000D01*
X71737261Y-77017619D01*
X71784880Y-77112857D01*
X71784880Y-77255714D01*
X71737261Y-77350952D01*
X71689642Y-77398571D01*
X71594404Y-77446190D01*
X71213452Y-77446190D01*
X72213452Y-77398571D02*
X72546785Y-77398571D01*
X72689642Y-77922380D02*
X72213452Y-77922380D01*
X72213452Y-76922380D01*
X72689642Y-76922380D01*
X73070595Y-77874761D02*
X73213452Y-77922380D01*
X73451547Y-77922380D01*
X73546785Y-77874761D01*
X73594404Y-77827142D01*
X73642023Y-77731904D01*
X73642023Y-77636666D01*
X73594404Y-77541428D01*
X73546785Y-77493809D01*
X73451547Y-77446190D01*
X73261071Y-77398571D01*
X73165833Y-77350952D01*
X73118214Y-77303333D01*
X73070595Y-77208095D01*
X73070595Y-77112857D01*
X73118214Y-77017619D01*
X73165833Y-76970000D01*
X73261071Y-76922380D01*
X73499166Y-76922380D01*
X73642023Y-76970000D01*
X74403928Y-77398571D02*
X74546785Y-77446190D01*
X74594404Y-77493809D01*
X74642023Y-77589047D01*
X74642023Y-77731904D01*
X74594404Y-77827142D01*
X74546785Y-77874761D01*
X74451547Y-77922380D01*
X74070595Y-77922380D01*
X74070595Y-76922380D01*
X74403928Y-76922380D01*
X74499166Y-76970000D01*
X74546785Y-77017619D01*
X74594404Y-77112857D01*
X74594404Y-77208095D01*
X74546785Y-77303333D01*
X74499166Y-77350952D01*
X74403928Y-77398571D01*
X74070595Y-77398571D01*
X71546785Y-65222380D02*
X71546785Y-64222380D01*
X72594404Y-65222380D02*
X72261071Y-64746190D01*
X72022976Y-65222380D02*
X72022976Y-64222380D01*
X72403928Y-64222380D01*
X72499166Y-64270000D01*
X72546785Y-64317619D01*
X72594404Y-64412857D01*
X72594404Y-64555714D01*
X72546785Y-64650952D01*
X72499166Y-64698571D01*
X72403928Y-64746190D01*
X72022976Y-64746190D01*
X73689642Y-65317619D02*
X73594404Y-65270000D01*
X73499166Y-65174761D01*
X73356309Y-65031904D01*
X73261071Y-64984285D01*
X73165833Y-64984285D01*
X73213452Y-65222380D02*
X73118214Y-65174761D01*
X73022976Y-65079523D01*
X72975357Y-64889047D01*
X72975357Y-64555714D01*
X73022976Y-64365238D01*
X73118214Y-64270000D01*
X73213452Y-64222380D01*
X73403928Y-64222380D01*
X73499166Y-64270000D01*
X73594404Y-64365238D01*
X73642023Y-64555714D01*
X73642023Y-64889047D01*
X73594404Y-65079523D01*
X73499166Y-65174761D01*
X73403928Y-65222380D01*
X73213452Y-65222380D01*
X74403928Y-64698571D02*
X74546785Y-64746190D01*
X74594404Y-64793809D01*
X74642023Y-64889047D01*
X74642023Y-65031904D01*
X74594404Y-65127142D01*
X74546785Y-65174761D01*
X74451547Y-65222380D01*
X74070595Y-65222380D01*
X74070595Y-64222380D01*
X74403928Y-64222380D01*
X74499166Y-64270000D01*
X74546785Y-64317619D01*
X74594404Y-64412857D01*
X74594404Y-64508095D01*
X74546785Y-64603333D01*
X74499166Y-64650952D01*
X74403928Y-64698571D01*
X74070595Y-64698571D01*
X73213452Y-57316666D02*
X73689642Y-57316666D01*
X73118214Y-57602380D02*
X73451547Y-56602380D01*
X73784880Y-57602380D01*
X74642023Y-57602380D02*
X74070595Y-57602380D01*
X74356309Y-57602380D02*
X74356309Y-56602380D01*
X74261071Y-56745238D01*
X74165833Y-56840476D01*
X74070595Y-56888095D01*
X72451547Y-88082380D02*
X72451547Y-87082380D01*
X72356309Y-87225238D02*
X72546785Y-87225238D01*
X72689642Y-87272857D01*
X72784880Y-87368095D01*
X72832500Y-87463333D01*
X72832500Y-87653809D01*
X72784880Y-87749047D01*
X72689642Y-87844285D01*
X72546785Y-87891904D01*
X72356309Y-87891904D01*
X72213452Y-87844285D01*
X72118214Y-87749047D01*
X72070595Y-87653809D01*
X72070595Y-87463333D01*
X72118214Y-87368095D01*
X72213452Y-87272857D01*
X72356309Y-87225238D01*
X73165833Y-87177619D02*
X73213452Y-87130000D01*
X73308690Y-87082380D01*
X73546785Y-87082380D01*
X73642023Y-87130000D01*
X73689642Y-87177619D01*
X73737261Y-87272857D01*
X73737261Y-87368095D01*
X73689642Y-87510952D01*
X73118214Y-88082380D01*
X73737261Y-88082380D01*
X74308690Y-88082380D02*
X74213452Y-88034761D01*
X74165833Y-87987142D01*
X74118214Y-87891904D01*
X74118214Y-87606190D01*
X74165833Y-87510952D01*
X74213452Y-87463333D01*
X74308690Y-87415714D01*
X74451547Y-87415714D01*
X74546785Y-87463333D01*
X74594404Y-87510952D01*
X74642023Y-87606190D01*
X74642023Y-87891904D01*
X74594404Y-87987142D01*
X74546785Y-88034761D01*
X74451547Y-88082380D01*
X74308690Y-88082380D01*
X73213452Y-49696666D02*
X73689642Y-49696666D01*
X73118214Y-49982380D02*
X73451547Y-48982380D01*
X73784880Y-49982380D01*
X74546785Y-49315714D02*
X74546785Y-49982380D01*
X74308690Y-48934761D02*
X74070595Y-49649047D01*
X74689642Y-49649047D01*
X73118214Y-105862380D02*
X73118214Y-104862380D01*
X73356309Y-104862380D01*
X73499166Y-104910000D01*
X73594404Y-105005238D01*
X73642023Y-105100476D01*
X73689642Y-105290952D01*
X73689642Y-105433809D01*
X73642023Y-105624285D01*
X73594404Y-105719523D01*
X73499166Y-105814761D01*
X73356309Y-105862380D01*
X73118214Y-105862380D01*
X74594404Y-104862380D02*
X74118214Y-104862380D01*
X74070595Y-105338571D01*
X74118214Y-105290952D01*
X74213452Y-105243333D01*
X74451547Y-105243333D01*
X74546785Y-105290952D01*
X74594404Y-105338571D01*
X74642023Y-105433809D01*
X74642023Y-105671904D01*
X74594404Y-105767142D01*
X74546785Y-105814761D01*
X74451547Y-105862380D01*
X74213452Y-105862380D01*
X74118214Y-105814761D01*
X74070595Y-105767142D01*
X72451547Y-85542380D02*
X72451547Y-84542380D01*
X72356309Y-84685238D02*
X72546785Y-84685238D01*
X72689642Y-84732857D01*
X72784880Y-84828095D01*
X72832500Y-84923333D01*
X72832500Y-85113809D01*
X72784880Y-85209047D01*
X72689642Y-85304285D01*
X72546785Y-85351904D01*
X72356309Y-85351904D01*
X72213452Y-85304285D01*
X72118214Y-85209047D01*
X72070595Y-85113809D01*
X72070595Y-84923333D01*
X72118214Y-84828095D01*
X72213452Y-84732857D01*
X72356309Y-84685238D01*
X73737261Y-85542380D02*
X73165833Y-85542380D01*
X73451547Y-85542380D02*
X73451547Y-84542380D01*
X73356309Y-84685238D01*
X73261071Y-84780476D01*
X73165833Y-84828095D01*
X74308690Y-85542380D02*
X74213452Y-85494761D01*
X74165833Y-85447142D01*
X74118214Y-85351904D01*
X74118214Y-85066190D01*
X74165833Y-84970952D01*
X74213452Y-84923333D01*
X74308690Y-84875714D01*
X74451547Y-84875714D01*
X74546785Y-84923333D01*
X74594404Y-84970952D01*
X74642023Y-85066190D01*
X74642023Y-85351904D01*
X74594404Y-85447142D01*
X74546785Y-85494761D01*
X74451547Y-85542380D01*
X74308690Y-85542380D01*
X72261071Y-21756666D02*
X72737261Y-21756666D01*
X72165833Y-22042380D02*
X72499166Y-21042380D01*
X72832500Y-22042380D01*
X73689642Y-22042380D02*
X73118214Y-22042380D01*
X73403928Y-22042380D02*
X73403928Y-21042380D01*
X73308690Y-21185238D01*
X73213452Y-21280476D01*
X73118214Y-21328095D01*
X74594404Y-21042380D02*
X74118214Y-21042380D01*
X74070595Y-21518571D01*
X74118214Y-21470952D01*
X74213452Y-21423333D01*
X74451547Y-21423333D01*
X74546785Y-21470952D01*
X74594404Y-21518571D01*
X74642023Y-21613809D01*
X74642023Y-21851904D01*
X74594404Y-21947142D01*
X74546785Y-21994761D01*
X74451547Y-22042380D01*
X74213452Y-22042380D01*
X74118214Y-21994761D01*
X74070595Y-21947142D01*
X71118214Y-117562380D02*
X71118214Y-118371904D01*
X71165833Y-118467142D01*
X71213452Y-118514761D01*
X71308690Y-118562380D01*
X71499166Y-118562380D01*
X71594404Y-118514761D01*
X71642023Y-118467142D01*
X71689642Y-118371904D01*
X71689642Y-117562380D01*
X72118214Y-118514761D02*
X72261071Y-118562380D01*
X72499166Y-118562380D01*
X72594404Y-118514761D01*
X72642023Y-118467142D01*
X72689642Y-118371904D01*
X72689642Y-118276666D01*
X72642023Y-118181428D01*
X72594404Y-118133809D01*
X72499166Y-118086190D01*
X72308690Y-118038571D01*
X72213452Y-117990952D01*
X72165833Y-117943333D01*
X72118214Y-117848095D01*
X72118214Y-117752857D01*
X72165833Y-117657619D01*
X72213452Y-117610000D01*
X72308690Y-117562380D01*
X72546785Y-117562380D01*
X72689642Y-117610000D01*
X73689642Y-118562380D02*
X73356309Y-118086190D01*
X73118214Y-118562380D02*
X73118214Y-117562380D01*
X73499166Y-117562380D01*
X73594404Y-117610000D01*
X73642023Y-117657619D01*
X73689642Y-117752857D01*
X73689642Y-117895714D01*
X73642023Y-117990952D01*
X73594404Y-118038571D01*
X73499166Y-118086190D01*
X73118214Y-118086190D01*
X74022976Y-117562380D02*
X74642023Y-117562380D01*
X74308690Y-117943333D01*
X74451547Y-117943333D01*
X74546785Y-117990952D01*
X74594404Y-118038571D01*
X74642023Y-118133809D01*
X74642023Y-118371904D01*
X74594404Y-118467142D01*
X74546785Y-118514761D01*
X74451547Y-118562380D01*
X74165833Y-118562380D01*
X74070595Y-118514761D01*
X74022976Y-118467142D01*
X73213452Y-42076666D02*
X73689642Y-42076666D01*
X73118214Y-42362380D02*
X73451547Y-41362380D01*
X73784880Y-42362380D01*
X74022976Y-41362380D02*
X74689642Y-41362380D01*
X74261071Y-42362380D01*
X73213452Y-47156666D02*
X73689642Y-47156666D01*
X73118214Y-47442380D02*
X73451547Y-46442380D01*
X73784880Y-47442380D01*
X74594404Y-46442380D02*
X74118214Y-46442380D01*
X74070595Y-46918571D01*
X74118214Y-46870952D01*
X74213452Y-46823333D01*
X74451547Y-46823333D01*
X74546785Y-46870952D01*
X74594404Y-46918571D01*
X74642023Y-47013809D01*
X74642023Y-47251904D01*
X74594404Y-47347142D01*
X74546785Y-47394761D01*
X74451547Y-47442380D01*
X74213452Y-47442380D01*
X74118214Y-47394761D01*
X74070595Y-47347142D01*
X73213452Y-36996666D02*
X73689642Y-36996666D01*
X73118214Y-37282380D02*
X73451547Y-36282380D01*
X73784880Y-37282380D01*
X74165833Y-37282380D02*
X74356309Y-37282380D01*
X74451547Y-37234761D01*
X74499166Y-37187142D01*
X74594404Y-37044285D01*
X74642023Y-36853809D01*
X74642023Y-36472857D01*
X74594404Y-36377619D01*
X74546785Y-36330000D01*
X74451547Y-36282380D01*
X74261071Y-36282380D01*
X74165833Y-36330000D01*
X74118214Y-36377619D01*
X74070595Y-36472857D01*
X74070595Y-36710952D01*
X74118214Y-36806190D01*
X74165833Y-36853809D01*
X74261071Y-36901428D01*
X74451547Y-36901428D01*
X74546785Y-36853809D01*
X74594404Y-36806190D01*
X74642023Y-36710952D01*
X72022976Y-67714761D02*
X72165833Y-67762380D01*
X72403928Y-67762380D01*
X72499166Y-67714761D01*
X72546785Y-67667142D01*
X72594404Y-67571904D01*
X72594404Y-67476666D01*
X72546785Y-67381428D01*
X72499166Y-67333809D01*
X72403928Y-67286190D01*
X72213452Y-67238571D01*
X72118214Y-67190952D01*
X72070595Y-67143333D01*
X72022976Y-67048095D01*
X72022976Y-66952857D01*
X72070595Y-66857619D01*
X72118214Y-66810000D01*
X72213452Y-66762380D01*
X72451547Y-66762380D01*
X72594404Y-66810000D01*
X73213452Y-66762380D02*
X73403928Y-66762380D01*
X73499166Y-66810000D01*
X73594404Y-66905238D01*
X73642023Y-67095714D01*
X73642023Y-67429047D01*
X73594404Y-67619523D01*
X73499166Y-67714761D01*
X73403928Y-67762380D01*
X73213452Y-67762380D01*
X73118214Y-67714761D01*
X73022976Y-67619523D01*
X72975357Y-67429047D01*
X72975357Y-67095714D01*
X73022976Y-66905238D01*
X73118214Y-66810000D01*
X73213452Y-66762380D01*
X74403928Y-67238571D02*
X74546785Y-67286190D01*
X74594404Y-67333809D01*
X74642023Y-67429047D01*
X74642023Y-67571904D01*
X74594404Y-67667142D01*
X74546785Y-67714761D01*
X74451547Y-67762380D01*
X74070595Y-67762380D01*
X74070595Y-66762380D01*
X74403928Y-66762380D01*
X74499166Y-66810000D01*
X74546785Y-66857619D01*
X74594404Y-66952857D01*
X74594404Y-67048095D01*
X74546785Y-67143333D01*
X74499166Y-67190952D01*
X74403928Y-67238571D01*
X74070595Y-67238571D01*
X72261071Y-31916666D02*
X72737261Y-31916666D01*
X72165833Y-32202380D02*
X72499166Y-31202380D01*
X72832500Y-32202380D01*
X73689642Y-32202380D02*
X73118214Y-32202380D01*
X73403928Y-32202380D02*
X73403928Y-31202380D01*
X73308690Y-31345238D01*
X73213452Y-31440476D01*
X73118214Y-31488095D01*
X74642023Y-32202380D02*
X74070595Y-32202380D01*
X74356309Y-32202380D02*
X74356309Y-31202380D01*
X74261071Y-31345238D01*
X74165833Y-31440476D01*
X74070595Y-31488095D01*
X73118214Y-110942380D02*
X73118214Y-109942380D01*
X73356309Y-109942380D01*
X73499166Y-109990000D01*
X73594404Y-110085238D01*
X73642023Y-110180476D01*
X73689642Y-110370952D01*
X73689642Y-110513809D01*
X73642023Y-110704285D01*
X73594404Y-110799523D01*
X73499166Y-110894761D01*
X73356309Y-110942380D01*
X73118214Y-110942380D01*
X74022976Y-109942380D02*
X74689642Y-109942380D01*
X74261071Y-110942380D01*
X71403928Y-62682380D02*
X71403928Y-61682380D01*
X71975357Y-62682380D01*
X71975357Y-61682380D01*
X72451547Y-62682380D02*
X72451547Y-61682380D01*
X72784880Y-62396666D01*
X73118214Y-61682380D01*
X73118214Y-62682380D01*
X73594404Y-62682380D02*
X73594404Y-61682380D01*
X74403928Y-62158571D02*
X74546785Y-62206190D01*
X74594404Y-62253809D01*
X74642023Y-62349047D01*
X74642023Y-62491904D01*
X74594404Y-62587142D01*
X74546785Y-62634761D01*
X74451547Y-62682380D01*
X74070595Y-62682380D01*
X74070595Y-61682380D01*
X74403928Y-61682380D01*
X74499166Y-61730000D01*
X74546785Y-61777619D01*
X74594404Y-61872857D01*
X74594404Y-61968095D01*
X74546785Y-62063333D01*
X74499166Y-62110952D01*
X74403928Y-62158571D01*
X74070595Y-62158571D01*
X47813452Y-36996666D02*
X48289642Y-36996666D01*
X47718214Y-37282380D02*
X48051547Y-36282380D01*
X48384880Y-37282380D01*
X48765833Y-37282380D02*
X48956309Y-37282380D01*
X49051547Y-37234761D01*
X49099166Y-37187142D01*
X49194404Y-37044285D01*
X49242023Y-36853809D01*
X49242023Y-36472857D01*
X49194404Y-36377619D01*
X49146785Y-36330000D01*
X49051547Y-36282380D01*
X48861071Y-36282380D01*
X48765833Y-36330000D01*
X48718214Y-36377619D01*
X48670595Y-36472857D01*
X48670595Y-36710952D01*
X48718214Y-36806190D01*
X48765833Y-36853809D01*
X48861071Y-36901428D01*
X49051547Y-36901428D01*
X49146785Y-36853809D01*
X49194404Y-36806190D01*
X49242023Y-36710952D01*
X47813452Y-49696666D02*
X48289642Y-49696666D01*
X47718214Y-49982380D02*
X48051547Y-48982380D01*
X48384880Y-49982380D01*
X49146785Y-49315714D02*
X49146785Y-49982380D01*
X48908690Y-48934761D02*
X48670595Y-49649047D01*
X49289642Y-49649047D01*
X46861071Y-29376666D02*
X47337261Y-29376666D01*
X46765833Y-29662380D02*
X47099166Y-28662380D01*
X47432500Y-29662380D01*
X48289642Y-29662380D02*
X47718214Y-29662380D01*
X48003928Y-29662380D02*
X48003928Y-28662380D01*
X47908690Y-28805238D01*
X47813452Y-28900476D01*
X47718214Y-28948095D01*
X48670595Y-28757619D02*
X48718214Y-28710000D01*
X48813452Y-28662380D01*
X49051547Y-28662380D01*
X49146785Y-28710000D01*
X49194404Y-28757619D01*
X49242023Y-28852857D01*
X49242023Y-28948095D01*
X49194404Y-29090952D01*
X48622976Y-29662380D01*
X49242023Y-29662380D01*
X47099166Y-80462380D02*
X46765833Y-79986190D01*
X46527738Y-80462380D02*
X46527738Y-79462380D01*
X46908690Y-79462380D01*
X47003928Y-79510000D01*
X47051547Y-79557619D01*
X47099166Y-79652857D01*
X47099166Y-79795714D01*
X47051547Y-79890952D01*
X47003928Y-79938571D01*
X46908690Y-79986190D01*
X46527738Y-79986190D01*
X47432500Y-79462380D02*
X47670595Y-80462380D01*
X47861071Y-79748095D01*
X48051547Y-80462380D01*
X48289642Y-79462380D01*
X49003928Y-79938571D02*
X49146785Y-79986190D01*
X49194404Y-80033809D01*
X49242023Y-80129047D01*
X49242023Y-80271904D01*
X49194404Y-80367142D01*
X49146785Y-80414761D01*
X49051547Y-80462380D01*
X48670595Y-80462380D01*
X48670595Y-79462380D01*
X49003928Y-79462380D01*
X49099166Y-79510000D01*
X49146785Y-79557619D01*
X49194404Y-79652857D01*
X49194404Y-79748095D01*
X49146785Y-79843333D01*
X49099166Y-79890952D01*
X49003928Y-79938571D01*
X48670595Y-79938571D01*
X47813452Y-54776666D02*
X48289642Y-54776666D01*
X47718214Y-55062380D02*
X48051547Y-54062380D01*
X48384880Y-55062380D01*
X48670595Y-54157619D02*
X48718214Y-54110000D01*
X48813452Y-54062380D01*
X49051547Y-54062380D01*
X49146785Y-54110000D01*
X49194404Y-54157619D01*
X49242023Y-54252857D01*
X49242023Y-54348095D01*
X49194404Y-54490952D01*
X48622976Y-55062380D01*
X49242023Y-55062380D01*
X47813452Y-44616666D02*
X48289642Y-44616666D01*
X47718214Y-44902380D02*
X48051547Y-43902380D01*
X48384880Y-44902380D01*
X49146785Y-43902380D02*
X48956309Y-43902380D01*
X48861071Y-43950000D01*
X48813452Y-43997619D01*
X48718214Y-44140476D01*
X48670595Y-44330952D01*
X48670595Y-44711904D01*
X48718214Y-44807142D01*
X48765833Y-44854761D01*
X48861071Y-44902380D01*
X49051547Y-44902380D01*
X49146785Y-44854761D01*
X49194404Y-44807142D01*
X49242023Y-44711904D01*
X49242023Y-44473809D01*
X49194404Y-44378571D01*
X49146785Y-44330952D01*
X49051547Y-44283333D01*
X48861071Y-44283333D01*
X48765833Y-44330952D01*
X48718214Y-44378571D01*
X48670595Y-44473809D01*
X46861071Y-26836666D02*
X47337261Y-26836666D01*
X46765833Y-27122380D02*
X47099166Y-26122380D01*
X47432500Y-27122380D01*
X48289642Y-27122380D02*
X47718214Y-27122380D01*
X48003928Y-27122380D02*
X48003928Y-26122380D01*
X47908690Y-26265238D01*
X47813452Y-26360476D01*
X47718214Y-26408095D01*
X48622976Y-26122380D02*
X49242023Y-26122380D01*
X48908690Y-26503333D01*
X49051547Y-26503333D01*
X49146785Y-26550952D01*
X49194404Y-26598571D01*
X49242023Y-26693809D01*
X49242023Y-26931904D01*
X49194404Y-27027142D01*
X49146785Y-27074761D01*
X49051547Y-27122380D01*
X48765833Y-27122380D01*
X48670595Y-27074761D01*
X48622976Y-27027142D01*
X46861071Y-24296666D02*
X47337261Y-24296666D01*
X46765833Y-24582380D02*
X47099166Y-23582380D01*
X47432500Y-24582380D01*
X48289642Y-24582380D02*
X47718214Y-24582380D01*
X48003928Y-24582380D02*
X48003928Y-23582380D01*
X47908690Y-23725238D01*
X47813452Y-23820476D01*
X47718214Y-23868095D01*
X49146785Y-23915714D02*
X49146785Y-24582380D01*
X48908690Y-23534761D02*
X48670595Y-24249047D01*
X49289642Y-24249047D01*
X45765833Y-90574761D02*
X45908690Y-90622380D01*
X46146785Y-90622380D01*
X46242023Y-90574761D01*
X46289642Y-90527142D01*
X46337261Y-90431904D01*
X46337261Y-90336666D01*
X46289642Y-90241428D01*
X46242023Y-90193809D01*
X46146785Y-90146190D01*
X45956309Y-90098571D01*
X45861071Y-90050952D01*
X45813452Y-90003333D01*
X45765833Y-89908095D01*
X45765833Y-89812857D01*
X45813452Y-89717619D01*
X45861071Y-89670000D01*
X45956309Y-89622380D01*
X46194404Y-89622380D01*
X46337261Y-89670000D01*
X46956309Y-90146190D02*
X46956309Y-90622380D01*
X46622976Y-89622380D02*
X46956309Y-90146190D01*
X47289642Y-89622380D01*
X47622976Y-90622380D02*
X47622976Y-89622380D01*
X48194404Y-90622380D01*
X48194404Y-89622380D01*
X49242023Y-90527142D02*
X49194404Y-90574761D01*
X49051547Y-90622380D01*
X48956309Y-90622380D01*
X48813452Y-90574761D01*
X48718214Y-90479523D01*
X48670595Y-90384285D01*
X48622976Y-90193809D01*
X48622976Y-90050952D01*
X48670595Y-89860476D01*
X48718214Y-89765238D01*
X48813452Y-89670000D01*
X48956309Y-89622380D01*
X49051547Y-89622380D01*
X49194404Y-89670000D01*
X49242023Y-89717619D01*
X47813452Y-42076666D02*
X48289642Y-42076666D01*
X47718214Y-42362380D02*
X48051547Y-41362380D01*
X48384880Y-42362380D01*
X48622976Y-41362380D02*
X49289642Y-41362380D01*
X48861071Y-42362380D01*
X47432500Y-82907142D02*
X47384880Y-82954761D01*
X47242023Y-83002380D01*
X47146785Y-83002380D01*
X47003928Y-82954761D01*
X46908690Y-82859523D01*
X46861071Y-82764285D01*
X46813452Y-82573809D01*
X46813452Y-82430952D01*
X46861071Y-82240476D01*
X46908690Y-82145238D01*
X47003928Y-82050000D01*
X47146785Y-82002380D01*
X47242023Y-82002380D01*
X47384880Y-82050000D01*
X47432500Y-82097619D01*
X48337261Y-83002380D02*
X47861071Y-83002380D01*
X47861071Y-82002380D01*
X48670595Y-83002380D02*
X48670595Y-82002380D01*
X49242023Y-83002380D02*
X48813452Y-82430952D01*
X49242023Y-82002380D02*
X48670595Y-82573809D01*
X46718214Y-72461428D02*
X47480119Y-72461428D01*
X47099166Y-72842380D02*
X47099166Y-72080476D01*
X48432500Y-71842380D02*
X47956309Y-71842380D01*
X47908690Y-72318571D01*
X47956309Y-72270952D01*
X48051547Y-72223333D01*
X48289642Y-72223333D01*
X48384880Y-72270952D01*
X48432500Y-72318571D01*
X48480119Y-72413809D01*
X48480119Y-72651904D01*
X48432500Y-72747142D01*
X48384880Y-72794761D01*
X48289642Y-72842380D01*
X48051547Y-72842380D01*
X47956309Y-72794761D01*
X47908690Y-72747142D01*
X48813452Y-72175714D02*
X49051547Y-72842380D01*
X49289642Y-72175714D01*
X47813452Y-57316666D02*
X48289642Y-57316666D01*
X47718214Y-57602380D02*
X48051547Y-56602380D01*
X48384880Y-57602380D01*
X49242023Y-57602380D02*
X48670595Y-57602380D01*
X48956309Y-57602380D02*
X48956309Y-56602380D01*
X48861071Y-56745238D01*
X48765833Y-56840476D01*
X48670595Y-56888095D01*
X47384880Y-75382380D02*
X47051547Y-74906190D01*
X46813452Y-75382380D02*
X46813452Y-74382380D01*
X47194404Y-74382380D01*
X47289642Y-74430000D01*
X47337261Y-74477619D01*
X47384880Y-74572857D01*
X47384880Y-74715714D01*
X47337261Y-74810952D01*
X47289642Y-74858571D01*
X47194404Y-74906190D01*
X46813452Y-74906190D01*
X47813452Y-75382380D02*
X47813452Y-74382380D01*
X48051547Y-74382380D01*
X48194404Y-74430000D01*
X48289642Y-74525238D01*
X48337261Y-74620476D01*
X48384880Y-74810952D01*
X48384880Y-74953809D01*
X48337261Y-75144285D01*
X48289642Y-75239523D01*
X48194404Y-75334761D01*
X48051547Y-75382380D01*
X47813452Y-75382380D01*
X49003928Y-74906190D02*
X49003928Y-75382380D01*
X48670595Y-74382380D02*
X49003928Y-74906190D01*
X49337261Y-74382380D01*
X47718214Y-108402380D02*
X47718214Y-107402380D01*
X47956309Y-107402380D01*
X48099166Y-107450000D01*
X48194404Y-107545238D01*
X48242023Y-107640476D01*
X48289642Y-107830952D01*
X48289642Y-107973809D01*
X48242023Y-108164285D01*
X48194404Y-108259523D01*
X48099166Y-108354761D01*
X47956309Y-108402380D01*
X47718214Y-108402380D01*
X49146785Y-107402380D02*
X48956309Y-107402380D01*
X48861071Y-107450000D01*
X48813452Y-107497619D01*
X48718214Y-107640476D01*
X48670595Y-107830952D01*
X48670595Y-108211904D01*
X48718214Y-108307142D01*
X48765833Y-108354761D01*
X48861071Y-108402380D01*
X49051547Y-108402380D01*
X49146785Y-108354761D01*
X49194404Y-108307142D01*
X49242023Y-108211904D01*
X49242023Y-107973809D01*
X49194404Y-107878571D01*
X49146785Y-107830952D01*
X49051547Y-107783333D01*
X48861071Y-107783333D01*
X48765833Y-107830952D01*
X48718214Y-107878571D01*
X48670595Y-107973809D01*
X47813452Y-47156666D02*
X48289642Y-47156666D01*
X47718214Y-47442380D02*
X48051547Y-46442380D01*
X48384880Y-47442380D01*
X49194404Y-46442380D02*
X48718214Y-46442380D01*
X48670595Y-46918571D01*
X48718214Y-46870952D01*
X48813452Y-46823333D01*
X49051547Y-46823333D01*
X49146785Y-46870952D01*
X49194404Y-46918571D01*
X49242023Y-47013809D01*
X49242023Y-47251904D01*
X49194404Y-47347142D01*
X49146785Y-47394761D01*
X49051547Y-47442380D01*
X48813452Y-47442380D01*
X48718214Y-47394761D01*
X48670595Y-47347142D01*
X47051547Y-85542380D02*
X47051547Y-84542380D01*
X46956309Y-84685238D02*
X47146785Y-84685238D01*
X47289642Y-84732857D01*
X47384880Y-84828095D01*
X47432500Y-84923333D01*
X47432500Y-85113809D01*
X47384880Y-85209047D01*
X47289642Y-85304285D01*
X47146785Y-85351904D01*
X46956309Y-85351904D01*
X46813452Y-85304285D01*
X46718214Y-85209047D01*
X46670595Y-85113809D01*
X46670595Y-84923333D01*
X46718214Y-84828095D01*
X46813452Y-84732857D01*
X46956309Y-84685238D01*
X48337261Y-85542380D02*
X47765833Y-85542380D01*
X48051547Y-85542380D02*
X48051547Y-84542380D01*
X47956309Y-84685238D01*
X47861071Y-84780476D01*
X47765833Y-84828095D01*
X48908690Y-85542380D02*
X48813452Y-85494761D01*
X48765833Y-85447142D01*
X48718214Y-85351904D01*
X48718214Y-85066190D01*
X48765833Y-84970952D01*
X48813452Y-84923333D01*
X48908690Y-84875714D01*
X49051547Y-84875714D01*
X49146785Y-84923333D01*
X49194404Y-84970952D01*
X49242023Y-85066190D01*
X49242023Y-85351904D01*
X49194404Y-85447142D01*
X49146785Y-85494761D01*
X49051547Y-85542380D01*
X48908690Y-85542380D01*
X46146785Y-65222380D02*
X46146785Y-64222380D01*
X47194404Y-65222380D02*
X46861071Y-64746190D01*
X46622976Y-65222380D02*
X46622976Y-64222380D01*
X47003928Y-64222380D01*
X47099166Y-64270000D01*
X47146785Y-64317619D01*
X47194404Y-64412857D01*
X47194404Y-64555714D01*
X47146785Y-64650952D01*
X47099166Y-64698571D01*
X47003928Y-64746190D01*
X46622976Y-64746190D01*
X48289642Y-65317619D02*
X48194404Y-65270000D01*
X48099166Y-65174761D01*
X47956309Y-65031904D01*
X47861071Y-64984285D01*
X47765833Y-64984285D01*
X47813452Y-65222380D02*
X47718214Y-65174761D01*
X47622976Y-65079523D01*
X47575357Y-64889047D01*
X47575357Y-64555714D01*
X47622976Y-64365238D01*
X47718214Y-64270000D01*
X47813452Y-64222380D01*
X48003928Y-64222380D01*
X48099166Y-64270000D01*
X48194404Y-64365238D01*
X48242023Y-64555714D01*
X48242023Y-64889047D01*
X48194404Y-65079523D01*
X48099166Y-65174761D01*
X48003928Y-65222380D01*
X47813452Y-65222380D01*
X49003928Y-64698571D02*
X49146785Y-64746190D01*
X49194404Y-64793809D01*
X49242023Y-64889047D01*
X49242023Y-65031904D01*
X49194404Y-65127142D01*
X49146785Y-65174761D01*
X49051547Y-65222380D01*
X48670595Y-65222380D01*
X48670595Y-64222380D01*
X49003928Y-64222380D01*
X49099166Y-64270000D01*
X49146785Y-64317619D01*
X49194404Y-64412857D01*
X49194404Y-64508095D01*
X49146785Y-64603333D01*
X49099166Y-64650952D01*
X49003928Y-64698571D01*
X48670595Y-64698571D01*
X47051547Y-88082380D02*
X47051547Y-87082380D01*
X46956309Y-87225238D02*
X47146785Y-87225238D01*
X47289642Y-87272857D01*
X47384880Y-87368095D01*
X47432500Y-87463333D01*
X47432500Y-87653809D01*
X47384880Y-87749047D01*
X47289642Y-87844285D01*
X47146785Y-87891904D01*
X46956309Y-87891904D01*
X46813452Y-87844285D01*
X46718214Y-87749047D01*
X46670595Y-87653809D01*
X46670595Y-87463333D01*
X46718214Y-87368095D01*
X46813452Y-87272857D01*
X46956309Y-87225238D01*
X47765833Y-87177619D02*
X47813452Y-87130000D01*
X47908690Y-87082380D01*
X48146785Y-87082380D01*
X48242023Y-87130000D01*
X48289642Y-87177619D01*
X48337261Y-87272857D01*
X48337261Y-87368095D01*
X48289642Y-87510952D01*
X47718214Y-88082380D01*
X48337261Y-88082380D01*
X48908690Y-88082380D02*
X48813452Y-88034761D01*
X48765833Y-87987142D01*
X48718214Y-87891904D01*
X48718214Y-87606190D01*
X48765833Y-87510952D01*
X48813452Y-87463333D01*
X48908690Y-87415714D01*
X49051547Y-87415714D01*
X49146785Y-87463333D01*
X49194404Y-87510952D01*
X49242023Y-87606190D01*
X49242023Y-87891904D01*
X49194404Y-87987142D01*
X49146785Y-88034761D01*
X49051547Y-88082380D01*
X48908690Y-88082380D01*
X47813452Y-52236666D02*
X48289642Y-52236666D01*
X47718214Y-52522380D02*
X48051547Y-51522380D01*
X48384880Y-52522380D01*
X48622976Y-51522380D02*
X49242023Y-51522380D01*
X48908690Y-51903333D01*
X49051547Y-51903333D01*
X49146785Y-51950952D01*
X49194404Y-51998571D01*
X49242023Y-52093809D01*
X49242023Y-52331904D01*
X49194404Y-52427142D01*
X49146785Y-52474761D01*
X49051547Y-52522380D01*
X48765833Y-52522380D01*
X48670595Y-52474761D01*
X48622976Y-52427142D01*
X47813452Y-59856666D02*
X48289642Y-59856666D01*
X47718214Y-60142380D02*
X48051547Y-59142380D01*
X48384880Y-60142380D01*
X48908690Y-59142380D02*
X49003928Y-59142380D01*
X49099166Y-59190000D01*
X49146785Y-59237619D01*
X49194404Y-59332857D01*
X49242023Y-59523333D01*
X49242023Y-59761428D01*
X49194404Y-59951904D01*
X49146785Y-60047142D01*
X49099166Y-60094761D01*
X49003928Y-60142380D01*
X48908690Y-60142380D01*
X48813452Y-60094761D01*
X48765833Y-60047142D01*
X48718214Y-59951904D01*
X48670595Y-59761428D01*
X48670595Y-59523333D01*
X48718214Y-59332857D01*
X48765833Y-59237619D01*
X48813452Y-59190000D01*
X48908690Y-59142380D01*
X47718214Y-93162380D02*
X47718214Y-92162380D01*
X47956309Y-92162380D01*
X48099166Y-92210000D01*
X48194404Y-92305238D01*
X48242023Y-92400476D01*
X48289642Y-92590952D01*
X48289642Y-92733809D01*
X48242023Y-92924285D01*
X48194404Y-93019523D01*
X48099166Y-93114761D01*
X47956309Y-93162380D01*
X47718214Y-93162380D01*
X48908690Y-92162380D02*
X49003928Y-92162380D01*
X49099166Y-92210000D01*
X49146785Y-92257619D01*
X49194404Y-92352857D01*
X49242023Y-92543333D01*
X49242023Y-92781428D01*
X49194404Y-92971904D01*
X49146785Y-93067142D01*
X49099166Y-93114761D01*
X49003928Y-93162380D01*
X48908690Y-93162380D01*
X48813452Y-93114761D01*
X48765833Y-93067142D01*
X48718214Y-92971904D01*
X48670595Y-92781428D01*
X48670595Y-92543333D01*
X48718214Y-92352857D01*
X48765833Y-92257619D01*
X48813452Y-92210000D01*
X48908690Y-92162380D01*
X47718214Y-103322380D02*
X47718214Y-102322380D01*
X47956309Y-102322380D01*
X48099166Y-102370000D01*
X48194404Y-102465238D01*
X48242023Y-102560476D01*
X48289642Y-102750952D01*
X48289642Y-102893809D01*
X48242023Y-103084285D01*
X48194404Y-103179523D01*
X48099166Y-103274761D01*
X47956309Y-103322380D01*
X47718214Y-103322380D01*
X49146785Y-102655714D02*
X49146785Y-103322380D01*
X48908690Y-102274761D02*
X48670595Y-102989047D01*
X49289642Y-102989047D01*
X47146785Y-69350000D02*
X47051547Y-69302380D01*
X46908690Y-69302380D01*
X46765833Y-69350000D01*
X46670595Y-69445238D01*
X46622976Y-69540476D01*
X46575357Y-69730952D01*
X46575357Y-69873809D01*
X46622976Y-70064285D01*
X46670595Y-70159523D01*
X46765833Y-70254761D01*
X46908690Y-70302380D01*
X47003928Y-70302380D01*
X47146785Y-70254761D01*
X47194404Y-70207142D01*
X47194404Y-69873809D01*
X47003928Y-69873809D01*
X47622976Y-70302380D02*
X47622976Y-69302380D01*
X48194404Y-70302380D01*
X48194404Y-69302380D01*
X48670595Y-70302380D02*
X48670595Y-69302380D01*
X48908690Y-69302380D01*
X49051547Y-69350000D01*
X49146785Y-69445238D01*
X49194404Y-69540476D01*
X49242023Y-69730952D01*
X49242023Y-69873809D01*
X49194404Y-70064285D01*
X49146785Y-70159523D01*
X49051547Y-70254761D01*
X48908690Y-70302380D01*
X48670595Y-70302380D01*
X46861071Y-21756666D02*
X47337261Y-21756666D01*
X46765833Y-22042380D02*
X47099166Y-21042380D01*
X47432500Y-22042380D01*
X48289642Y-22042380D02*
X47718214Y-22042380D01*
X48003928Y-22042380D02*
X48003928Y-21042380D01*
X47908690Y-21185238D01*
X47813452Y-21280476D01*
X47718214Y-21328095D01*
X49194404Y-21042380D02*
X48718214Y-21042380D01*
X48670595Y-21518571D01*
X48718214Y-21470952D01*
X48813452Y-21423333D01*
X49051547Y-21423333D01*
X49146785Y-21470952D01*
X49194404Y-21518571D01*
X49242023Y-21613809D01*
X49242023Y-21851904D01*
X49194404Y-21947142D01*
X49146785Y-21994761D01*
X49051547Y-22042380D01*
X48813452Y-22042380D01*
X48718214Y-21994761D01*
X48670595Y-21947142D01*
X46384880Y-77922380D02*
X46051547Y-77446190D01*
X45813452Y-77922380D02*
X45813452Y-76922380D01*
X46194404Y-76922380D01*
X46289642Y-76970000D01*
X46337261Y-77017619D01*
X46384880Y-77112857D01*
X46384880Y-77255714D01*
X46337261Y-77350952D01*
X46289642Y-77398571D01*
X46194404Y-77446190D01*
X45813452Y-77446190D01*
X46813452Y-77398571D02*
X47146785Y-77398571D01*
X47289642Y-77922380D02*
X46813452Y-77922380D01*
X46813452Y-76922380D01*
X47289642Y-76922380D01*
X47670595Y-77874761D02*
X47813452Y-77922380D01*
X48051547Y-77922380D01*
X48146785Y-77874761D01*
X48194404Y-77827142D01*
X48242023Y-77731904D01*
X48242023Y-77636666D01*
X48194404Y-77541428D01*
X48146785Y-77493809D01*
X48051547Y-77446190D01*
X47861071Y-77398571D01*
X47765833Y-77350952D01*
X47718214Y-77303333D01*
X47670595Y-77208095D01*
X47670595Y-77112857D01*
X47718214Y-77017619D01*
X47765833Y-76970000D01*
X47861071Y-76922380D01*
X48099166Y-76922380D01*
X48242023Y-76970000D01*
X49003928Y-77398571D02*
X49146785Y-77446190D01*
X49194404Y-77493809D01*
X49242023Y-77589047D01*
X49242023Y-77731904D01*
X49194404Y-77827142D01*
X49146785Y-77874761D01*
X49051547Y-77922380D01*
X48670595Y-77922380D01*
X48670595Y-76922380D01*
X49003928Y-76922380D01*
X49099166Y-76970000D01*
X49146785Y-77017619D01*
X49194404Y-77112857D01*
X49194404Y-77208095D01*
X49146785Y-77303333D01*
X49099166Y-77350952D01*
X49003928Y-77398571D01*
X48670595Y-77398571D01*
X47718214Y-110942380D02*
X47718214Y-109942380D01*
X47956309Y-109942380D01*
X48099166Y-109990000D01*
X48194404Y-110085238D01*
X48242023Y-110180476D01*
X48289642Y-110370952D01*
X48289642Y-110513809D01*
X48242023Y-110704285D01*
X48194404Y-110799523D01*
X48099166Y-110894761D01*
X47956309Y-110942380D01*
X47718214Y-110942380D01*
X48622976Y-109942380D02*
X49289642Y-109942380D01*
X48861071Y-110942380D01*
X47813452Y-39536666D02*
X48289642Y-39536666D01*
X47718214Y-39822380D02*
X48051547Y-38822380D01*
X48384880Y-39822380D01*
X48861071Y-39250952D02*
X48765833Y-39203333D01*
X48718214Y-39155714D01*
X48670595Y-39060476D01*
X48670595Y-39012857D01*
X48718214Y-38917619D01*
X48765833Y-38870000D01*
X48861071Y-38822380D01*
X49051547Y-38822380D01*
X49146785Y-38870000D01*
X49194404Y-38917619D01*
X49242023Y-39012857D01*
X49242023Y-39060476D01*
X49194404Y-39155714D01*
X49146785Y-39203333D01*
X49051547Y-39250952D01*
X48861071Y-39250952D01*
X48765833Y-39298571D01*
X48718214Y-39346190D01*
X48670595Y-39441428D01*
X48670595Y-39631904D01*
X48718214Y-39727142D01*
X48765833Y-39774761D01*
X48861071Y-39822380D01*
X49051547Y-39822380D01*
X49146785Y-39774761D01*
X49194404Y-39727142D01*
X49242023Y-39631904D01*
X49242023Y-39441428D01*
X49194404Y-39346190D01*
X49146785Y-39298571D01*
X49051547Y-39250952D01*
X47718214Y-98242380D02*
X47718214Y-97242380D01*
X47956309Y-97242380D01*
X48099166Y-97290000D01*
X48194404Y-97385238D01*
X48242023Y-97480476D01*
X48289642Y-97670952D01*
X48289642Y-97813809D01*
X48242023Y-98004285D01*
X48194404Y-98099523D01*
X48099166Y-98194761D01*
X47956309Y-98242380D01*
X47718214Y-98242380D01*
X48670595Y-97337619D02*
X48718214Y-97290000D01*
X48813452Y-97242380D01*
X49051547Y-97242380D01*
X49146785Y-97290000D01*
X49194404Y-97337619D01*
X49242023Y-97432857D01*
X49242023Y-97528095D01*
X49194404Y-97670952D01*
X48622976Y-98242380D01*
X49242023Y-98242380D01*
X46622976Y-67714761D02*
X46765833Y-67762380D01*
X47003928Y-67762380D01*
X47099166Y-67714761D01*
X47146785Y-67667142D01*
X47194404Y-67571904D01*
X47194404Y-67476666D01*
X47146785Y-67381428D01*
X47099166Y-67333809D01*
X47003928Y-67286190D01*
X46813452Y-67238571D01*
X46718214Y-67190952D01*
X46670595Y-67143333D01*
X46622976Y-67048095D01*
X46622976Y-66952857D01*
X46670595Y-66857619D01*
X46718214Y-66810000D01*
X46813452Y-66762380D01*
X47051547Y-66762380D01*
X47194404Y-66810000D01*
X47813452Y-66762380D02*
X48003928Y-66762380D01*
X48099166Y-66810000D01*
X48194404Y-66905238D01*
X48242023Y-67095714D01*
X48242023Y-67429047D01*
X48194404Y-67619523D01*
X48099166Y-67714761D01*
X48003928Y-67762380D01*
X47813452Y-67762380D01*
X47718214Y-67714761D01*
X47622976Y-67619523D01*
X47575357Y-67429047D01*
X47575357Y-67095714D01*
X47622976Y-66905238D01*
X47718214Y-66810000D01*
X47813452Y-66762380D01*
X49003928Y-67238571D02*
X49146785Y-67286190D01*
X49194404Y-67333809D01*
X49242023Y-67429047D01*
X49242023Y-67571904D01*
X49194404Y-67667142D01*
X49146785Y-67714761D01*
X49051547Y-67762380D01*
X48670595Y-67762380D01*
X48670595Y-66762380D01*
X49003928Y-66762380D01*
X49099166Y-66810000D01*
X49146785Y-66857619D01*
X49194404Y-66952857D01*
X49194404Y-67048095D01*
X49146785Y-67143333D01*
X49099166Y-67190952D01*
X49003928Y-67238571D01*
X48670595Y-67238571D01*
X45718214Y-117562380D02*
X45718214Y-118371904D01*
X45765833Y-118467142D01*
X45813452Y-118514761D01*
X45908690Y-118562380D01*
X46099166Y-118562380D01*
X46194404Y-118514761D01*
X46242023Y-118467142D01*
X46289642Y-118371904D01*
X46289642Y-117562380D01*
X46718214Y-118514761D02*
X46861071Y-118562380D01*
X47099166Y-118562380D01*
X47194404Y-118514761D01*
X47242023Y-118467142D01*
X47289642Y-118371904D01*
X47289642Y-118276666D01*
X47242023Y-118181428D01*
X47194404Y-118133809D01*
X47099166Y-118086190D01*
X46908690Y-118038571D01*
X46813452Y-117990952D01*
X46765833Y-117943333D01*
X46718214Y-117848095D01*
X46718214Y-117752857D01*
X46765833Y-117657619D01*
X46813452Y-117610000D01*
X46908690Y-117562380D01*
X47146785Y-117562380D01*
X47289642Y-117610000D01*
X48289642Y-118562380D02*
X47956309Y-118086190D01*
X47718214Y-118562380D02*
X47718214Y-117562380D01*
X48099166Y-117562380D01*
X48194404Y-117610000D01*
X48242023Y-117657619D01*
X48289642Y-117752857D01*
X48289642Y-117895714D01*
X48242023Y-117990952D01*
X48194404Y-118038571D01*
X48099166Y-118086190D01*
X47718214Y-118086190D01*
X48622976Y-117562380D02*
X49242023Y-117562380D01*
X48908690Y-117943333D01*
X49051547Y-117943333D01*
X49146785Y-117990952D01*
X49194404Y-118038571D01*
X49242023Y-118133809D01*
X49242023Y-118371904D01*
X49194404Y-118467142D01*
X49146785Y-118514761D01*
X49051547Y-118562380D01*
X48765833Y-118562380D01*
X48670595Y-118514761D01*
X48622976Y-118467142D01*
X45718214Y-115022380D02*
X45718214Y-115831904D01*
X45765833Y-115927142D01*
X45813452Y-115974761D01*
X45908690Y-116022380D01*
X46099166Y-116022380D01*
X46194404Y-115974761D01*
X46242023Y-115927142D01*
X46289642Y-115831904D01*
X46289642Y-115022380D01*
X46718214Y-115974761D02*
X46861071Y-116022380D01*
X47099166Y-116022380D01*
X47194404Y-115974761D01*
X47242023Y-115927142D01*
X47289642Y-115831904D01*
X47289642Y-115736666D01*
X47242023Y-115641428D01*
X47194404Y-115593809D01*
X47099166Y-115546190D01*
X46908690Y-115498571D01*
X46813452Y-115450952D01*
X46765833Y-115403333D01*
X46718214Y-115308095D01*
X46718214Y-115212857D01*
X46765833Y-115117619D01*
X46813452Y-115070000D01*
X46908690Y-115022380D01*
X47146785Y-115022380D01*
X47289642Y-115070000D01*
X48289642Y-116022380D02*
X47956309Y-115546190D01*
X47718214Y-116022380D02*
X47718214Y-115022380D01*
X48099166Y-115022380D01*
X48194404Y-115070000D01*
X48242023Y-115117619D01*
X48289642Y-115212857D01*
X48289642Y-115355714D01*
X48242023Y-115450952D01*
X48194404Y-115498571D01*
X48099166Y-115546190D01*
X47718214Y-115546190D01*
X48670595Y-115117619D02*
X48718214Y-115070000D01*
X48813452Y-115022380D01*
X49051547Y-115022380D01*
X49146785Y-115070000D01*
X49194404Y-115117619D01*
X49242023Y-115212857D01*
X49242023Y-115308095D01*
X49194404Y-115450952D01*
X48622976Y-116022380D01*
X49242023Y-116022380D01*
X47718214Y-100782380D02*
X47718214Y-99782380D01*
X47956309Y-99782380D01*
X48099166Y-99830000D01*
X48194404Y-99925238D01*
X48242023Y-100020476D01*
X48289642Y-100210952D01*
X48289642Y-100353809D01*
X48242023Y-100544285D01*
X48194404Y-100639523D01*
X48099166Y-100734761D01*
X47956309Y-100782380D01*
X47718214Y-100782380D01*
X48622976Y-99782380D02*
X49242023Y-99782380D01*
X48908690Y-100163333D01*
X49051547Y-100163333D01*
X49146785Y-100210952D01*
X49194404Y-100258571D01*
X49242023Y-100353809D01*
X49242023Y-100591904D01*
X49194404Y-100687142D01*
X49146785Y-100734761D01*
X49051547Y-100782380D01*
X48765833Y-100782380D01*
X48670595Y-100734761D01*
X48622976Y-100687142D01*
X47718214Y-105862380D02*
X47718214Y-104862380D01*
X47956309Y-104862380D01*
X48099166Y-104910000D01*
X48194404Y-105005238D01*
X48242023Y-105100476D01*
X48289642Y-105290952D01*
X48289642Y-105433809D01*
X48242023Y-105624285D01*
X48194404Y-105719523D01*
X48099166Y-105814761D01*
X47956309Y-105862380D01*
X47718214Y-105862380D01*
X49194404Y-104862380D02*
X48718214Y-104862380D01*
X48670595Y-105338571D01*
X48718214Y-105290952D01*
X48813452Y-105243333D01*
X49051547Y-105243333D01*
X49146785Y-105290952D01*
X49194404Y-105338571D01*
X49242023Y-105433809D01*
X49242023Y-105671904D01*
X49194404Y-105767142D01*
X49146785Y-105814761D01*
X49051547Y-105862380D01*
X48813452Y-105862380D01*
X48718214Y-105814761D01*
X48670595Y-105767142D01*
X46861071Y-34456666D02*
X47337261Y-34456666D01*
X46765833Y-34742380D02*
X47099166Y-33742380D01*
X47432500Y-34742380D01*
X48289642Y-34742380D02*
X47718214Y-34742380D01*
X48003928Y-34742380D02*
X48003928Y-33742380D01*
X47908690Y-33885238D01*
X47813452Y-33980476D01*
X47718214Y-34028095D01*
X48908690Y-33742380D02*
X49003928Y-33742380D01*
X49099166Y-33790000D01*
X49146785Y-33837619D01*
X49194404Y-33932857D01*
X49242023Y-34123333D01*
X49242023Y-34361428D01*
X49194404Y-34551904D01*
X49146785Y-34647142D01*
X49099166Y-34694761D01*
X49003928Y-34742380D01*
X48908690Y-34742380D01*
X48813452Y-34694761D01*
X48765833Y-34647142D01*
X48718214Y-34551904D01*
X48670595Y-34361428D01*
X48670595Y-34123333D01*
X48718214Y-33932857D01*
X48765833Y-33837619D01*
X48813452Y-33790000D01*
X48908690Y-33742380D01*
X45718214Y-120102380D02*
X45718214Y-120911904D01*
X45765833Y-121007142D01*
X45813452Y-121054761D01*
X45908690Y-121102380D01*
X46099166Y-121102380D01*
X46194404Y-121054761D01*
X46242023Y-121007142D01*
X46289642Y-120911904D01*
X46289642Y-120102380D01*
X46718214Y-121054761D02*
X46861071Y-121102380D01*
X47099166Y-121102380D01*
X47194404Y-121054761D01*
X47242023Y-121007142D01*
X47289642Y-120911904D01*
X47289642Y-120816666D01*
X47242023Y-120721428D01*
X47194404Y-120673809D01*
X47099166Y-120626190D01*
X46908690Y-120578571D01*
X46813452Y-120530952D01*
X46765833Y-120483333D01*
X46718214Y-120388095D01*
X46718214Y-120292857D01*
X46765833Y-120197619D01*
X46813452Y-120150000D01*
X46908690Y-120102380D01*
X47146785Y-120102380D01*
X47289642Y-120150000D01*
X48289642Y-121102380D02*
X47956309Y-120626190D01*
X47718214Y-121102380D02*
X47718214Y-120102380D01*
X48099166Y-120102380D01*
X48194404Y-120150000D01*
X48242023Y-120197619D01*
X48289642Y-120292857D01*
X48289642Y-120435714D01*
X48242023Y-120530952D01*
X48194404Y-120578571D01*
X48099166Y-120626190D01*
X47718214Y-120626190D01*
X49146785Y-120435714D02*
X49146785Y-121102380D01*
X48908690Y-120054761D02*
X48670595Y-120769047D01*
X49289642Y-120769047D01*
X46003928Y-62682380D02*
X46003928Y-61682380D01*
X46575357Y-62682380D01*
X46575357Y-61682380D01*
X47051547Y-62682380D02*
X47051547Y-61682380D01*
X47384880Y-62396666D01*
X47718214Y-61682380D01*
X47718214Y-62682380D01*
X48194404Y-62682380D02*
X48194404Y-61682380D01*
X49003928Y-62158571D02*
X49146785Y-62206190D01*
X49194404Y-62253809D01*
X49242023Y-62349047D01*
X49242023Y-62491904D01*
X49194404Y-62587142D01*
X49146785Y-62634761D01*
X49051547Y-62682380D01*
X48670595Y-62682380D01*
X48670595Y-61682380D01*
X49003928Y-61682380D01*
X49099166Y-61730000D01*
X49146785Y-61777619D01*
X49194404Y-61872857D01*
X49194404Y-61968095D01*
X49146785Y-62063333D01*
X49099166Y-62110952D01*
X49003928Y-62158571D01*
X48670595Y-62158571D01*
X45718214Y-112482380D02*
X45718214Y-113291904D01*
X45765833Y-113387142D01*
X45813452Y-113434761D01*
X45908690Y-113482380D01*
X46099166Y-113482380D01*
X46194404Y-113434761D01*
X46242023Y-113387142D01*
X46289642Y-113291904D01*
X46289642Y-112482380D01*
X46718214Y-113434761D02*
X46861071Y-113482380D01*
X47099166Y-113482380D01*
X47194404Y-113434761D01*
X47242023Y-113387142D01*
X47289642Y-113291904D01*
X47289642Y-113196666D01*
X47242023Y-113101428D01*
X47194404Y-113053809D01*
X47099166Y-113006190D01*
X46908690Y-112958571D01*
X46813452Y-112910952D01*
X46765833Y-112863333D01*
X46718214Y-112768095D01*
X46718214Y-112672857D01*
X46765833Y-112577619D01*
X46813452Y-112530000D01*
X46908690Y-112482380D01*
X47146785Y-112482380D01*
X47289642Y-112530000D01*
X48289642Y-113482380D02*
X47956309Y-113006190D01*
X47718214Y-113482380D02*
X47718214Y-112482380D01*
X48099166Y-112482380D01*
X48194404Y-112530000D01*
X48242023Y-112577619D01*
X48289642Y-112672857D01*
X48289642Y-112815714D01*
X48242023Y-112910952D01*
X48194404Y-112958571D01*
X48099166Y-113006190D01*
X47718214Y-113006190D01*
X49242023Y-113482380D02*
X48670595Y-113482380D01*
X48956309Y-113482380D02*
X48956309Y-112482380D01*
X48861071Y-112625238D01*
X48765833Y-112720476D01*
X48670595Y-112768095D01*
X46861071Y-31916666D02*
X47337261Y-31916666D01*
X46765833Y-32202380D02*
X47099166Y-31202380D01*
X47432500Y-32202380D01*
X48289642Y-32202380D02*
X47718214Y-32202380D01*
X48003928Y-32202380D02*
X48003928Y-31202380D01*
X47908690Y-31345238D01*
X47813452Y-31440476D01*
X47718214Y-31488095D01*
X49242023Y-32202380D02*
X48670595Y-32202380D01*
X48956309Y-32202380D02*
X48956309Y-31202380D01*
X48861071Y-31345238D01*
X48765833Y-31440476D01*
X48670595Y-31488095D01*
X47718214Y-95702380D02*
X47718214Y-94702380D01*
X47956309Y-94702380D01*
X48099166Y-94750000D01*
X48194404Y-94845238D01*
X48242023Y-94940476D01*
X48289642Y-95130952D01*
X48289642Y-95273809D01*
X48242023Y-95464285D01*
X48194404Y-95559523D01*
X48099166Y-95654761D01*
X47956309Y-95702380D01*
X47718214Y-95702380D01*
X49242023Y-95702380D02*
X48670595Y-95702380D01*
X48956309Y-95702380D02*
X48956309Y-94702380D01*
X48861071Y-94845238D01*
X48765833Y-94940476D01*
X48670595Y-94988095D01*
X21651547Y-85542380D02*
X21651547Y-84542380D01*
X21556309Y-84685238D02*
X21746785Y-84685238D01*
X21889642Y-84732857D01*
X21984880Y-84828095D01*
X22032500Y-84923333D01*
X22032500Y-85113809D01*
X21984880Y-85209047D01*
X21889642Y-85304285D01*
X21746785Y-85351904D01*
X21556309Y-85351904D01*
X21413452Y-85304285D01*
X21318214Y-85209047D01*
X21270595Y-85113809D01*
X21270595Y-84923333D01*
X21318214Y-84828095D01*
X21413452Y-84732857D01*
X21556309Y-84685238D01*
X22937261Y-85542380D02*
X22365833Y-85542380D01*
X22651547Y-85542380D02*
X22651547Y-84542380D01*
X22556309Y-84685238D01*
X22461071Y-84780476D01*
X22365833Y-84828095D01*
X23508690Y-85542380D02*
X23413452Y-85494761D01*
X23365833Y-85447142D01*
X23318214Y-85351904D01*
X23318214Y-85066190D01*
X23365833Y-84970952D01*
X23413452Y-84923333D01*
X23508690Y-84875714D01*
X23651547Y-84875714D01*
X23746785Y-84923333D01*
X23794404Y-84970952D01*
X23842023Y-85066190D01*
X23842023Y-85351904D01*
X23794404Y-85447142D01*
X23746785Y-85494761D01*
X23651547Y-85542380D01*
X23508690Y-85542380D01*
X22318214Y-95702380D02*
X22318214Y-94702380D01*
X22556309Y-94702380D01*
X22699166Y-94750000D01*
X22794404Y-94845238D01*
X22842023Y-94940476D01*
X22889642Y-95130952D01*
X22889642Y-95273809D01*
X22842023Y-95464285D01*
X22794404Y-95559523D01*
X22699166Y-95654761D01*
X22556309Y-95702380D01*
X22318214Y-95702380D01*
X23842023Y-95702380D02*
X23270595Y-95702380D01*
X23556309Y-95702380D02*
X23556309Y-94702380D01*
X23461071Y-94845238D01*
X23365833Y-94940476D01*
X23270595Y-94988095D01*
X20318214Y-117562380D02*
X20318214Y-118371904D01*
X20365833Y-118467142D01*
X20413452Y-118514761D01*
X20508690Y-118562380D01*
X20699166Y-118562380D01*
X20794404Y-118514761D01*
X20842023Y-118467142D01*
X20889642Y-118371904D01*
X20889642Y-117562380D01*
X21318214Y-118514761D02*
X21461071Y-118562380D01*
X21699166Y-118562380D01*
X21794404Y-118514761D01*
X21842023Y-118467142D01*
X21889642Y-118371904D01*
X21889642Y-118276666D01*
X21842023Y-118181428D01*
X21794404Y-118133809D01*
X21699166Y-118086190D01*
X21508690Y-118038571D01*
X21413452Y-117990952D01*
X21365833Y-117943333D01*
X21318214Y-117848095D01*
X21318214Y-117752857D01*
X21365833Y-117657619D01*
X21413452Y-117610000D01*
X21508690Y-117562380D01*
X21746785Y-117562380D01*
X21889642Y-117610000D01*
X22889642Y-118562380D02*
X22556309Y-118086190D01*
X22318214Y-118562380D02*
X22318214Y-117562380D01*
X22699166Y-117562380D01*
X22794404Y-117610000D01*
X22842023Y-117657619D01*
X22889642Y-117752857D01*
X22889642Y-117895714D01*
X22842023Y-117990952D01*
X22794404Y-118038571D01*
X22699166Y-118086190D01*
X22318214Y-118086190D01*
X23222976Y-117562380D02*
X23842023Y-117562380D01*
X23508690Y-117943333D01*
X23651547Y-117943333D01*
X23746785Y-117990952D01*
X23794404Y-118038571D01*
X23842023Y-118133809D01*
X23842023Y-118371904D01*
X23794404Y-118467142D01*
X23746785Y-118514761D01*
X23651547Y-118562380D01*
X23365833Y-118562380D01*
X23270595Y-118514761D01*
X23222976Y-118467142D01*
X22318214Y-103322380D02*
X22318214Y-102322380D01*
X22556309Y-102322380D01*
X22699166Y-102370000D01*
X22794404Y-102465238D01*
X22842023Y-102560476D01*
X22889642Y-102750952D01*
X22889642Y-102893809D01*
X22842023Y-103084285D01*
X22794404Y-103179523D01*
X22699166Y-103274761D01*
X22556309Y-103322380D01*
X22318214Y-103322380D01*
X23746785Y-102655714D02*
X23746785Y-103322380D01*
X23508690Y-102274761D02*
X23270595Y-102989047D01*
X23889642Y-102989047D01*
X22318214Y-98242380D02*
X22318214Y-97242380D01*
X22556309Y-97242380D01*
X22699166Y-97290000D01*
X22794404Y-97385238D01*
X22842023Y-97480476D01*
X22889642Y-97670952D01*
X22889642Y-97813809D01*
X22842023Y-98004285D01*
X22794404Y-98099523D01*
X22699166Y-98194761D01*
X22556309Y-98242380D01*
X22318214Y-98242380D01*
X23270595Y-97337619D02*
X23318214Y-97290000D01*
X23413452Y-97242380D01*
X23651547Y-97242380D01*
X23746785Y-97290000D01*
X23794404Y-97337619D01*
X23842023Y-97432857D01*
X23842023Y-97528095D01*
X23794404Y-97670952D01*
X23222976Y-98242380D01*
X23842023Y-98242380D01*
X20318214Y-120102380D02*
X20318214Y-120911904D01*
X20365833Y-121007142D01*
X20413452Y-121054761D01*
X20508690Y-121102380D01*
X20699166Y-121102380D01*
X20794404Y-121054761D01*
X20842023Y-121007142D01*
X20889642Y-120911904D01*
X20889642Y-120102380D01*
X21318214Y-121054761D02*
X21461071Y-121102380D01*
X21699166Y-121102380D01*
X21794404Y-121054761D01*
X21842023Y-121007142D01*
X21889642Y-120911904D01*
X21889642Y-120816666D01*
X21842023Y-120721428D01*
X21794404Y-120673809D01*
X21699166Y-120626190D01*
X21508690Y-120578571D01*
X21413452Y-120530952D01*
X21365833Y-120483333D01*
X21318214Y-120388095D01*
X21318214Y-120292857D01*
X21365833Y-120197619D01*
X21413452Y-120150000D01*
X21508690Y-120102380D01*
X21746785Y-120102380D01*
X21889642Y-120150000D01*
X22889642Y-121102380D02*
X22556309Y-120626190D01*
X22318214Y-121102380D02*
X22318214Y-120102380D01*
X22699166Y-120102380D01*
X22794404Y-120150000D01*
X22842023Y-120197619D01*
X22889642Y-120292857D01*
X22889642Y-120435714D01*
X22842023Y-120530952D01*
X22794404Y-120578571D01*
X22699166Y-120626190D01*
X22318214Y-120626190D01*
X23746785Y-120435714D02*
X23746785Y-121102380D01*
X23508690Y-120054761D02*
X23270595Y-120769047D01*
X23889642Y-120769047D01*
X20318214Y-112482380D02*
X20318214Y-113291904D01*
X20365833Y-113387142D01*
X20413452Y-113434761D01*
X20508690Y-113482380D01*
X20699166Y-113482380D01*
X20794404Y-113434761D01*
X20842023Y-113387142D01*
X20889642Y-113291904D01*
X20889642Y-112482380D01*
X21318214Y-113434761D02*
X21461071Y-113482380D01*
X21699166Y-113482380D01*
X21794404Y-113434761D01*
X21842023Y-113387142D01*
X21889642Y-113291904D01*
X21889642Y-113196666D01*
X21842023Y-113101428D01*
X21794404Y-113053809D01*
X21699166Y-113006190D01*
X21508690Y-112958571D01*
X21413452Y-112910952D01*
X21365833Y-112863333D01*
X21318214Y-112768095D01*
X21318214Y-112672857D01*
X21365833Y-112577619D01*
X21413452Y-112530000D01*
X21508690Y-112482380D01*
X21746785Y-112482380D01*
X21889642Y-112530000D01*
X22889642Y-113482380D02*
X22556309Y-113006190D01*
X22318214Y-113482380D02*
X22318214Y-112482380D01*
X22699166Y-112482380D01*
X22794404Y-112530000D01*
X22842023Y-112577619D01*
X22889642Y-112672857D01*
X22889642Y-112815714D01*
X22842023Y-112910952D01*
X22794404Y-112958571D01*
X22699166Y-113006190D01*
X22318214Y-113006190D01*
X23842023Y-113482380D02*
X23270595Y-113482380D01*
X23556309Y-113482380D02*
X23556309Y-112482380D01*
X23461071Y-112625238D01*
X23365833Y-112720476D01*
X23270595Y-112768095D01*
X22032500Y-82907142D02*
X21984880Y-82954761D01*
X21842023Y-83002380D01*
X21746785Y-83002380D01*
X21603928Y-82954761D01*
X21508690Y-82859523D01*
X21461071Y-82764285D01*
X21413452Y-82573809D01*
X21413452Y-82430952D01*
X21461071Y-82240476D01*
X21508690Y-82145238D01*
X21603928Y-82050000D01*
X21746785Y-82002380D01*
X21842023Y-82002380D01*
X21984880Y-82050000D01*
X22032500Y-82097619D01*
X22937261Y-83002380D02*
X22461071Y-83002380D01*
X22461071Y-82002380D01*
X23270595Y-83002380D02*
X23270595Y-82002380D01*
X23842023Y-83002380D02*
X23413452Y-82430952D01*
X23842023Y-82002380D02*
X23270595Y-82573809D01*
X20365833Y-90574761D02*
X20508690Y-90622380D01*
X20746785Y-90622380D01*
X20842023Y-90574761D01*
X20889642Y-90527142D01*
X20937261Y-90431904D01*
X20937261Y-90336666D01*
X20889642Y-90241428D01*
X20842023Y-90193809D01*
X20746785Y-90146190D01*
X20556309Y-90098571D01*
X20461071Y-90050952D01*
X20413452Y-90003333D01*
X20365833Y-89908095D01*
X20365833Y-89812857D01*
X20413452Y-89717619D01*
X20461071Y-89670000D01*
X20556309Y-89622380D01*
X20794404Y-89622380D01*
X20937261Y-89670000D01*
X21556309Y-90146190D02*
X21556309Y-90622380D01*
X21222976Y-89622380D02*
X21556309Y-90146190D01*
X21889642Y-89622380D01*
X22222976Y-90622380D02*
X22222976Y-89622380D01*
X22794404Y-90622380D01*
X22794404Y-89622380D01*
X23842023Y-90527142D02*
X23794404Y-90574761D01*
X23651547Y-90622380D01*
X23556309Y-90622380D01*
X23413452Y-90574761D01*
X23318214Y-90479523D01*
X23270595Y-90384285D01*
X23222976Y-90193809D01*
X23222976Y-90050952D01*
X23270595Y-89860476D01*
X23318214Y-89765238D01*
X23413452Y-89670000D01*
X23556309Y-89622380D01*
X23651547Y-89622380D01*
X23794404Y-89670000D01*
X23842023Y-89717619D01*
X22318214Y-100782380D02*
X22318214Y-99782380D01*
X22556309Y-99782380D01*
X22699166Y-99830000D01*
X22794404Y-99925238D01*
X22842023Y-100020476D01*
X22889642Y-100210952D01*
X22889642Y-100353809D01*
X22842023Y-100544285D01*
X22794404Y-100639523D01*
X22699166Y-100734761D01*
X22556309Y-100782380D01*
X22318214Y-100782380D01*
X23222976Y-99782380D02*
X23842023Y-99782380D01*
X23508690Y-100163333D01*
X23651547Y-100163333D01*
X23746785Y-100210952D01*
X23794404Y-100258571D01*
X23842023Y-100353809D01*
X23842023Y-100591904D01*
X23794404Y-100687142D01*
X23746785Y-100734761D01*
X23651547Y-100782380D01*
X23365833Y-100782380D01*
X23270595Y-100734761D01*
X23222976Y-100687142D01*
X22318214Y-110942380D02*
X22318214Y-109942380D01*
X22556309Y-109942380D01*
X22699166Y-109990000D01*
X22794404Y-110085238D01*
X22842023Y-110180476D01*
X22889642Y-110370952D01*
X22889642Y-110513809D01*
X22842023Y-110704285D01*
X22794404Y-110799523D01*
X22699166Y-110894761D01*
X22556309Y-110942380D01*
X22318214Y-110942380D01*
X23222976Y-109942380D02*
X23889642Y-109942380D01*
X23461071Y-110942380D01*
X21984880Y-75382380D02*
X21651547Y-74906190D01*
X21413452Y-75382380D02*
X21413452Y-74382380D01*
X21794404Y-74382380D01*
X21889642Y-74430000D01*
X21937261Y-74477619D01*
X21984880Y-74572857D01*
X21984880Y-74715714D01*
X21937261Y-74810952D01*
X21889642Y-74858571D01*
X21794404Y-74906190D01*
X21413452Y-74906190D01*
X22413452Y-75382380D02*
X22413452Y-74382380D01*
X22651547Y-74382380D01*
X22794404Y-74430000D01*
X22889642Y-74525238D01*
X22937261Y-74620476D01*
X22984880Y-74810952D01*
X22984880Y-74953809D01*
X22937261Y-75144285D01*
X22889642Y-75239523D01*
X22794404Y-75334761D01*
X22651547Y-75382380D01*
X22413452Y-75382380D01*
X23603928Y-74906190D02*
X23603928Y-75382380D01*
X23270595Y-74382380D02*
X23603928Y-74906190D01*
X23937261Y-74382380D01*
X20984880Y-77922380D02*
X20651547Y-77446190D01*
X20413452Y-77922380D02*
X20413452Y-76922380D01*
X20794404Y-76922380D01*
X20889642Y-76970000D01*
X20937261Y-77017619D01*
X20984880Y-77112857D01*
X20984880Y-77255714D01*
X20937261Y-77350952D01*
X20889642Y-77398571D01*
X20794404Y-77446190D01*
X20413452Y-77446190D01*
X21413452Y-77398571D02*
X21746785Y-77398571D01*
X21889642Y-77922380D02*
X21413452Y-77922380D01*
X21413452Y-76922380D01*
X21889642Y-76922380D01*
X22270595Y-77874761D02*
X22413452Y-77922380D01*
X22651547Y-77922380D01*
X22746785Y-77874761D01*
X22794404Y-77827142D01*
X22842023Y-77731904D01*
X22842023Y-77636666D01*
X22794404Y-77541428D01*
X22746785Y-77493809D01*
X22651547Y-77446190D01*
X22461071Y-77398571D01*
X22365833Y-77350952D01*
X22318214Y-77303333D01*
X22270595Y-77208095D01*
X22270595Y-77112857D01*
X22318214Y-77017619D01*
X22365833Y-76970000D01*
X22461071Y-76922380D01*
X22699166Y-76922380D01*
X22842023Y-76970000D01*
X23603928Y-77398571D02*
X23746785Y-77446190D01*
X23794404Y-77493809D01*
X23842023Y-77589047D01*
X23842023Y-77731904D01*
X23794404Y-77827142D01*
X23746785Y-77874761D01*
X23651547Y-77922380D01*
X23270595Y-77922380D01*
X23270595Y-76922380D01*
X23603928Y-76922380D01*
X23699166Y-76970000D01*
X23746785Y-77017619D01*
X23794404Y-77112857D01*
X23794404Y-77208095D01*
X23746785Y-77303333D01*
X23699166Y-77350952D01*
X23603928Y-77398571D01*
X23270595Y-77398571D01*
X21318214Y-72461428D02*
X22080119Y-72461428D01*
X21699166Y-72842380D02*
X21699166Y-72080476D01*
X23032500Y-71842380D02*
X22556309Y-71842380D01*
X22508690Y-72318571D01*
X22556309Y-72270952D01*
X22651547Y-72223333D01*
X22889642Y-72223333D01*
X22984880Y-72270952D01*
X23032500Y-72318571D01*
X23080119Y-72413809D01*
X23080119Y-72651904D01*
X23032500Y-72747142D01*
X22984880Y-72794761D01*
X22889642Y-72842380D01*
X22651547Y-72842380D01*
X22556309Y-72794761D01*
X22508690Y-72747142D01*
X23413452Y-72175714D02*
X23651547Y-72842380D01*
X23889642Y-72175714D01*
X22318214Y-93162380D02*
X22318214Y-92162380D01*
X22556309Y-92162380D01*
X22699166Y-92210000D01*
X22794404Y-92305238D01*
X22842023Y-92400476D01*
X22889642Y-92590952D01*
X22889642Y-92733809D01*
X22842023Y-92924285D01*
X22794404Y-93019523D01*
X22699166Y-93114761D01*
X22556309Y-93162380D01*
X22318214Y-93162380D01*
X23508690Y-92162380D02*
X23603928Y-92162380D01*
X23699166Y-92210000D01*
X23746785Y-92257619D01*
X23794404Y-92352857D01*
X23842023Y-92543333D01*
X23842023Y-92781428D01*
X23794404Y-92971904D01*
X23746785Y-93067142D01*
X23699166Y-93114761D01*
X23603928Y-93162380D01*
X23508690Y-93162380D01*
X23413452Y-93114761D01*
X23365833Y-93067142D01*
X23318214Y-92971904D01*
X23270595Y-92781428D01*
X23270595Y-92543333D01*
X23318214Y-92352857D01*
X23365833Y-92257619D01*
X23413452Y-92210000D01*
X23508690Y-92162380D01*
X20318214Y-115022380D02*
X20318214Y-115831904D01*
X20365833Y-115927142D01*
X20413452Y-115974761D01*
X20508690Y-116022380D01*
X20699166Y-116022380D01*
X20794404Y-115974761D01*
X20842023Y-115927142D01*
X20889642Y-115831904D01*
X20889642Y-115022380D01*
X21318214Y-115974761D02*
X21461071Y-116022380D01*
X21699166Y-116022380D01*
X21794404Y-115974761D01*
X21842023Y-115927142D01*
X21889642Y-115831904D01*
X21889642Y-115736666D01*
X21842023Y-115641428D01*
X21794404Y-115593809D01*
X21699166Y-115546190D01*
X21508690Y-115498571D01*
X21413452Y-115450952D01*
X21365833Y-115403333D01*
X21318214Y-115308095D01*
X21318214Y-115212857D01*
X21365833Y-115117619D01*
X21413452Y-115070000D01*
X21508690Y-115022380D01*
X21746785Y-115022380D01*
X21889642Y-115070000D01*
X22889642Y-116022380D02*
X22556309Y-115546190D01*
X22318214Y-116022380D02*
X22318214Y-115022380D01*
X22699166Y-115022380D01*
X22794404Y-115070000D01*
X22842023Y-115117619D01*
X22889642Y-115212857D01*
X22889642Y-115355714D01*
X22842023Y-115450952D01*
X22794404Y-115498571D01*
X22699166Y-115546190D01*
X22318214Y-115546190D01*
X23270595Y-115117619D02*
X23318214Y-115070000D01*
X23413452Y-115022380D01*
X23651547Y-115022380D01*
X23746785Y-115070000D01*
X23794404Y-115117619D01*
X23842023Y-115212857D01*
X23842023Y-115308095D01*
X23794404Y-115450952D01*
X23222976Y-116022380D01*
X23842023Y-116022380D01*
X21699166Y-80462380D02*
X21365833Y-79986190D01*
X21127738Y-80462380D02*
X21127738Y-79462380D01*
X21508690Y-79462380D01*
X21603928Y-79510000D01*
X21651547Y-79557619D01*
X21699166Y-79652857D01*
X21699166Y-79795714D01*
X21651547Y-79890952D01*
X21603928Y-79938571D01*
X21508690Y-79986190D01*
X21127738Y-79986190D01*
X22032500Y-79462380D02*
X22270595Y-80462380D01*
X22461071Y-79748095D01*
X22651547Y-80462380D01*
X22889642Y-79462380D01*
X23603928Y-79938571D02*
X23746785Y-79986190D01*
X23794404Y-80033809D01*
X23842023Y-80129047D01*
X23842023Y-80271904D01*
X23794404Y-80367142D01*
X23746785Y-80414761D01*
X23651547Y-80462380D01*
X23270595Y-80462380D01*
X23270595Y-79462380D01*
X23603928Y-79462380D01*
X23699166Y-79510000D01*
X23746785Y-79557619D01*
X23794404Y-79652857D01*
X23794404Y-79748095D01*
X23746785Y-79843333D01*
X23699166Y-79890952D01*
X23603928Y-79938571D01*
X23270595Y-79938571D01*
X22318214Y-108402380D02*
X22318214Y-107402380D01*
X22556309Y-107402380D01*
X22699166Y-107450000D01*
X22794404Y-107545238D01*
X22842023Y-107640476D01*
X22889642Y-107830952D01*
X22889642Y-107973809D01*
X22842023Y-108164285D01*
X22794404Y-108259523D01*
X22699166Y-108354761D01*
X22556309Y-108402380D01*
X22318214Y-108402380D01*
X23746785Y-107402380D02*
X23556309Y-107402380D01*
X23461071Y-107450000D01*
X23413452Y-107497619D01*
X23318214Y-107640476D01*
X23270595Y-107830952D01*
X23270595Y-108211904D01*
X23318214Y-108307142D01*
X23365833Y-108354761D01*
X23461071Y-108402380D01*
X23651547Y-108402380D01*
X23746785Y-108354761D01*
X23794404Y-108307142D01*
X23842023Y-108211904D01*
X23842023Y-107973809D01*
X23794404Y-107878571D01*
X23746785Y-107830952D01*
X23651547Y-107783333D01*
X23461071Y-107783333D01*
X23365833Y-107830952D01*
X23318214Y-107878571D01*
X23270595Y-107973809D01*
X22318214Y-105862380D02*
X22318214Y-104862380D01*
X22556309Y-104862380D01*
X22699166Y-104910000D01*
X22794404Y-105005238D01*
X22842023Y-105100476D01*
X22889642Y-105290952D01*
X22889642Y-105433809D01*
X22842023Y-105624285D01*
X22794404Y-105719523D01*
X22699166Y-105814761D01*
X22556309Y-105862380D01*
X22318214Y-105862380D01*
X23794404Y-104862380D02*
X23318214Y-104862380D01*
X23270595Y-105338571D01*
X23318214Y-105290952D01*
X23413452Y-105243333D01*
X23651547Y-105243333D01*
X23746785Y-105290952D01*
X23794404Y-105338571D01*
X23842023Y-105433809D01*
X23842023Y-105671904D01*
X23794404Y-105767142D01*
X23746785Y-105814761D01*
X23651547Y-105862380D01*
X23413452Y-105862380D01*
X23318214Y-105814761D01*
X23270595Y-105767142D01*
X21651547Y-88082380D02*
X21651547Y-87082380D01*
X21556309Y-87225238D02*
X21746785Y-87225238D01*
X21889642Y-87272857D01*
X21984880Y-87368095D01*
X22032500Y-87463333D01*
X22032500Y-87653809D01*
X21984880Y-87749047D01*
X21889642Y-87844285D01*
X21746785Y-87891904D01*
X21556309Y-87891904D01*
X21413452Y-87844285D01*
X21318214Y-87749047D01*
X21270595Y-87653809D01*
X21270595Y-87463333D01*
X21318214Y-87368095D01*
X21413452Y-87272857D01*
X21556309Y-87225238D01*
X22365833Y-87177619D02*
X22413452Y-87130000D01*
X22508690Y-87082380D01*
X22746785Y-87082380D01*
X22842023Y-87130000D01*
X22889642Y-87177619D01*
X22937261Y-87272857D01*
X22937261Y-87368095D01*
X22889642Y-87510952D01*
X22318214Y-88082380D01*
X22937261Y-88082380D01*
X23508690Y-88082380D02*
X23413452Y-88034761D01*
X23365833Y-87987142D01*
X23318214Y-87891904D01*
X23318214Y-87606190D01*
X23365833Y-87510952D01*
X23413452Y-87463333D01*
X23508690Y-87415714D01*
X23651547Y-87415714D01*
X23746785Y-87463333D01*
X23794404Y-87510952D01*
X23842023Y-87606190D01*
X23842023Y-87891904D01*
X23794404Y-87987142D01*
X23746785Y-88034761D01*
X23651547Y-88082380D01*
X23508690Y-88082380D01*
X22413452Y-59856666D02*
X22889642Y-59856666D01*
X22318214Y-60142380D02*
X22651547Y-59142380D01*
X22984880Y-60142380D01*
X23508690Y-59142380D02*
X23603928Y-59142380D01*
X23699166Y-59190000D01*
X23746785Y-59237619D01*
X23794404Y-59332857D01*
X23842023Y-59523333D01*
X23842023Y-59761428D01*
X23794404Y-59951904D01*
X23746785Y-60047142D01*
X23699166Y-60094761D01*
X23603928Y-60142380D01*
X23508690Y-60142380D01*
X23413452Y-60094761D01*
X23365833Y-60047142D01*
X23318214Y-59951904D01*
X23270595Y-59761428D01*
X23270595Y-59523333D01*
X23318214Y-59332857D01*
X23365833Y-59237619D01*
X23413452Y-59190000D01*
X23508690Y-59142380D01*
X21746785Y-69350000D02*
X21651547Y-69302380D01*
X21508690Y-69302380D01*
X21365833Y-69350000D01*
X21270595Y-69445238D01*
X21222976Y-69540476D01*
X21175357Y-69730952D01*
X21175357Y-69873809D01*
X21222976Y-70064285D01*
X21270595Y-70159523D01*
X21365833Y-70254761D01*
X21508690Y-70302380D01*
X21603928Y-70302380D01*
X21746785Y-70254761D01*
X21794404Y-70207142D01*
X21794404Y-69873809D01*
X21603928Y-69873809D01*
X22222976Y-70302380D02*
X22222976Y-69302380D01*
X22794404Y-70302380D01*
X22794404Y-69302380D01*
X23270595Y-70302380D02*
X23270595Y-69302380D01*
X23508690Y-69302380D01*
X23651547Y-69350000D01*
X23746785Y-69445238D01*
X23794404Y-69540476D01*
X23842023Y-69730952D01*
X23842023Y-69873809D01*
X23794404Y-70064285D01*
X23746785Y-70159523D01*
X23651547Y-70254761D01*
X23508690Y-70302380D01*
X23270595Y-70302380D01*
X22413452Y-57316666D02*
X22889642Y-57316666D01*
X22318214Y-57602380D02*
X22651547Y-56602380D01*
X22984880Y-57602380D01*
X23842023Y-57602380D02*
X23270595Y-57602380D01*
X23556309Y-57602380D02*
X23556309Y-56602380D01*
X23461071Y-56745238D01*
X23365833Y-56840476D01*
X23270595Y-56888095D01*
X20746785Y-65222380D02*
X20746785Y-64222380D01*
X21794404Y-65222380D02*
X21461071Y-64746190D01*
X21222976Y-65222380D02*
X21222976Y-64222380D01*
X21603928Y-64222380D01*
X21699166Y-64270000D01*
X21746785Y-64317619D01*
X21794404Y-64412857D01*
X21794404Y-64555714D01*
X21746785Y-64650952D01*
X21699166Y-64698571D01*
X21603928Y-64746190D01*
X21222976Y-64746190D01*
X22889642Y-65317619D02*
X22794404Y-65270000D01*
X22699166Y-65174761D01*
X22556309Y-65031904D01*
X22461071Y-64984285D01*
X22365833Y-64984285D01*
X22413452Y-65222380D02*
X22318214Y-65174761D01*
X22222976Y-65079523D01*
X22175357Y-64889047D01*
X22175357Y-64555714D01*
X22222976Y-64365238D01*
X22318214Y-64270000D01*
X22413452Y-64222380D01*
X22603928Y-64222380D01*
X22699166Y-64270000D01*
X22794404Y-64365238D01*
X22842023Y-64555714D01*
X22842023Y-64889047D01*
X22794404Y-65079523D01*
X22699166Y-65174761D01*
X22603928Y-65222380D01*
X22413452Y-65222380D01*
X23603928Y-64698571D02*
X23746785Y-64746190D01*
X23794404Y-64793809D01*
X23842023Y-64889047D01*
X23842023Y-65031904D01*
X23794404Y-65127142D01*
X23746785Y-65174761D01*
X23651547Y-65222380D01*
X23270595Y-65222380D01*
X23270595Y-64222380D01*
X23603928Y-64222380D01*
X23699166Y-64270000D01*
X23746785Y-64317619D01*
X23794404Y-64412857D01*
X23794404Y-64508095D01*
X23746785Y-64603333D01*
X23699166Y-64650952D01*
X23603928Y-64698571D01*
X23270595Y-64698571D01*
X22413452Y-49696666D02*
X22889642Y-49696666D01*
X22318214Y-49982380D02*
X22651547Y-48982380D01*
X22984880Y-49982380D01*
X23746785Y-49315714D02*
X23746785Y-49982380D01*
X23508690Y-48934761D02*
X23270595Y-49649047D01*
X23889642Y-49649047D01*
X22413452Y-52236666D02*
X22889642Y-52236666D01*
X22318214Y-52522380D02*
X22651547Y-51522380D01*
X22984880Y-52522380D01*
X23222976Y-51522380D02*
X23842023Y-51522380D01*
X23508690Y-51903333D01*
X23651547Y-51903333D01*
X23746785Y-51950952D01*
X23794404Y-51998571D01*
X23842023Y-52093809D01*
X23842023Y-52331904D01*
X23794404Y-52427142D01*
X23746785Y-52474761D01*
X23651547Y-52522380D01*
X23365833Y-52522380D01*
X23270595Y-52474761D01*
X23222976Y-52427142D01*
X22413452Y-47156666D02*
X22889642Y-47156666D01*
X22318214Y-47442380D02*
X22651547Y-46442380D01*
X22984880Y-47442380D01*
X23794404Y-46442380D02*
X23318214Y-46442380D01*
X23270595Y-46918571D01*
X23318214Y-46870952D01*
X23413452Y-46823333D01*
X23651547Y-46823333D01*
X23746785Y-46870952D01*
X23794404Y-46918571D01*
X23842023Y-47013809D01*
X23842023Y-47251904D01*
X23794404Y-47347142D01*
X23746785Y-47394761D01*
X23651547Y-47442380D01*
X23413452Y-47442380D01*
X23318214Y-47394761D01*
X23270595Y-47347142D01*
X21222976Y-67714761D02*
X21365833Y-67762380D01*
X21603928Y-67762380D01*
X21699166Y-67714761D01*
X21746785Y-67667142D01*
X21794404Y-67571904D01*
X21794404Y-67476666D01*
X21746785Y-67381428D01*
X21699166Y-67333809D01*
X21603928Y-67286190D01*
X21413452Y-67238571D01*
X21318214Y-67190952D01*
X21270595Y-67143333D01*
X21222976Y-67048095D01*
X21222976Y-66952857D01*
X21270595Y-66857619D01*
X21318214Y-66810000D01*
X21413452Y-66762380D01*
X21651547Y-66762380D01*
X21794404Y-66810000D01*
X22413452Y-66762380D02*
X22603928Y-66762380D01*
X22699166Y-66810000D01*
X22794404Y-66905238D01*
X22842023Y-67095714D01*
X22842023Y-67429047D01*
X22794404Y-67619523D01*
X22699166Y-67714761D01*
X22603928Y-67762380D01*
X22413452Y-67762380D01*
X22318214Y-67714761D01*
X22222976Y-67619523D01*
X22175357Y-67429047D01*
X22175357Y-67095714D01*
X22222976Y-66905238D01*
X22318214Y-66810000D01*
X22413452Y-66762380D01*
X23603928Y-67238571D02*
X23746785Y-67286190D01*
X23794404Y-67333809D01*
X23842023Y-67429047D01*
X23842023Y-67571904D01*
X23794404Y-67667142D01*
X23746785Y-67714761D01*
X23651547Y-67762380D01*
X23270595Y-67762380D01*
X23270595Y-66762380D01*
X23603928Y-66762380D01*
X23699166Y-66810000D01*
X23746785Y-66857619D01*
X23794404Y-66952857D01*
X23794404Y-67048095D01*
X23746785Y-67143333D01*
X23699166Y-67190952D01*
X23603928Y-67238571D01*
X23270595Y-67238571D01*
X22413452Y-54776666D02*
X22889642Y-54776666D01*
X22318214Y-55062380D02*
X22651547Y-54062380D01*
X22984880Y-55062380D01*
X23270595Y-54157619D02*
X23318214Y-54110000D01*
X23413452Y-54062380D01*
X23651547Y-54062380D01*
X23746785Y-54110000D01*
X23794404Y-54157619D01*
X23842023Y-54252857D01*
X23842023Y-54348095D01*
X23794404Y-54490952D01*
X23222976Y-55062380D01*
X23842023Y-55062380D01*
X20603928Y-62682380D02*
X20603928Y-61682380D01*
X21175357Y-62682380D01*
X21175357Y-61682380D01*
X21651547Y-62682380D02*
X21651547Y-61682380D01*
X21984880Y-62396666D01*
X22318214Y-61682380D01*
X22318214Y-62682380D01*
X22794404Y-62682380D02*
X22794404Y-61682380D01*
X23603928Y-62158571D02*
X23746785Y-62206190D01*
X23794404Y-62253809D01*
X23842023Y-62349047D01*
X23842023Y-62491904D01*
X23794404Y-62587142D01*
X23746785Y-62634761D01*
X23651547Y-62682380D01*
X23270595Y-62682380D01*
X23270595Y-61682380D01*
X23603928Y-61682380D01*
X23699166Y-61730000D01*
X23746785Y-61777619D01*
X23794404Y-61872857D01*
X23794404Y-61968095D01*
X23746785Y-62063333D01*
X23699166Y-62110952D01*
X23603928Y-62158571D01*
X23270595Y-62158571D01*
X22413452Y-44616666D02*
X22889642Y-44616666D01*
X22318214Y-44902380D02*
X22651547Y-43902380D01*
X22984880Y-44902380D01*
X23746785Y-43902380D02*
X23556309Y-43902380D01*
X23461071Y-43950000D01*
X23413452Y-43997619D01*
X23318214Y-44140476D01*
X23270595Y-44330952D01*
X23270595Y-44711904D01*
X23318214Y-44807142D01*
X23365833Y-44854761D01*
X23461071Y-44902380D01*
X23651547Y-44902380D01*
X23746785Y-44854761D01*
X23794404Y-44807142D01*
X23842023Y-44711904D01*
X23842023Y-44473809D01*
X23794404Y-44378571D01*
X23746785Y-44330952D01*
X23651547Y-44283333D01*
X23461071Y-44283333D01*
X23365833Y-44330952D01*
X23318214Y-44378571D01*
X23270595Y-44473809D01*
X22413452Y-42076666D02*
X22889642Y-42076666D01*
X22318214Y-42362380D02*
X22651547Y-41362380D01*
X22984880Y-42362380D01*
X23222976Y-41362380D02*
X23889642Y-41362380D01*
X23461071Y-42362380D01*
X22413452Y-39536666D02*
X22889642Y-39536666D01*
X22318214Y-39822380D02*
X22651547Y-38822380D01*
X22984880Y-39822380D01*
X23461071Y-39250952D02*
X23365833Y-39203333D01*
X23318214Y-39155714D01*
X23270595Y-39060476D01*
X23270595Y-39012857D01*
X23318214Y-38917619D01*
X23365833Y-38870000D01*
X23461071Y-38822380D01*
X23651547Y-38822380D01*
X23746785Y-38870000D01*
X23794404Y-38917619D01*
X23842023Y-39012857D01*
X23842023Y-39060476D01*
X23794404Y-39155714D01*
X23746785Y-39203333D01*
X23651547Y-39250952D01*
X23461071Y-39250952D01*
X23365833Y-39298571D01*
X23318214Y-39346190D01*
X23270595Y-39441428D01*
X23270595Y-39631904D01*
X23318214Y-39727142D01*
X23365833Y-39774761D01*
X23461071Y-39822380D01*
X23651547Y-39822380D01*
X23746785Y-39774761D01*
X23794404Y-39727142D01*
X23842023Y-39631904D01*
X23842023Y-39441428D01*
X23794404Y-39346190D01*
X23746785Y-39298571D01*
X23651547Y-39250952D01*
X22413452Y-36996666D02*
X22889642Y-36996666D01*
X22318214Y-37282380D02*
X22651547Y-36282380D01*
X22984880Y-37282380D01*
X23365833Y-37282380D02*
X23556309Y-37282380D01*
X23651547Y-37234761D01*
X23699166Y-37187142D01*
X23794404Y-37044285D01*
X23842023Y-36853809D01*
X23842023Y-36472857D01*
X23794404Y-36377619D01*
X23746785Y-36330000D01*
X23651547Y-36282380D01*
X23461071Y-36282380D01*
X23365833Y-36330000D01*
X23318214Y-36377619D01*
X23270595Y-36472857D01*
X23270595Y-36710952D01*
X23318214Y-36806190D01*
X23365833Y-36853809D01*
X23461071Y-36901428D01*
X23651547Y-36901428D01*
X23746785Y-36853809D01*
X23794404Y-36806190D01*
X23842023Y-36710952D01*
X21461071Y-34456666D02*
X21937261Y-34456666D01*
X21365833Y-34742380D02*
X21699166Y-33742380D01*
X22032500Y-34742380D01*
X22889642Y-34742380D02*
X22318214Y-34742380D01*
X22603928Y-34742380D02*
X22603928Y-33742380D01*
X22508690Y-33885238D01*
X22413452Y-33980476D01*
X22318214Y-34028095D01*
X23508690Y-33742380D02*
X23603928Y-33742380D01*
X23699166Y-33790000D01*
X23746785Y-33837619D01*
X23794404Y-33932857D01*
X23842023Y-34123333D01*
X23842023Y-34361428D01*
X23794404Y-34551904D01*
X23746785Y-34647142D01*
X23699166Y-34694761D01*
X23603928Y-34742380D01*
X23508690Y-34742380D01*
X23413452Y-34694761D01*
X23365833Y-34647142D01*
X23318214Y-34551904D01*
X23270595Y-34361428D01*
X23270595Y-34123333D01*
X23318214Y-33932857D01*
X23365833Y-33837619D01*
X23413452Y-33790000D01*
X23508690Y-33742380D01*
X21461071Y-31916666D02*
X21937261Y-31916666D01*
X21365833Y-32202380D02*
X21699166Y-31202380D01*
X22032500Y-32202380D01*
X22889642Y-32202380D02*
X22318214Y-32202380D01*
X22603928Y-32202380D02*
X22603928Y-31202380D01*
X22508690Y-31345238D01*
X22413452Y-31440476D01*
X22318214Y-31488095D01*
X23842023Y-32202380D02*
X23270595Y-32202380D01*
X23556309Y-32202380D02*
X23556309Y-31202380D01*
X23461071Y-31345238D01*
X23365833Y-31440476D01*
X23270595Y-31488095D01*
X21461071Y-29376666D02*
X21937261Y-29376666D01*
X21365833Y-29662380D02*
X21699166Y-28662380D01*
X22032500Y-29662380D01*
X22889642Y-29662380D02*
X22318214Y-29662380D01*
X22603928Y-29662380D02*
X22603928Y-28662380D01*
X22508690Y-28805238D01*
X22413452Y-28900476D01*
X22318214Y-28948095D01*
X23270595Y-28757619D02*
X23318214Y-28710000D01*
X23413452Y-28662380D01*
X23651547Y-28662380D01*
X23746785Y-28710000D01*
X23794404Y-28757619D01*
X23842023Y-28852857D01*
X23842023Y-28948095D01*
X23794404Y-29090952D01*
X23222976Y-29662380D01*
X23842023Y-29662380D01*
X21461071Y-26836666D02*
X21937261Y-26836666D01*
X21365833Y-27122380D02*
X21699166Y-26122380D01*
X22032500Y-27122380D01*
X22889642Y-27122380D02*
X22318214Y-27122380D01*
X22603928Y-27122380D02*
X22603928Y-26122380D01*
X22508690Y-26265238D01*
X22413452Y-26360476D01*
X22318214Y-26408095D01*
X23222976Y-26122380D02*
X23842023Y-26122380D01*
X23508690Y-26503333D01*
X23651547Y-26503333D01*
X23746785Y-26550952D01*
X23794404Y-26598571D01*
X23842023Y-26693809D01*
X23842023Y-26931904D01*
X23794404Y-27027142D01*
X23746785Y-27074761D01*
X23651547Y-27122380D01*
X23365833Y-27122380D01*
X23270595Y-27074761D01*
X23222976Y-27027142D01*
X21461071Y-24296666D02*
X21937261Y-24296666D01*
X21365833Y-24582380D02*
X21699166Y-23582380D01*
X22032500Y-24582380D01*
X22889642Y-24582380D02*
X22318214Y-24582380D01*
X22603928Y-24582380D02*
X22603928Y-23582380D01*
X22508690Y-23725238D01*
X22413452Y-23820476D01*
X22318214Y-23868095D01*
X23746785Y-23915714D02*
X23746785Y-24582380D01*
X23508690Y-23534761D02*
X23270595Y-24249047D01*
X23889642Y-24249047D01*
X21461071Y-21756666D02*
X21937261Y-21756666D01*
X21365833Y-22042380D02*
X21699166Y-21042380D01*
X22032500Y-22042380D01*
X22889642Y-22042380D02*
X22318214Y-22042380D01*
X22603928Y-22042380D02*
X22603928Y-21042380D01*
X22508690Y-21185238D01*
X22413452Y-21280476D01*
X22318214Y-21328095D01*
X23794404Y-21042380D02*
X23318214Y-21042380D01*
X23270595Y-21518571D01*
X23318214Y-21470952D01*
X23413452Y-21423333D01*
X23651547Y-21423333D01*
X23746785Y-21470952D01*
X23794404Y-21518571D01*
X23842023Y-21613809D01*
X23842023Y-21851904D01*
X23794404Y-21947142D01*
X23746785Y-21994761D01*
X23651547Y-22042380D01*
X23413452Y-22042380D01*
X23318214Y-21994761D01*
X23270595Y-21947142D01*
X70636666Y-124817142D02*
X70589047Y-124864761D01*
X70446190Y-124912380D01*
X70350952Y-124912380D01*
X70208095Y-124864761D01*
X70112857Y-124769523D01*
X70065238Y-124674285D01*
X70017619Y-124483809D01*
X70017619Y-124340952D01*
X70065238Y-124150476D01*
X70112857Y-124055238D01*
X70208095Y-123960000D01*
X70350952Y-123912380D01*
X70446190Y-123912380D01*
X70589047Y-123960000D01*
X70636666Y-124007619D01*
X71065238Y-124912380D02*
X71065238Y-123912380D01*
X71493809Y-124912380D02*
X71493809Y-124388571D01*
X71446190Y-124293333D01*
X71350952Y-124245714D01*
X71208095Y-124245714D01*
X71112857Y-124293333D01*
X71065238Y-124340952D01*
X71970000Y-124912380D02*
X71970000Y-124245714D01*
X71970000Y-124436190D02*
X72017619Y-124340952D01*
X72065238Y-124293333D01*
X72160476Y-124245714D01*
X72255714Y-124245714D01*
X72589047Y-124912380D02*
X72589047Y-124245714D01*
X72589047Y-123912380D02*
X72541428Y-123960000D01*
X72589047Y-124007619D01*
X72636666Y-123960000D01*
X72589047Y-123912380D01*
X72589047Y-124007619D01*
X73017619Y-124864761D02*
X73112857Y-124912380D01*
X73303333Y-124912380D01*
X73398571Y-124864761D01*
X73446190Y-124769523D01*
X73446190Y-124721904D01*
X73398571Y-124626666D01*
X73303333Y-124579047D01*
X73160476Y-124579047D01*
X73065238Y-124531428D01*
X73017619Y-124436190D01*
X73017619Y-124388571D01*
X73065238Y-124293333D01*
X73160476Y-124245714D01*
X73303333Y-124245714D01*
X73398571Y-124293333D01*
X75160476Y-123960000D02*
X75065238Y-123912380D01*
X74922380Y-123912380D01*
X74779523Y-123960000D01*
X74684285Y-124055238D01*
X74636666Y-124150476D01*
X74589047Y-124340952D01*
X74589047Y-124483809D01*
X74636666Y-124674285D01*
X74684285Y-124769523D01*
X74779523Y-124864761D01*
X74922380Y-124912380D01*
X75017619Y-124912380D01*
X75160476Y-124864761D01*
X75208095Y-124817142D01*
X75208095Y-124483809D01*
X75017619Y-124483809D01*
X75636666Y-124912380D02*
X75636666Y-124245714D01*
X75636666Y-124436190D02*
X75684285Y-124340952D01*
X75731904Y-124293333D01*
X75827142Y-124245714D01*
X75922380Y-124245714D01*
X76684285Y-124912380D02*
X76684285Y-124388571D01*
X76636666Y-124293333D01*
X76541428Y-124245714D01*
X76350952Y-124245714D01*
X76255714Y-124293333D01*
X76684285Y-124864761D02*
X76589047Y-124912380D01*
X76350952Y-124912380D01*
X76255714Y-124864761D01*
X76208095Y-124769523D01*
X76208095Y-124674285D01*
X76255714Y-124579047D01*
X76350952Y-124531428D01*
X76589047Y-124531428D01*
X76684285Y-124483809D01*
X77160476Y-124912380D02*
X77160476Y-123912380D01*
X77589047Y-124912380D02*
X77589047Y-124388571D01*
X77541428Y-124293333D01*
X77446190Y-124245714D01*
X77303333Y-124245714D01*
X77208095Y-124293333D01*
X77160476Y-124340952D01*
X78493809Y-124912380D02*
X78493809Y-124388571D01*
X78446190Y-124293333D01*
X78350952Y-124245714D01*
X78160476Y-124245714D01*
X78065238Y-124293333D01*
X78493809Y-124864761D02*
X78398571Y-124912380D01*
X78160476Y-124912380D01*
X78065238Y-124864761D01*
X78017619Y-124769523D01*
X78017619Y-124674285D01*
X78065238Y-124579047D01*
X78160476Y-124531428D01*
X78398571Y-124531428D01*
X78493809Y-124483809D01*
X78970000Y-124912380D02*
X78970000Y-124245714D01*
X78970000Y-124340952D02*
X79017619Y-124293333D01*
X79112857Y-124245714D01*
X79255714Y-124245714D01*
X79350952Y-124293333D01*
X79398571Y-124388571D01*
X79398571Y-124912380D01*
X79398571Y-124388571D02*
X79446190Y-124293333D01*
X79541428Y-124245714D01*
X79684285Y-124245714D01*
X79779523Y-124293333D01*
X79827142Y-124388571D01*
X79827142Y-124912380D01*
X80350952Y-124864761D02*
X80350952Y-124912380D01*
X80303333Y-125007619D01*
X80255714Y-125055238D01*
X81493809Y-124007619D02*
X81541428Y-123960000D01*
X81636666Y-123912380D01*
X81874761Y-123912380D01*
X81970000Y-123960000D01*
X82017619Y-124007619D01*
X82065238Y-124102857D01*
X82065238Y-124198095D01*
X82017619Y-124340952D01*
X81446190Y-124912380D01*
X82065238Y-124912380D01*
X82684285Y-123912380D02*
X82779523Y-123912380D01*
X82874761Y-123960000D01*
X82922380Y-124007619D01*
X82970000Y-124102857D01*
X83017619Y-124293333D01*
X83017619Y-124531428D01*
X82970000Y-124721904D01*
X82922380Y-124817142D01*
X82874761Y-124864761D01*
X82779523Y-124912380D01*
X82684285Y-124912380D01*
X82589047Y-124864761D01*
X82541428Y-124817142D01*
X82493809Y-124721904D01*
X82446190Y-124531428D01*
X82446190Y-124293333D01*
X82493809Y-124102857D01*
X82541428Y-124007619D01*
X82589047Y-123960000D01*
X82684285Y-123912380D01*
X83398571Y-124007619D02*
X83446190Y-123960000D01*
X83541428Y-123912380D01*
X83779523Y-123912380D01*
X83874761Y-123960000D01*
X83922380Y-124007619D01*
X83969999Y-124102857D01*
X83969999Y-124198095D01*
X83922380Y-124340952D01*
X83350952Y-124912380D01*
X83969999Y-124912380D01*
X84922380Y-124912380D02*
X84350952Y-124912380D01*
X84636666Y-124912380D02*
X84636666Y-123912380D01*
X84541428Y-124055238D01*
X84446190Y-124150476D01*
X84350952Y-124198095D01*
X103934404Y-124912380D02*
X103934404Y-123912380D01*
X104362976Y-124912380D02*
X104362976Y-124388571D01*
X104315357Y-124293333D01*
X104220119Y-124245714D01*
X104077261Y-124245714D01*
X103982023Y-124293333D01*
X103934404Y-124340952D01*
X104696309Y-124245714D02*
X105077261Y-124245714D01*
X104839166Y-123912380D02*
X104839166Y-124769523D01*
X104886785Y-124864761D01*
X104982023Y-124912380D01*
X105077261Y-124912380D01*
X105267738Y-124245714D02*
X105648690Y-124245714D01*
X105410595Y-123912380D02*
X105410595Y-124769523D01*
X105458214Y-124864761D01*
X105553452Y-124912380D01*
X105648690Y-124912380D01*
X105982023Y-124245714D02*
X105982023Y-125245714D01*
X105982023Y-124293333D02*
X106077261Y-124245714D01*
X106267738Y-124245714D01*
X106362976Y-124293333D01*
X106410595Y-124340952D01*
X106458214Y-124436190D01*
X106458214Y-124721904D01*
X106410595Y-124817142D01*
X106362976Y-124864761D01*
X106267738Y-124912380D01*
X106077261Y-124912380D01*
X105982023Y-124864761D01*
X106839166Y-124864761D02*
X106934404Y-124912380D01*
X107124880Y-124912380D01*
X107220119Y-124864761D01*
X107267738Y-124769523D01*
X107267738Y-124721904D01*
X107220119Y-124626666D01*
X107124880Y-124579047D01*
X106982023Y-124579047D01*
X106886785Y-124531428D01*
X106839166Y-124436190D01*
X106839166Y-124388571D01*
X106886785Y-124293333D01*
X106982023Y-124245714D01*
X107124880Y-124245714D01*
X107220119Y-124293333D01*
X107696309Y-124817142D02*
X107743928Y-124864761D01*
X107696309Y-124912380D01*
X107648690Y-124864761D01*
X107696309Y-124817142D01*
X107696309Y-124912380D01*
X107696309Y-124293333D02*
X107743928Y-124340952D01*
X107696309Y-124388571D01*
X107648690Y-124340952D01*
X107696309Y-124293333D01*
X107696309Y-124388571D01*
X108886785Y-123864761D02*
X108029642Y-125150476D01*
X109934404Y-123864761D02*
X109077261Y-125150476D01*
X110696309Y-124245714D02*
X110696309Y-125055238D01*
X110648690Y-125150476D01*
X110601071Y-125198095D01*
X110505833Y-125245714D01*
X110362976Y-125245714D01*
X110267738Y-125198095D01*
X110696309Y-124864761D02*
X110601071Y-124912380D01*
X110410595Y-124912380D01*
X110315357Y-124864761D01*
X110267738Y-124817142D01*
X110220119Y-124721904D01*
X110220119Y-124436190D01*
X110267738Y-124340952D01*
X110315357Y-124293333D01*
X110410595Y-124245714D01*
X110601071Y-124245714D01*
X110696309Y-124293333D01*
X111172500Y-124912380D02*
X111172500Y-124245714D01*
X111172500Y-123912380D02*
X111124880Y-123960000D01*
X111172500Y-124007619D01*
X111220119Y-123960000D01*
X111172500Y-123912380D01*
X111172500Y-124007619D01*
X111505833Y-124245714D02*
X111886785Y-124245714D01*
X111648690Y-123912380D02*
X111648690Y-124769523D01*
X111696309Y-124864761D01*
X111791547Y-124912380D01*
X111886785Y-124912380D01*
X112220119Y-124912380D02*
X112220119Y-123912380D01*
X112648690Y-124912380D02*
X112648690Y-124388571D01*
X112601071Y-124293333D01*
X112505833Y-124245714D01*
X112362976Y-124245714D01*
X112267738Y-124293333D01*
X112220119Y-124340952D01*
X113553452Y-124245714D02*
X113553452Y-124912380D01*
X113124880Y-124245714D02*
X113124880Y-124769523D01*
X113172500Y-124864761D01*
X113267738Y-124912380D01*
X113410595Y-124912380D01*
X113505833Y-124864761D01*
X113553452Y-124817142D01*
X114029642Y-124912380D02*
X114029642Y-123912380D01*
X114029642Y-124293333D02*
X114124880Y-124245714D01*
X114315357Y-124245714D01*
X114410595Y-124293333D01*
X114458214Y-124340952D01*
X114505833Y-124436190D01*
X114505833Y-124721904D01*
X114458214Y-124817142D01*
X114410595Y-124864761D01*
X114315357Y-124912380D01*
X114124880Y-124912380D01*
X114029642Y-124864761D01*
X114934404Y-124817142D02*
X114982023Y-124864761D01*
X114934404Y-124912380D01*
X114886785Y-124864761D01*
X114934404Y-124817142D01*
X114934404Y-124912380D01*
X115839166Y-124864761D02*
X115743928Y-124912380D01*
X115553452Y-124912380D01*
X115458214Y-124864761D01*
X115410595Y-124817142D01*
X115362976Y-124721904D01*
X115362976Y-124436190D01*
X115410595Y-124340952D01*
X115458214Y-124293333D01*
X115553452Y-124245714D01*
X115743928Y-124245714D01*
X115839166Y-124293333D01*
X116410595Y-124912380D02*
X116315357Y-124864761D01*
X116267738Y-124817142D01*
X116220119Y-124721904D01*
X116220119Y-124436190D01*
X116267738Y-124340952D01*
X116315357Y-124293333D01*
X116410595Y-124245714D01*
X116553452Y-124245714D01*
X116648690Y-124293333D01*
X116696309Y-124340952D01*
X116743928Y-124436190D01*
X116743928Y-124721904D01*
X116696309Y-124817142D01*
X116648690Y-124864761D01*
X116553452Y-124912380D01*
X116410595Y-124912380D01*
X117172500Y-124912380D02*
X117172500Y-124245714D01*
X117172500Y-124340952D02*
X117220119Y-124293333D01*
X117315357Y-124245714D01*
X117458214Y-124245714D01*
X117553452Y-124293333D01*
X117601071Y-124388571D01*
X117601071Y-124912380D01*
X117601071Y-124388571D02*
X117648690Y-124293333D01*
X117743928Y-124245714D01*
X117886785Y-124245714D01*
X117982023Y-124293333D01*
X118029642Y-124388571D01*
X118029642Y-124912380D01*
X119220119Y-123864761D02*
X118362976Y-125150476D01*
X119696309Y-124912380D02*
X119601071Y-124864761D01*
X119553452Y-124817142D01*
X119505833Y-124721904D01*
X119505833Y-124436190D01*
X119553452Y-124340952D01*
X119601071Y-124293333D01*
X119696309Y-124245714D01*
X119839166Y-124245714D01*
X119934404Y-124293333D01*
X119982023Y-124340952D01*
X120029642Y-124436190D01*
X120029642Y-124721904D01*
X119982023Y-124817142D01*
X119934404Y-124864761D01*
X119839166Y-124912380D01*
X119696309Y-124912380D01*
X120458214Y-124912380D02*
X120458214Y-124245714D01*
X120458214Y-123912380D02*
X120410595Y-123960000D01*
X120458214Y-124007619D01*
X120505833Y-123960000D01*
X120458214Y-123912380D01*
X120458214Y-124007619D01*
X120886785Y-124864761D02*
X120982023Y-124912380D01*
X121172500Y-124912380D01*
X121267738Y-124864761D01*
X121315357Y-124769523D01*
X121315357Y-124721904D01*
X121267738Y-124626666D01*
X121172500Y-124579047D01*
X121029642Y-124579047D01*
X120934404Y-124531428D01*
X120886785Y-124436190D01*
X120886785Y-124388571D01*
X120934404Y-124293333D01*
X121029642Y-124245714D01*
X121172500Y-124245714D01*
X121267738Y-124293333D01*
X121743928Y-124912380D02*
X121743928Y-123912380D01*
X122172500Y-124912380D02*
X122172500Y-124388571D01*
X122124880Y-124293333D01*
X122029642Y-124245714D01*
X121886785Y-124245714D01*
X121791547Y-124293333D01*
X121743928Y-124340952D01*
X122648690Y-124912380D02*
X122648690Y-124245714D01*
X122648690Y-123912380D02*
X122601071Y-123960000D01*
X122648690Y-124007619D01*
X122696309Y-123960000D01*
X122648690Y-123912380D01*
X122648690Y-124007619D01*
X123124880Y-124912380D02*
X123124880Y-124245714D01*
X123124880Y-123912380D02*
X123077261Y-123960000D01*
X123124880Y-124007619D01*
X123172500Y-123960000D01*
X123124880Y-123912380D01*
X123124880Y-124007619D01*
X123601071Y-124912380D02*
X123601071Y-123912380D01*
X123601071Y-124293333D02*
X123696309Y-124245714D01*
X123886785Y-124245714D01*
X123982023Y-124293333D01*
X124029642Y-124340952D01*
X124077261Y-124436190D01*
X124077261Y-124721904D01*
X124029642Y-124817142D01*
X123982023Y-124864761D01*
X123886785Y-124912380D01*
X123696309Y-124912380D01*
X123601071Y-124864761D01*
X124934404Y-124245714D02*
X124934404Y-124912380D01*
X124505833Y-124245714D02*
X124505833Y-124769523D01*
X124553452Y-124864761D01*
X124648690Y-124912380D01*
X124791547Y-124912380D01*
X124886785Y-124864761D01*
X124934404Y-124817142D01*
X125410595Y-124912380D02*
X125410595Y-124245714D01*
X125410595Y-124436190D02*
X125458214Y-124340952D01*
X125505833Y-124293333D01*
X125601071Y-124245714D01*
X125696309Y-124245714D01*
X126458214Y-124245714D02*
X126458214Y-125055238D01*
X126410595Y-125150476D01*
X126362976Y-125198095D01*
X126267738Y-125245714D01*
X126124880Y-125245714D01*
X126029642Y-125198095D01*
X126458214Y-124864761D02*
X126362976Y-124912380D01*
X126172500Y-124912380D01*
X126077261Y-124864761D01*
X126029642Y-124817142D01*
X125982023Y-124721904D01*
X125982023Y-124436190D01*
X126029642Y-124340952D01*
X126077261Y-124293333D01*
X126172500Y-124245714D01*
X126362976Y-124245714D01*
X126458214Y-124293333D01*
X127315357Y-124864761D02*
X127220119Y-124912380D01*
X127029642Y-124912380D01*
X126934404Y-124864761D01*
X126886785Y-124769523D01*
X126886785Y-124388571D01*
X126934404Y-124293333D01*
X127029642Y-124245714D01*
X127220119Y-124245714D01*
X127315357Y-124293333D01*
X127362976Y-124388571D01*
X127362976Y-124483809D01*
X126886785Y-124579047D01*
X127791547Y-124912380D02*
X127791547Y-124245714D01*
X127791547Y-124436190D02*
X127839166Y-124340952D01*
X127886785Y-124293333D01*
X127982023Y-124245714D01*
X128077261Y-124245714D01*
X27338928Y-124388571D02*
X27481785Y-124436190D01*
X27529404Y-124483809D01*
X27577023Y-124579047D01*
X27577023Y-124721904D01*
X27529404Y-124817142D01*
X27481785Y-124864761D01*
X27386547Y-124912380D01*
X27005595Y-124912380D01*
X27005595Y-123912380D01*
X27338928Y-123912380D01*
X27434166Y-123960000D01*
X27481785Y-124007619D01*
X27529404Y-124102857D01*
X27529404Y-124198095D01*
X27481785Y-124293333D01*
X27434166Y-124340952D01*
X27338928Y-124388571D01*
X27005595Y-124388571D01*
X28434166Y-124245714D02*
X28434166Y-124912380D01*
X28005595Y-124245714D02*
X28005595Y-124769523D01*
X28053214Y-124864761D01*
X28148452Y-124912380D01*
X28291309Y-124912380D01*
X28386547Y-124864761D01*
X28434166Y-124817142D01*
X28862738Y-124864761D02*
X28957976Y-124912380D01*
X29148452Y-124912380D01*
X29243690Y-124864761D01*
X29291309Y-124769523D01*
X29291309Y-124721904D01*
X29243690Y-124626666D01*
X29148452Y-124579047D01*
X29005595Y-124579047D01*
X28910357Y-124531428D01*
X28862738Y-124436190D01*
X28862738Y-124388571D01*
X28910357Y-124293333D01*
X29005595Y-124245714D01*
X29148452Y-124245714D01*
X29243690Y-124293333D01*
X30434166Y-124007619D02*
X30481785Y-123960000D01*
X30577023Y-123912380D01*
X30815119Y-123912380D01*
X30910357Y-123960000D01*
X30957976Y-124007619D01*
X31005595Y-124102857D01*
X31005595Y-124198095D01*
X30957976Y-124340952D01*
X30386547Y-124912380D01*
X31005595Y-124912380D01*
X31624642Y-123912380D02*
X31719880Y-123912380D01*
X31815119Y-123960000D01*
X31862738Y-124007619D01*
X31910357Y-124102857D01*
X31957976Y-124293333D01*
X31957976Y-124531428D01*
X31910357Y-124721904D01*
X31862738Y-124817142D01*
X31815119Y-124864761D01*
X31719880Y-124912380D01*
X31624642Y-124912380D01*
X31529404Y-124864761D01*
X31481785Y-124817142D01*
X31434166Y-124721904D01*
X31386547Y-124531428D01*
X31386547Y-124293333D01*
X31434166Y-124102857D01*
X31481785Y-124007619D01*
X31529404Y-123960000D01*
X31624642Y-123912380D01*
X32338928Y-124007619D02*
X32386547Y-123960000D01*
X32481785Y-123912380D01*
X32719880Y-123912380D01*
X32815119Y-123960000D01*
X32862738Y-124007619D01*
X32910357Y-124102857D01*
X32910357Y-124198095D01*
X32862738Y-124340952D01*
X32291309Y-124912380D01*
X32910357Y-124912380D01*
X33862738Y-124912380D02*
X33291309Y-124912380D01*
X33577023Y-124912380D02*
X33577023Y-123912380D01*
X33481785Y-124055238D01*
X33386547Y-124150476D01*
X33291309Y-124198095D01*
X34243690Y-124626666D02*
X34719880Y-124626666D01*
X34148452Y-124912380D02*
X34481785Y-123912380D01*
X34815119Y-124912380D01*
X35910357Y-124531428D02*
X36672261Y-124531428D01*
X38386547Y-123912380D02*
X37910357Y-123912380D01*
X37862738Y-124388571D01*
X37910357Y-124340952D01*
X38005595Y-124293333D01*
X38243690Y-124293333D01*
X38338928Y-124340952D01*
X38386547Y-124388571D01*
X38434166Y-124483809D01*
X38434166Y-124721904D01*
X38386547Y-124817142D01*
X38338928Y-124864761D01*
X38243690Y-124912380D01*
X38005595Y-124912380D01*
X37910357Y-124864761D01*
X37862738Y-124817142D01*
X39577023Y-124864761D02*
X39672261Y-124912380D01*
X39862738Y-124912380D01*
X39957976Y-124864761D01*
X40005595Y-124769523D01*
X40005595Y-124721904D01*
X39957976Y-124626666D01*
X39862738Y-124579047D01*
X39719880Y-124579047D01*
X39624642Y-124531428D01*
X39577023Y-124436190D01*
X39577023Y-124388571D01*
X39624642Y-124293333D01*
X39719880Y-124245714D01*
X39862738Y-124245714D01*
X39957976Y-124293333D01*
X40577023Y-124912380D02*
X40481785Y-124864761D01*
X40434166Y-124769523D01*
X40434166Y-123912380D01*
X41100833Y-124912380D02*
X41005595Y-124864761D01*
X40957976Y-124817142D01*
X40910357Y-124721904D01*
X40910357Y-124436190D01*
X40957976Y-124340952D01*
X41005595Y-124293333D01*
X41100833Y-124245714D01*
X41243690Y-124245714D01*
X41338928Y-124293333D01*
X41386547Y-124340952D01*
X41434166Y-124436190D01*
X41434166Y-124721904D01*
X41386547Y-124817142D01*
X41338928Y-124864761D01*
X41243690Y-124912380D01*
X41100833Y-124912380D01*
X41719880Y-124245714D02*
X42100833Y-124245714D01*
X41862738Y-123912380D02*
X41862738Y-124769523D01*
X41910357Y-124864761D01*
X42005595Y-124912380D01*
X42100833Y-124912380D01*
X43196071Y-124531428D02*
X43957976Y-124531428D01*
X45767500Y-124912380D02*
X45434166Y-124436190D01*
X45196071Y-124912380D02*
X45196071Y-123912380D01*
X45577023Y-123912380D01*
X45672261Y-123960000D01*
X45719880Y-124007619D01*
X45767500Y-124102857D01*
X45767500Y-124245714D01*
X45719880Y-124340952D01*
X45672261Y-124388571D01*
X45577023Y-124436190D01*
X45196071Y-124436190D01*
X46577023Y-124864761D02*
X46481785Y-124912380D01*
X46291309Y-124912380D01*
X46196071Y-124864761D01*
X46148452Y-124769523D01*
X46148452Y-124388571D01*
X46196071Y-124293333D01*
X46291309Y-124245714D01*
X46481785Y-124245714D01*
X46577023Y-124293333D01*
X46624642Y-124388571D01*
X46624642Y-124483809D01*
X46148452Y-124579047D01*
X46957976Y-124245714D02*
X47196071Y-124912380D01*
X47434166Y-124245714D01*
X47815119Y-124912380D02*
X47815119Y-124245714D01*
X47815119Y-123912380D02*
X47767500Y-123960000D01*
X47815119Y-124007619D01*
X47862738Y-123960000D01*
X47815119Y-123912380D01*
X47815119Y-124007619D01*
X48243690Y-124864761D02*
X48338928Y-124912380D01*
X48529404Y-124912380D01*
X48624642Y-124864761D01*
X48672261Y-124769523D01*
X48672261Y-124721904D01*
X48624642Y-124626666D01*
X48529404Y-124579047D01*
X48386547Y-124579047D01*
X48291309Y-124531428D01*
X48243690Y-124436190D01*
X48243690Y-124388571D01*
X48291309Y-124293333D01*
X48386547Y-124245714D01*
X48529404Y-124245714D01*
X48624642Y-124293333D01*
X49100833Y-124912380D02*
X49100833Y-124245714D01*
X49100833Y-123912380D02*
X49053214Y-123960000D01*
X49100833Y-124007619D01*
X49148452Y-123960000D01*
X49100833Y-123912380D01*
X49100833Y-124007619D01*
X49719880Y-124912380D02*
X49624642Y-124864761D01*
X49577023Y-124817142D01*
X49529404Y-124721904D01*
X49529404Y-124436190D01*
X49577023Y-124340952D01*
X49624642Y-124293333D01*
X49719880Y-124245714D01*
X49862738Y-124245714D01*
X49957976Y-124293333D01*
X50005595Y-124340952D01*
X50053214Y-124436190D01*
X50053214Y-124721904D01*
X50005595Y-124817142D01*
X49957976Y-124864761D01*
X49862738Y-124912380D01*
X49719880Y-124912380D01*
X50481785Y-124245714D02*
X50481785Y-124912380D01*
X50481785Y-124340952D02*
X50529404Y-124293333D01*
X50624642Y-124245714D01*
X50767500Y-124245714D01*
X50862738Y-124293333D01*
X50910357Y-124388571D01*
X50910357Y-124912380D01*
X52338928Y-123912380D02*
X52434166Y-123912380D01*
X52529404Y-123960000D01*
X52577023Y-124007619D01*
X52624642Y-124102857D01*
X52672261Y-124293333D01*
X52672261Y-124531428D01*
X52624642Y-124721904D01*
X52577023Y-124817142D01*
X52529404Y-124864761D01*
X52434166Y-124912380D01*
X52338928Y-124912380D01*
X52243690Y-124864761D01*
X52196071Y-124817142D01*
X52148452Y-124721904D01*
X52100833Y-124531428D01*
X52100833Y-124293333D01*
X52148452Y-124102857D01*
X52196071Y-124007619D01*
X52243690Y-123960000D01*
X52338928Y-123912380D01*
D11*
%TO.C,C1*%
X38450000Y-71769000D02*
X38450000Y-70511000D01*
X40290000Y-71769000D02*
X40290000Y-70511000D01*
%TO.C,C2*%
X65690000Y-71769000D02*
X65690000Y-70511000D01*
X63850000Y-71769000D02*
X63850000Y-70511000D01*
%TO.C,C3*%
X89250000Y-71769000D02*
X89250000Y-70511000D01*
X91090000Y-71769000D02*
X91090000Y-70511000D01*
%TO.C,C4*%
X116490000Y-71769000D02*
X116490000Y-70511000D01*
X114650000Y-71769000D02*
X114650000Y-70511000D01*
%TO.C,C5*%
X140050000Y-71769000D02*
X140050000Y-70511000D01*
X141890000Y-71769000D02*
X141890000Y-70511000D01*
%TO.C,C6*%
X139510000Y-35560000D02*
G75*
G03*
X139510000Y-35560000I-2620000J0D01*
G01*
X136890000Y-36600000D02*
X136890000Y-38140000D01*
X136890000Y-32980000D02*
X136890000Y-34520000D01*
X136930000Y-36600000D02*
X136930000Y-38140000D01*
X136930000Y-32980000D02*
X136930000Y-34520000D01*
X136970000Y-32981000D02*
X136970000Y-34520000D01*
X136970000Y-36600000D02*
X136970000Y-38139000D01*
X137010000Y-32982000D02*
X137010000Y-34520000D01*
X137010000Y-36600000D02*
X137010000Y-38138000D01*
X137050000Y-32984000D02*
X137050000Y-34520000D01*
X137050000Y-36600000D02*
X137050000Y-38136000D01*
X137090000Y-32987000D02*
X137090000Y-34520000D01*
X137090000Y-36600000D02*
X137090000Y-38133000D01*
X137130000Y-32991000D02*
X137130000Y-34520000D01*
X137130000Y-36600000D02*
X137130000Y-38129000D01*
X137170000Y-32995000D02*
X137170000Y-34520000D01*
X137170000Y-36600000D02*
X137170000Y-38125000D01*
X137210000Y-32999000D02*
X137210000Y-34520000D01*
X137210000Y-36600000D02*
X137210000Y-38121000D01*
X137250000Y-33004000D02*
X137250000Y-34520000D01*
X137250000Y-36600000D02*
X137250000Y-38116000D01*
X137290000Y-33010000D02*
X137290000Y-34520000D01*
X137290000Y-36600000D02*
X137290000Y-38110000D01*
X137330000Y-33017000D02*
X137330000Y-34520000D01*
X137330000Y-36600000D02*
X137330000Y-38103000D01*
X137370000Y-33024000D02*
X137370000Y-34520000D01*
X137370000Y-36600000D02*
X137370000Y-38096000D01*
X137410000Y-33032000D02*
X137410000Y-34520000D01*
X137410000Y-36600000D02*
X137410000Y-38088000D01*
X137450000Y-33040000D02*
X137450000Y-34520000D01*
X137450000Y-36600000D02*
X137450000Y-38080000D01*
X137490000Y-33049000D02*
X137490000Y-34520000D01*
X137490000Y-36600000D02*
X137490000Y-38071000D01*
X137530000Y-33059000D02*
X137530000Y-34520000D01*
X137530000Y-36600000D02*
X137530000Y-38061000D01*
X137570000Y-33069000D02*
X137570000Y-34520000D01*
X137570000Y-36600000D02*
X137570000Y-38051000D01*
X137611000Y-33080000D02*
X137611000Y-34520000D01*
X137611000Y-36600000D02*
X137611000Y-38040000D01*
X137651000Y-33092000D02*
X137651000Y-34520000D01*
X137651000Y-36600000D02*
X137651000Y-38028000D01*
X137691000Y-33105000D02*
X137691000Y-34520000D01*
X137691000Y-36600000D02*
X137691000Y-38015000D01*
X137731000Y-33118000D02*
X137731000Y-34520000D01*
X137731000Y-36600000D02*
X137731000Y-38002000D01*
X137771000Y-33132000D02*
X137771000Y-34520000D01*
X137771000Y-36600000D02*
X137771000Y-37988000D01*
X137811000Y-33146000D02*
X137811000Y-34520000D01*
X137811000Y-36600000D02*
X137811000Y-37974000D01*
X137851000Y-33162000D02*
X137851000Y-34520000D01*
X137851000Y-36600000D02*
X137851000Y-37958000D01*
X137891000Y-33178000D02*
X137891000Y-34520000D01*
X137891000Y-36600000D02*
X137891000Y-37942000D01*
X137931000Y-33195000D02*
X137931000Y-34520000D01*
X137931000Y-36600000D02*
X137931000Y-37925000D01*
X137971000Y-33212000D02*
X137971000Y-34520000D01*
X137971000Y-36600000D02*
X137971000Y-37908000D01*
X138011000Y-33231000D02*
X138011000Y-34520000D01*
X138011000Y-36600000D02*
X138011000Y-37889000D01*
X138051000Y-33250000D02*
X138051000Y-34520000D01*
X138051000Y-36600000D02*
X138051000Y-37870000D01*
X138091000Y-33270000D02*
X138091000Y-34520000D01*
X138091000Y-36600000D02*
X138091000Y-37850000D01*
X138131000Y-33292000D02*
X138131000Y-34520000D01*
X138131000Y-36600000D02*
X138131000Y-37828000D01*
X138171000Y-33313000D02*
X138171000Y-34520000D01*
X138171000Y-36600000D02*
X138171000Y-37807000D01*
X138211000Y-33336000D02*
X138211000Y-34520000D01*
X138211000Y-36600000D02*
X138211000Y-37784000D01*
X138251000Y-33360000D02*
X138251000Y-34520000D01*
X138251000Y-36600000D02*
X138251000Y-37760000D01*
X138291000Y-33385000D02*
X138291000Y-34520000D01*
X138291000Y-36600000D02*
X138291000Y-37735000D01*
X138331000Y-33411000D02*
X138331000Y-34520000D01*
X138331000Y-36600000D02*
X138331000Y-37709000D01*
X138371000Y-33438000D02*
X138371000Y-34520000D01*
X138371000Y-36600000D02*
X138371000Y-37682000D01*
X138411000Y-33465000D02*
X138411000Y-34520000D01*
X138411000Y-36600000D02*
X138411000Y-37655000D01*
X138451000Y-33495000D02*
X138451000Y-34520000D01*
X138451000Y-36600000D02*
X138451000Y-37625000D01*
X138491000Y-33525000D02*
X138491000Y-34520000D01*
X138491000Y-36600000D02*
X138491000Y-37595000D01*
X138531000Y-33556000D02*
X138531000Y-34520000D01*
X138531000Y-36600000D02*
X138531000Y-37564000D01*
X138571000Y-33589000D02*
X138571000Y-34520000D01*
X138571000Y-36600000D02*
X138571000Y-37531000D01*
X138611000Y-33623000D02*
X138611000Y-34520000D01*
X138611000Y-36600000D02*
X138611000Y-37497000D01*
X138651000Y-33659000D02*
X138651000Y-34520000D01*
X138651000Y-36600000D02*
X138651000Y-37461000D01*
X138691000Y-33696000D02*
X138691000Y-34520000D01*
X138691000Y-36600000D02*
X138691000Y-37424000D01*
X138731000Y-33734000D02*
X138731000Y-34520000D01*
X138731000Y-36600000D02*
X138731000Y-37386000D01*
X138771000Y-33775000D02*
X138771000Y-34520000D01*
X138771000Y-36600000D02*
X138771000Y-37345000D01*
X138811000Y-33817000D02*
X138811000Y-34520000D01*
X138811000Y-36600000D02*
X138811000Y-37303000D01*
X138851000Y-33861000D02*
X138851000Y-34520000D01*
X138851000Y-36600000D02*
X138851000Y-37259000D01*
X138891000Y-33907000D02*
X138891000Y-34520000D01*
X138891000Y-36600000D02*
X138891000Y-37213000D01*
X138931000Y-33955000D02*
X138931000Y-37165000D01*
X138971000Y-34006000D02*
X138971000Y-37114000D01*
X139011000Y-34060000D02*
X139011000Y-37060000D01*
X139051000Y-34117000D02*
X139051000Y-37003000D01*
X139091000Y-34177000D02*
X139091000Y-36943000D01*
X139131000Y-34241000D02*
X139131000Y-36879000D01*
X139171000Y-34309000D02*
X139171000Y-36811000D01*
X139211000Y-34382000D02*
X139211000Y-36738000D01*
X139251000Y-34462000D02*
X139251000Y-36658000D01*
X139291000Y-34549000D02*
X139291000Y-36571000D01*
X139331000Y-34645000D02*
X139331000Y-36475000D01*
X139371000Y-34755000D02*
X139371000Y-36365000D01*
X139411000Y-34883000D02*
X139411000Y-36237000D01*
X139451000Y-35042000D02*
X139451000Y-36078000D01*
X139491000Y-35276000D02*
X139491000Y-35844000D01*
X134085225Y-34085000D02*
X134585225Y-34085000D01*
X134335225Y-33835000D02*
X134335225Y-34335000D01*
%TO.C,C7*%
X136511000Y-42830000D02*
X137769000Y-42830000D01*
X136511000Y-40990000D02*
X137769000Y-40990000D01*
%TO.C,Con1*%
X128270000Y-20260000D02*
X129600000Y-20260000D01*
X129600000Y-20260000D02*
X129600000Y-21590000D01*
X129600000Y-22860000D02*
X129600000Y-121980000D01*
X126940000Y-121980000D02*
X129600000Y-121980000D01*
X126940000Y-22860000D02*
X126940000Y-121980000D01*
X126940000Y-22860000D02*
X129600000Y-22860000D01*
%TO.C,Con2*%
X101540000Y-22860000D02*
X104200000Y-22860000D01*
X101540000Y-22860000D02*
X101540000Y-121980000D01*
X101540000Y-121980000D02*
X104200000Y-121980000D01*
X104200000Y-22860000D02*
X104200000Y-121980000D01*
X104200000Y-20260000D02*
X104200000Y-21590000D01*
X102870000Y-20260000D02*
X104200000Y-20260000D01*
%TO.C,Con3*%
X76140000Y-22860000D02*
X78800000Y-22860000D01*
X76140000Y-22860000D02*
X76140000Y-121980000D01*
X76140000Y-121980000D02*
X78800000Y-121980000D01*
X78800000Y-22860000D02*
X78800000Y-121980000D01*
X78800000Y-20260000D02*
X78800000Y-21590000D01*
X77470000Y-20260000D02*
X78800000Y-20260000D01*
%TO.C,Con4*%
X50740000Y-22860000D02*
X53400000Y-22860000D01*
X50740000Y-22860000D02*
X50740000Y-121980000D01*
X50740000Y-121980000D02*
X53400000Y-121980000D01*
X53400000Y-22860000D02*
X53400000Y-121980000D01*
X53400000Y-20260000D02*
X53400000Y-21590000D01*
X52070000Y-20260000D02*
X53400000Y-20260000D01*
%TO.C,Con5*%
X26670000Y-20260000D02*
X28000000Y-20260000D01*
X28000000Y-20260000D02*
X28000000Y-21590000D01*
X28000000Y-22860000D02*
X28000000Y-121980000D01*
X25340000Y-121980000D02*
X28000000Y-121980000D01*
X25340000Y-22860000D02*
X25340000Y-121980000D01*
X25340000Y-22860000D02*
X28000000Y-22860000D01*
%TO.C,D1*%
X140930000Y-101600000D02*
G75*
G03*
X140930000Y-101600000I-2500000J0D01*
G01*
X135870000Y-100055000D02*
X135870000Y-103145000D01*
X141420000Y-101600462D02*
G75*
G03*
X135870000Y-100055170I-2990000J462D01*
G01*
X141420000Y-101599538D02*
G75*
G02*
X135870000Y-103144830I-2990000J-462D01*
G01*
%TO.C,J1*%
X133520000Y-30420000D02*
X133520000Y-31470000D01*
X134570000Y-31470000D02*
X133520000Y-31470000D01*
X139620000Y-22070000D02*
X148420000Y-22070000D01*
X148420000Y-22070000D02*
X148420000Y-31270000D01*
X133720000Y-24770000D02*
X133720000Y-22070000D01*
X133720000Y-22070000D02*
X135620000Y-22070000D01*
X148420000Y-31270000D02*
X133720000Y-31270000D01*
X133720000Y-31270000D02*
X133720000Y-28670000D01*
%TO.C,R1*%
X134970000Y-88280000D02*
X136810000Y-88280000D01*
X136810000Y-88280000D02*
X136810000Y-84440000D01*
X136810000Y-84440000D02*
X134970000Y-84440000D01*
X134970000Y-84440000D02*
X134970000Y-88280000D01*
X135890000Y-89230000D02*
X135890000Y-88280000D01*
X135890000Y-83490000D02*
X135890000Y-84440000D01*
%TO.C,R2*%
X140970000Y-83490000D02*
X140970000Y-84440000D01*
X140970000Y-89230000D02*
X140970000Y-88280000D01*
X140050000Y-84440000D02*
X140050000Y-88280000D01*
X141890000Y-84440000D02*
X140050000Y-84440000D01*
X141890000Y-88280000D02*
X141890000Y-84440000D01*
X140050000Y-88280000D02*
X141890000Y-88280000D01*
%TO.C,SW1*%
X142240000Y-113030000D02*
X142240000Y-120650000D01*
X142240000Y-120650000D02*
X141940000Y-120650000D01*
X134620000Y-120650000D02*
X134620000Y-113030000D01*
X142240000Y-113030000D02*
X141940000Y-113030000D01*
X140000000Y-120650000D02*
X136860000Y-120650000D01*
X140000000Y-113030000D02*
X136860000Y-113030000D01*
X134920000Y-120650000D02*
X134620000Y-120650000D01*
X134920000Y-113030000D02*
X134620000Y-113030000D01*
X140970000Y-116840000D02*
G75*
G03*
X140970000Y-116840000I-2540000J0D01*
G01*
%TO.C,SW2*%
X139640000Y-58480000D02*
X142300000Y-58480000D01*
X139640000Y-55880000D02*
X139640000Y-58480000D01*
X142300000Y-55880000D02*
X142300000Y-58480000D01*
X139640000Y-55880000D02*
X142300000Y-55880000D01*
X139640000Y-54610000D02*
X139640000Y-53280000D01*
X139640000Y-53280000D02*
X140970000Y-53280000D01*
%TO.C,C1*%
D10*
X37677142Y-71306666D02*
X37724761Y-71354285D01*
X37772380Y-71497142D01*
X37772380Y-71592380D01*
X37724761Y-71735238D01*
X37629523Y-71830476D01*
X37534285Y-71878095D01*
X37343809Y-71925714D01*
X37200952Y-71925714D01*
X37010476Y-71878095D01*
X36915238Y-71830476D01*
X36820000Y-71735238D01*
X36772380Y-71592380D01*
X36772380Y-71497142D01*
X36820000Y-71354285D01*
X36867619Y-71306666D01*
X37772380Y-70354285D02*
X37772380Y-70925714D01*
X37772380Y-70640000D02*
X36772380Y-70640000D01*
X36915238Y-70735238D01*
X37010476Y-70830476D01*
X37058095Y-70925714D01*
%TO.C,C2*%
X63077142Y-71306666D02*
X63124761Y-71354285D01*
X63172380Y-71497142D01*
X63172380Y-71592380D01*
X63124761Y-71735238D01*
X63029523Y-71830476D01*
X62934285Y-71878095D01*
X62743809Y-71925714D01*
X62600952Y-71925714D01*
X62410476Y-71878095D01*
X62315238Y-71830476D01*
X62220000Y-71735238D01*
X62172380Y-71592380D01*
X62172380Y-71497142D01*
X62220000Y-71354285D01*
X62267619Y-71306666D01*
X62267619Y-70925714D02*
X62220000Y-70878095D01*
X62172380Y-70782857D01*
X62172380Y-70544761D01*
X62220000Y-70449523D01*
X62267619Y-70401904D01*
X62362857Y-70354285D01*
X62458095Y-70354285D01*
X62600952Y-70401904D01*
X63172380Y-70973333D01*
X63172380Y-70354285D01*
%TO.C,C3*%
X88477142Y-71306666D02*
X88524761Y-71354285D01*
X88572380Y-71497142D01*
X88572380Y-71592380D01*
X88524761Y-71735238D01*
X88429523Y-71830476D01*
X88334285Y-71878095D01*
X88143809Y-71925714D01*
X88000952Y-71925714D01*
X87810476Y-71878095D01*
X87715238Y-71830476D01*
X87620000Y-71735238D01*
X87572380Y-71592380D01*
X87572380Y-71497142D01*
X87620000Y-71354285D01*
X87667619Y-71306666D01*
X87572380Y-70973333D02*
X87572380Y-70354285D01*
X87953333Y-70687619D01*
X87953333Y-70544761D01*
X88000952Y-70449523D01*
X88048571Y-70401904D01*
X88143809Y-70354285D01*
X88381904Y-70354285D01*
X88477142Y-70401904D01*
X88524761Y-70449523D01*
X88572380Y-70544761D01*
X88572380Y-70830476D01*
X88524761Y-70925714D01*
X88477142Y-70973333D01*
%TO.C,C4*%
X113877142Y-71306666D02*
X113924761Y-71354285D01*
X113972380Y-71497142D01*
X113972380Y-71592380D01*
X113924761Y-71735238D01*
X113829523Y-71830476D01*
X113734285Y-71878095D01*
X113543809Y-71925714D01*
X113400952Y-71925714D01*
X113210476Y-71878095D01*
X113115238Y-71830476D01*
X113020000Y-71735238D01*
X112972380Y-71592380D01*
X112972380Y-71497142D01*
X113020000Y-71354285D01*
X113067619Y-71306666D01*
X113305714Y-70449523D02*
X113972380Y-70449523D01*
X112924761Y-70687619D02*
X113639047Y-70925714D01*
X113639047Y-70306666D01*
%TO.C,C5*%
X139277142Y-71306666D02*
X139324761Y-71354285D01*
X139372380Y-71497142D01*
X139372380Y-71592380D01*
X139324761Y-71735238D01*
X139229523Y-71830476D01*
X139134285Y-71878095D01*
X138943809Y-71925714D01*
X138800952Y-71925714D01*
X138610476Y-71878095D01*
X138515238Y-71830476D01*
X138420000Y-71735238D01*
X138372380Y-71592380D01*
X138372380Y-71497142D01*
X138420000Y-71354285D01*
X138467619Y-71306666D01*
X138372380Y-70401904D02*
X138372380Y-70878095D01*
X138848571Y-70925714D01*
X138800952Y-70878095D01*
X138753333Y-70782857D01*
X138753333Y-70544761D01*
X138800952Y-70449523D01*
X138848571Y-70401904D01*
X138943809Y-70354285D01*
X139181904Y-70354285D01*
X139277142Y-70401904D01*
X139324761Y-70449523D01*
X139372380Y-70544761D01*
X139372380Y-70782857D01*
X139324761Y-70878095D01*
X139277142Y-70925714D01*
%TO.C,C6*%
X136723333Y-32167142D02*
X136675714Y-32214761D01*
X136532857Y-32262380D01*
X136437619Y-32262380D01*
X136294761Y-32214761D01*
X136199523Y-32119523D01*
X136151904Y-32024285D01*
X136104285Y-31833809D01*
X136104285Y-31690952D01*
X136151904Y-31500476D01*
X136199523Y-31405238D01*
X136294761Y-31310000D01*
X136437619Y-31262380D01*
X136532857Y-31262380D01*
X136675714Y-31310000D01*
X136723333Y-31357619D01*
X137580476Y-31262380D02*
X137390000Y-31262380D01*
X137294761Y-31310000D01*
X137247142Y-31357619D01*
X137151904Y-31500476D01*
X137104285Y-31690952D01*
X137104285Y-32071904D01*
X137151904Y-32167142D01*
X137199523Y-32214761D01*
X137294761Y-32262380D01*
X137485238Y-32262380D01*
X137580476Y-32214761D01*
X137628095Y-32167142D01*
X137675714Y-32071904D01*
X137675714Y-31833809D01*
X137628095Y-31738571D01*
X137580476Y-31690952D01*
X137485238Y-31643333D01*
X137294761Y-31643333D01*
X137199523Y-31690952D01*
X137151904Y-31738571D01*
X137104285Y-31833809D01*
%TO.C,C7*%
X136973333Y-40217142D02*
X136925714Y-40264761D01*
X136782857Y-40312380D01*
X136687619Y-40312380D01*
X136544761Y-40264761D01*
X136449523Y-40169523D01*
X136401904Y-40074285D01*
X136354285Y-39883809D01*
X136354285Y-39740952D01*
X136401904Y-39550476D01*
X136449523Y-39455238D01*
X136544761Y-39360000D01*
X136687619Y-39312380D01*
X136782857Y-39312380D01*
X136925714Y-39360000D01*
X136973333Y-39407619D01*
X137306666Y-39312380D02*
X137973333Y-39312380D01*
X137544761Y-40312380D01*
%TO.C,Con1*%
X127198571Y-19177142D02*
X127150952Y-19224761D01*
X127008095Y-19272380D01*
X126912857Y-19272380D01*
X126770000Y-19224761D01*
X126674761Y-19129523D01*
X126627142Y-19034285D01*
X126579523Y-18843809D01*
X126579523Y-18700952D01*
X126627142Y-18510476D01*
X126674761Y-18415238D01*
X126770000Y-18320000D01*
X126912857Y-18272380D01*
X127008095Y-18272380D01*
X127150952Y-18320000D01*
X127198571Y-18367619D01*
X127770000Y-19272380D02*
X127674761Y-19224761D01*
X127627142Y-19177142D01*
X127579523Y-19081904D01*
X127579523Y-18796190D01*
X127627142Y-18700952D01*
X127674761Y-18653333D01*
X127770000Y-18605714D01*
X127912857Y-18605714D01*
X128008095Y-18653333D01*
X128055714Y-18700952D01*
X128103333Y-18796190D01*
X128103333Y-19081904D01*
X128055714Y-19177142D01*
X128008095Y-19224761D01*
X127912857Y-19272380D01*
X127770000Y-19272380D01*
X128531904Y-18605714D02*
X128531904Y-19272380D01*
X128531904Y-18700952D02*
X128579523Y-18653333D01*
X128674761Y-18605714D01*
X128817619Y-18605714D01*
X128912857Y-18653333D01*
X128960476Y-18748571D01*
X128960476Y-19272380D01*
X129960476Y-19272380D02*
X129389047Y-19272380D01*
X129674761Y-19272380D02*
X129674761Y-18272380D01*
X129579523Y-18415238D01*
X129484285Y-18510476D01*
X129389047Y-18558095D01*
%TO.C,Con2*%
X101798571Y-19177142D02*
X101750952Y-19224761D01*
X101608095Y-19272380D01*
X101512857Y-19272380D01*
X101370000Y-19224761D01*
X101274761Y-19129523D01*
X101227142Y-19034285D01*
X101179523Y-18843809D01*
X101179523Y-18700952D01*
X101227142Y-18510476D01*
X101274761Y-18415238D01*
X101370000Y-18320000D01*
X101512857Y-18272380D01*
X101608095Y-18272380D01*
X101750952Y-18320000D01*
X101798571Y-18367619D01*
X102370000Y-19272380D02*
X102274761Y-19224761D01*
X102227142Y-19177142D01*
X102179523Y-19081904D01*
X102179523Y-18796190D01*
X102227142Y-18700952D01*
X102274761Y-18653333D01*
X102370000Y-18605714D01*
X102512857Y-18605714D01*
X102608095Y-18653333D01*
X102655714Y-18700952D01*
X102703333Y-18796190D01*
X102703333Y-19081904D01*
X102655714Y-19177142D01*
X102608095Y-19224761D01*
X102512857Y-19272380D01*
X102370000Y-19272380D01*
X103131904Y-18605714D02*
X103131904Y-19272380D01*
X103131904Y-18700952D02*
X103179523Y-18653333D01*
X103274761Y-18605714D01*
X103417619Y-18605714D01*
X103512857Y-18653333D01*
X103560476Y-18748571D01*
X103560476Y-19272380D01*
X103989047Y-18367619D02*
X104036666Y-18320000D01*
X104131904Y-18272380D01*
X104370000Y-18272380D01*
X104465238Y-18320000D01*
X104512857Y-18367619D01*
X104560476Y-18462857D01*
X104560476Y-18558095D01*
X104512857Y-18700952D01*
X103941428Y-19272380D01*
X104560476Y-19272380D01*
%TO.C,Con3*%
X76398571Y-19177142D02*
X76350952Y-19224761D01*
X76208095Y-19272380D01*
X76112857Y-19272380D01*
X75970000Y-19224761D01*
X75874761Y-19129523D01*
X75827142Y-19034285D01*
X75779523Y-18843809D01*
X75779523Y-18700952D01*
X75827142Y-18510476D01*
X75874761Y-18415238D01*
X75970000Y-18320000D01*
X76112857Y-18272380D01*
X76208095Y-18272380D01*
X76350952Y-18320000D01*
X76398571Y-18367619D01*
X76970000Y-19272380D02*
X76874761Y-19224761D01*
X76827142Y-19177142D01*
X76779523Y-19081904D01*
X76779523Y-18796190D01*
X76827142Y-18700952D01*
X76874761Y-18653333D01*
X76970000Y-18605714D01*
X77112857Y-18605714D01*
X77208095Y-18653333D01*
X77255714Y-18700952D01*
X77303333Y-18796190D01*
X77303333Y-19081904D01*
X77255714Y-19177142D01*
X77208095Y-19224761D01*
X77112857Y-19272380D01*
X76970000Y-19272380D01*
X77731904Y-18605714D02*
X77731904Y-19272380D01*
X77731904Y-18700952D02*
X77779523Y-18653333D01*
X77874761Y-18605714D01*
X78017619Y-18605714D01*
X78112857Y-18653333D01*
X78160476Y-18748571D01*
X78160476Y-19272380D01*
X78541428Y-18272380D02*
X79160476Y-18272380D01*
X78827142Y-18653333D01*
X78970000Y-18653333D01*
X79065238Y-18700952D01*
X79112857Y-18748571D01*
X79160476Y-18843809D01*
X79160476Y-19081904D01*
X79112857Y-19177142D01*
X79065238Y-19224761D01*
X78970000Y-19272380D01*
X78684285Y-19272380D01*
X78589047Y-19224761D01*
X78541428Y-19177142D01*
%TO.C,Con4*%
X50998571Y-19177142D02*
X50950952Y-19224761D01*
X50808095Y-19272380D01*
X50712857Y-19272380D01*
X50570000Y-19224761D01*
X50474761Y-19129523D01*
X50427142Y-19034285D01*
X50379523Y-18843809D01*
X50379523Y-18700952D01*
X50427142Y-18510476D01*
X50474761Y-18415238D01*
X50570000Y-18320000D01*
X50712857Y-18272380D01*
X50808095Y-18272380D01*
X50950952Y-18320000D01*
X50998571Y-18367619D01*
X51570000Y-19272380D02*
X51474761Y-19224761D01*
X51427142Y-19177142D01*
X51379523Y-19081904D01*
X51379523Y-18796190D01*
X51427142Y-18700952D01*
X51474761Y-18653333D01*
X51570000Y-18605714D01*
X51712857Y-18605714D01*
X51808095Y-18653333D01*
X51855714Y-18700952D01*
X51903333Y-18796190D01*
X51903333Y-19081904D01*
X51855714Y-19177142D01*
X51808095Y-19224761D01*
X51712857Y-19272380D01*
X51570000Y-19272380D01*
X52331904Y-18605714D02*
X52331904Y-19272380D01*
X52331904Y-18700952D02*
X52379523Y-18653333D01*
X52474761Y-18605714D01*
X52617619Y-18605714D01*
X52712857Y-18653333D01*
X52760476Y-18748571D01*
X52760476Y-19272380D01*
X53665238Y-18605714D02*
X53665238Y-19272380D01*
X53427142Y-18224761D02*
X53189047Y-18939047D01*
X53808095Y-18939047D01*
%TO.C,Con5*%
X25598571Y-19177142D02*
X25550952Y-19224761D01*
X25408095Y-19272380D01*
X25312857Y-19272380D01*
X25170000Y-19224761D01*
X25074761Y-19129523D01*
X25027142Y-19034285D01*
X24979523Y-18843809D01*
X24979523Y-18700952D01*
X25027142Y-18510476D01*
X25074761Y-18415238D01*
X25170000Y-18320000D01*
X25312857Y-18272380D01*
X25408095Y-18272380D01*
X25550952Y-18320000D01*
X25598571Y-18367619D01*
X26170000Y-19272380D02*
X26074761Y-19224761D01*
X26027142Y-19177142D01*
X25979523Y-19081904D01*
X25979523Y-18796190D01*
X26027142Y-18700952D01*
X26074761Y-18653333D01*
X26170000Y-18605714D01*
X26312857Y-18605714D01*
X26408095Y-18653333D01*
X26455714Y-18700952D01*
X26503333Y-18796190D01*
X26503333Y-19081904D01*
X26455714Y-19177142D01*
X26408095Y-19224761D01*
X26312857Y-19272380D01*
X26170000Y-19272380D01*
X26931904Y-18605714D02*
X26931904Y-19272380D01*
X26931904Y-18700952D02*
X26979523Y-18653333D01*
X27074761Y-18605714D01*
X27217619Y-18605714D01*
X27312857Y-18653333D01*
X27360476Y-18748571D01*
X27360476Y-19272380D01*
X28312857Y-18272380D02*
X27836666Y-18272380D01*
X27789047Y-18748571D01*
X27836666Y-18700952D01*
X27931904Y-18653333D01*
X28170000Y-18653333D01*
X28265238Y-18700952D01*
X28312857Y-18748571D01*
X28360476Y-18843809D01*
X28360476Y-19081904D01*
X28312857Y-19177142D01*
X28265238Y-19224761D01*
X28170000Y-19272380D01*
X27931904Y-19272380D01*
X27836666Y-19224761D01*
X27789047Y-19177142D01*
%TO.C,D1*%
X137691904Y-98092380D02*
X137691904Y-97092380D01*
X137930000Y-97092380D01*
X138072857Y-97140000D01*
X138168095Y-97235238D01*
X138215714Y-97330476D01*
X138263333Y-97520952D01*
X138263333Y-97663809D01*
X138215714Y-97854285D01*
X138168095Y-97949523D01*
X138072857Y-98044761D01*
X137930000Y-98092380D01*
X137691904Y-98092380D01*
X139215714Y-98092380D02*
X138644285Y-98092380D01*
X138930000Y-98092380D02*
X138930000Y-97092380D01*
X138834761Y-97235238D01*
X138739523Y-97330476D01*
X138644285Y-97378095D01*
%TO.C,J1*%
X142736666Y-20372380D02*
X142736666Y-21086666D01*
X142689047Y-21229523D01*
X142593809Y-21324761D01*
X142450952Y-21372380D01*
X142355714Y-21372380D01*
X143736666Y-21372380D02*
X143165238Y-21372380D01*
X143450952Y-21372380D02*
X143450952Y-20372380D01*
X143355714Y-20515238D01*
X143260476Y-20610476D01*
X143165238Y-20658095D01*
%TO.C,R1*%
X134422380Y-86526666D02*
X133946190Y-86860000D01*
X134422380Y-87098095D02*
X133422380Y-87098095D01*
X133422380Y-86717142D01*
X133470000Y-86621904D01*
X133517619Y-86574285D01*
X133612857Y-86526666D01*
X133755714Y-86526666D01*
X133850952Y-86574285D01*
X133898571Y-86621904D01*
X133946190Y-86717142D01*
X133946190Y-87098095D01*
X134422380Y-85574285D02*
X134422380Y-86145714D01*
X134422380Y-85860000D02*
X133422380Y-85860000D01*
X133565238Y-85955238D01*
X133660476Y-86050476D01*
X133708095Y-86145714D01*
%TO.C,R2*%
X139502380Y-86526666D02*
X139026190Y-86860000D01*
X139502380Y-87098095D02*
X138502380Y-87098095D01*
X138502380Y-86717142D01*
X138550000Y-86621904D01*
X138597619Y-86574285D01*
X138692857Y-86526666D01*
X138835714Y-86526666D01*
X138930952Y-86574285D01*
X138978571Y-86621904D01*
X139026190Y-86717142D01*
X139026190Y-87098095D01*
X138597619Y-86145714D02*
X138550000Y-86098095D01*
X138502380Y-86002857D01*
X138502380Y-85764761D01*
X138550000Y-85669523D01*
X138597619Y-85621904D01*
X138692857Y-85574285D01*
X138788095Y-85574285D01*
X138930952Y-85621904D01*
X139502380Y-86193333D01*
X139502380Y-85574285D01*
%TO.C,SW1*%
X143454761Y-118173333D02*
X143502380Y-118030476D01*
X143502380Y-117792380D01*
X143454761Y-117697142D01*
X143407142Y-117649523D01*
X143311904Y-117601904D01*
X143216666Y-117601904D01*
X143121428Y-117649523D01*
X143073809Y-117697142D01*
X143026190Y-117792380D01*
X142978571Y-117982857D01*
X142930952Y-118078095D01*
X142883333Y-118125714D01*
X142788095Y-118173333D01*
X142692857Y-118173333D01*
X142597619Y-118125714D01*
X142550000Y-118078095D01*
X142502380Y-117982857D01*
X142502380Y-117744761D01*
X142550000Y-117601904D01*
X142502380Y-117268571D02*
X143502380Y-117030476D01*
X142788095Y-116840000D01*
X143502380Y-116649523D01*
X142502380Y-116411428D01*
X143502380Y-115506666D02*
X143502380Y-116078095D01*
X143502380Y-115792380D02*
X142502380Y-115792380D01*
X142645238Y-115887619D01*
X142740476Y-115982857D01*
X142788095Y-116078095D01*
%TO.C,SW2*%
X139636666Y-52684761D02*
X139779523Y-52732380D01*
X140017619Y-52732380D01*
X140112857Y-52684761D01*
X140160476Y-52637142D01*
X140208095Y-52541904D01*
X140208095Y-52446666D01*
X140160476Y-52351428D01*
X140112857Y-52303809D01*
X140017619Y-52256190D01*
X139827142Y-52208571D01*
X139731904Y-52160952D01*
X139684285Y-52113333D01*
X139636666Y-52018095D01*
X139636666Y-51922857D01*
X139684285Y-51827619D01*
X139731904Y-51780000D01*
X139827142Y-51732380D01*
X140065238Y-51732380D01*
X140208095Y-51780000D01*
X140541428Y-51732380D02*
X140779523Y-52732380D01*
X140970000Y-52018095D01*
X141160476Y-52732380D01*
X141398571Y-51732380D01*
X141731904Y-51827619D02*
X141779523Y-51780000D01*
X141874761Y-51732380D01*
X142112857Y-51732380D01*
X142208095Y-51780000D01*
X142255714Y-51827619D01*
X142303333Y-51922857D01*
X142303333Y-52018095D01*
X142255714Y-52160952D01*
X141684285Y-52732380D01*
X142303333Y-52732380D01*
%TD*%
M02*
