%TF.GenerationSoftware,KiCad,Pcbnew,5.1.9+dfsg1-1*%
%TF.CreationDate,2021-08-13T01:52:04-07:00*%
%TF.ProjectId,Bus2021A_5Slot,42757332-3032-4314-915f-35536c6f742e,0*%
%TF.SameCoordinates,Original*%
%TF.FileFunction,Copper,L2,Bot*%
%TF.FilePolarity,Positive*%
%FSLAX46Y46*%
G04 Gerber Fmt 4.6, Leading zero omitted, Abs format (unit mm)*
G04 Created by KiCad (PCBNEW 5.1.9+dfsg1-1) date 2021-08-13 01:52:04*
%MOMM*%
%LPD*%
G01*
G04 APERTURE LIST*
%TA.AperFunction,ComponentPad*%
%ADD10C,1.600000*%
%TD*%
%TA.AperFunction,ComponentPad*%
%ADD11R,1.600000X1.600000*%
%TD*%
%TA.AperFunction,ComponentPad*%
%ADD12O,1.700000X1.700000*%
%TD*%
%TA.AperFunction,ComponentPad*%
%ADD13R,1.700000X1.700000*%
%TD*%
%TA.AperFunction,ComponentPad*%
%ADD14R,1.800000X1.800000*%
%TD*%
%TA.AperFunction,ComponentPad*%
%ADD15C,1.800000*%
%TD*%
%TA.AperFunction,ComponentPad*%
%ADD16R,3.500000X3.500000*%
%TD*%
%TA.AperFunction,ComponentPad*%
%ADD17C,1.400000*%
%TD*%
%TA.AperFunction,ComponentPad*%
%ADD18O,1.400000X1.400000*%
%TD*%
%TA.AperFunction,ComponentPad*%
%ADD19C,1.397000*%
%TD*%
%TA.AperFunction,Conductor*%
%ADD20C,0.250000*%
%TD*%
G04 APERTURE END LIST*
D10*
%TO.P,C1,1*%
%TO.N,+5v*%
X39370000Y-72390000D03*
%TO.P,C1,2*%
%TO.N,GND*%
X39370000Y-69890000D03*
%TD*%
%TO.P,C2,2*%
%TO.N,GND*%
X64770000Y-69890000D03*
%TO.P,C2,1*%
%TO.N,+5v*%
X64770000Y-72390000D03*
%TD*%
%TO.P,C3,1*%
%TO.N,+5v*%
X90170000Y-72390000D03*
%TO.P,C3,2*%
%TO.N,GND*%
X90170000Y-69890000D03*
%TD*%
%TO.P,C4,2*%
%TO.N,GND*%
X115570000Y-69890000D03*
%TO.P,C4,1*%
%TO.N,+5v*%
X115570000Y-72390000D03*
%TD*%
%TO.P,C5,1*%
%TO.N,+5v*%
X140970000Y-72390000D03*
%TO.P,C5,2*%
%TO.N,GND*%
X140970000Y-69890000D03*
%TD*%
D11*
%TO.P,C6,1*%
%TO.N,Net-(C6-Pad1)*%
X135890000Y-35560000D03*
D10*
%TO.P,C6,2*%
%TO.N,GND*%
X137890000Y-35560000D03*
%TD*%
%TO.P,C7,2*%
%TO.N,GND*%
X138390000Y-41910000D03*
%TO.P,C7,1*%
%TO.N,Net-(C6-Pad1)*%
X135890000Y-41910000D03*
%TD*%
D12*
%TO.P,Con1,40*%
%TO.N,Net-(Con1-Pad40)*%
X128270000Y-120650000D03*
%TO.P,Con1,39*%
%TO.N,Net-(Con1-Pad39)*%
X128270000Y-118110000D03*
%TO.P,Con1,38*%
%TO.N,Net-(Con1-Pad38)*%
X128270000Y-115570000D03*
%TO.P,Con1,37*%
%TO.N,Net-(Con1-Pad37)*%
X128270000Y-113030000D03*
%TO.P,Con1,36*%
%TO.N,Net-(Con1-Pad36)*%
X128270000Y-110490000D03*
%TO.P,Con1,35*%
%TO.N,Net-(Con1-Pad35)*%
X128270000Y-107950000D03*
%TO.P,Con1,34*%
%TO.N,Net-(Con1-Pad34)*%
X128270000Y-105410000D03*
%TO.P,Con1,33*%
%TO.N,Net-(Con1-Pad33)*%
X128270000Y-102870000D03*
%TO.P,Con1,32*%
%TO.N,Net-(Con1-Pad32)*%
X128270000Y-100330000D03*
%TO.P,Con1,31*%
%TO.N,Net-(Con1-Pad31)*%
X128270000Y-97790000D03*
%TO.P,Con1,30*%
%TO.N,Net-(Con1-Pad30)*%
X128270000Y-95250000D03*
%TO.P,Con1,29*%
%TO.N,Net-(Con1-Pad29)*%
X128270000Y-92710000D03*
%TO.P,Con1,28*%
%TO.N,Net-(Con1-Pad28)*%
X128270000Y-90170000D03*
%TO.P,Con1,27*%
%TO.N,Net-(Con1-Pad27)*%
X128270000Y-87630000D03*
%TO.P,Con1,26*%
%TO.N,Net-(Con1-Pad26)*%
X128270000Y-85090000D03*
%TO.P,Con1,25*%
%TO.N,Net-(Con1-Pad25)*%
X128270000Y-82550000D03*
%TO.P,Con1,24*%
%TO.N,Net-(Con1-Pad24)*%
X128270000Y-80010000D03*
%TO.P,Con1,23*%
%TO.N,RESB*%
X128270000Y-77470000D03*
%TO.P,Con1,22*%
%TO.N,Net-(Con1-Pad22)*%
X128270000Y-74930000D03*
%TO.P,Con1,21*%
%TO.N,+5v*%
X128270000Y-72390000D03*
%TO.P,Con1,20*%
%TO.N,GND*%
X128270000Y-69850000D03*
%TO.P,Con1,19*%
%TO.N,Net-(Con1-Pad19)*%
X128270000Y-67310000D03*
%TO.P,Con1,18*%
%TO.N,Net-(Con1-Pad18)*%
X128270000Y-64770000D03*
%TO.P,Con1,17*%
%TO.N,Net-(Con1-Pad17)*%
X128270000Y-62230000D03*
%TO.P,Con1,16*%
%TO.N,Net-(Con1-Pad16)*%
X128270000Y-59690000D03*
%TO.P,Con1,15*%
%TO.N,Net-(Con1-Pad15)*%
X128270000Y-57150000D03*
%TO.P,Con1,14*%
%TO.N,Net-(Con1-Pad14)*%
X128270000Y-54610000D03*
%TO.P,Con1,13*%
%TO.N,Net-(Con1-Pad13)*%
X128270000Y-52070000D03*
%TO.P,Con1,12*%
%TO.N,Net-(Con1-Pad12)*%
X128270000Y-49530000D03*
%TO.P,Con1,11*%
%TO.N,Net-(Con1-Pad11)*%
X128270000Y-46990000D03*
%TO.P,Con1,10*%
%TO.N,Net-(Con1-Pad10)*%
X128270000Y-44450000D03*
%TO.P,Con1,9*%
%TO.N,Net-(Con1-Pad9)*%
X128270000Y-41910000D03*
%TO.P,Con1,8*%
%TO.N,Net-(Con1-Pad8)*%
X128270000Y-39370000D03*
%TO.P,Con1,7*%
%TO.N,Net-(Con1-Pad7)*%
X128270000Y-36830000D03*
%TO.P,Con1,6*%
%TO.N,Net-(Con1-Pad6)*%
X128270000Y-34290000D03*
%TO.P,Con1,5*%
%TO.N,Net-(Con1-Pad5)*%
X128270000Y-31750000D03*
%TO.P,Con1,4*%
%TO.N,Net-(Con1-Pad4)*%
X128270000Y-29210000D03*
%TO.P,Con1,3*%
%TO.N,Net-(Con1-Pad3)*%
X128270000Y-26670000D03*
%TO.P,Con1,2*%
%TO.N,Net-(Con1-Pad2)*%
X128270000Y-24130000D03*
D13*
%TO.P,Con1,1*%
%TO.N,Net-(Con1-Pad1)*%
X128270000Y-21590000D03*
%TD*%
%TO.P,Con2,1*%
%TO.N,Net-(Con1-Pad1)*%
X102870000Y-21590000D03*
D12*
%TO.P,Con2,2*%
%TO.N,Net-(Con1-Pad2)*%
X102870000Y-24130000D03*
%TO.P,Con2,3*%
%TO.N,Net-(Con1-Pad3)*%
X102870000Y-26670000D03*
%TO.P,Con2,4*%
%TO.N,Net-(Con1-Pad4)*%
X102870000Y-29210000D03*
%TO.P,Con2,5*%
%TO.N,Net-(Con1-Pad5)*%
X102870000Y-31750000D03*
%TO.P,Con2,6*%
%TO.N,Net-(Con1-Pad6)*%
X102870000Y-34290000D03*
%TO.P,Con2,7*%
%TO.N,Net-(Con1-Pad7)*%
X102870000Y-36830000D03*
%TO.P,Con2,8*%
%TO.N,Net-(Con1-Pad8)*%
X102870000Y-39370000D03*
%TO.P,Con2,9*%
%TO.N,Net-(Con1-Pad9)*%
X102870000Y-41910000D03*
%TO.P,Con2,10*%
%TO.N,Net-(Con1-Pad10)*%
X102870000Y-44450000D03*
%TO.P,Con2,11*%
%TO.N,Net-(Con1-Pad11)*%
X102870000Y-46990000D03*
%TO.P,Con2,12*%
%TO.N,Net-(Con1-Pad12)*%
X102870000Y-49530000D03*
%TO.P,Con2,13*%
%TO.N,Net-(Con1-Pad13)*%
X102870000Y-52070000D03*
%TO.P,Con2,14*%
%TO.N,Net-(Con1-Pad14)*%
X102870000Y-54610000D03*
%TO.P,Con2,15*%
%TO.N,Net-(Con1-Pad15)*%
X102870000Y-57150000D03*
%TO.P,Con2,16*%
%TO.N,Net-(Con1-Pad16)*%
X102870000Y-59690000D03*
%TO.P,Con2,17*%
%TO.N,Net-(Con1-Pad17)*%
X102870000Y-62230000D03*
%TO.P,Con2,18*%
%TO.N,Net-(Con1-Pad18)*%
X102870000Y-64770000D03*
%TO.P,Con2,19*%
%TO.N,Net-(Con1-Pad19)*%
X102870000Y-67310000D03*
%TO.P,Con2,20*%
%TO.N,GND*%
X102870000Y-69850000D03*
%TO.P,Con2,21*%
%TO.N,+5v*%
X102870000Y-72390000D03*
%TO.P,Con2,22*%
%TO.N,Net-(Con1-Pad22)*%
X102870000Y-74930000D03*
%TO.P,Con2,23*%
%TO.N,RESB*%
X102870000Y-77470000D03*
%TO.P,Con2,24*%
%TO.N,Net-(Con1-Pad24)*%
X102870000Y-80010000D03*
%TO.P,Con2,25*%
%TO.N,Net-(Con1-Pad25)*%
X102870000Y-82550000D03*
%TO.P,Con2,26*%
%TO.N,Net-(Con1-Pad26)*%
X102870000Y-85090000D03*
%TO.P,Con2,27*%
%TO.N,Net-(Con1-Pad27)*%
X102870000Y-87630000D03*
%TO.P,Con2,28*%
%TO.N,Net-(Con1-Pad28)*%
X102870000Y-90170000D03*
%TO.P,Con2,29*%
%TO.N,Net-(Con1-Pad29)*%
X102870000Y-92710000D03*
%TO.P,Con2,30*%
%TO.N,Net-(Con1-Pad30)*%
X102870000Y-95250000D03*
%TO.P,Con2,31*%
%TO.N,Net-(Con1-Pad31)*%
X102870000Y-97790000D03*
%TO.P,Con2,32*%
%TO.N,Net-(Con1-Pad32)*%
X102870000Y-100330000D03*
%TO.P,Con2,33*%
%TO.N,Net-(Con1-Pad33)*%
X102870000Y-102870000D03*
%TO.P,Con2,34*%
%TO.N,Net-(Con1-Pad34)*%
X102870000Y-105410000D03*
%TO.P,Con2,35*%
%TO.N,Net-(Con1-Pad35)*%
X102870000Y-107950000D03*
%TO.P,Con2,36*%
%TO.N,Net-(Con1-Pad36)*%
X102870000Y-110490000D03*
%TO.P,Con2,37*%
%TO.N,Net-(Con1-Pad37)*%
X102870000Y-113030000D03*
%TO.P,Con2,38*%
%TO.N,Net-(Con1-Pad38)*%
X102870000Y-115570000D03*
%TO.P,Con2,39*%
%TO.N,Net-(Con1-Pad39)*%
X102870000Y-118110000D03*
%TO.P,Con2,40*%
%TO.N,Net-(Con1-Pad40)*%
X102870000Y-120650000D03*
%TD*%
D13*
%TO.P,Con3,1*%
%TO.N,Net-(Con1-Pad1)*%
X77470000Y-21590000D03*
D12*
%TO.P,Con3,2*%
%TO.N,Net-(Con1-Pad2)*%
X77470000Y-24130000D03*
%TO.P,Con3,3*%
%TO.N,Net-(Con1-Pad3)*%
X77470000Y-26670000D03*
%TO.P,Con3,4*%
%TO.N,Net-(Con1-Pad4)*%
X77470000Y-29210000D03*
%TO.P,Con3,5*%
%TO.N,Net-(Con1-Pad5)*%
X77470000Y-31750000D03*
%TO.P,Con3,6*%
%TO.N,Net-(Con1-Pad6)*%
X77470000Y-34290000D03*
%TO.P,Con3,7*%
%TO.N,Net-(Con1-Pad7)*%
X77470000Y-36830000D03*
%TO.P,Con3,8*%
%TO.N,Net-(Con1-Pad8)*%
X77470000Y-39370000D03*
%TO.P,Con3,9*%
%TO.N,Net-(Con1-Pad9)*%
X77470000Y-41910000D03*
%TO.P,Con3,10*%
%TO.N,Net-(Con1-Pad10)*%
X77470000Y-44450000D03*
%TO.P,Con3,11*%
%TO.N,Net-(Con1-Pad11)*%
X77470000Y-46990000D03*
%TO.P,Con3,12*%
%TO.N,Net-(Con1-Pad12)*%
X77470000Y-49530000D03*
%TO.P,Con3,13*%
%TO.N,Net-(Con1-Pad13)*%
X77470000Y-52070000D03*
%TO.P,Con3,14*%
%TO.N,Net-(Con1-Pad14)*%
X77470000Y-54610000D03*
%TO.P,Con3,15*%
%TO.N,Net-(Con1-Pad15)*%
X77470000Y-57150000D03*
%TO.P,Con3,16*%
%TO.N,Net-(Con1-Pad16)*%
X77470000Y-59690000D03*
%TO.P,Con3,17*%
%TO.N,Net-(Con1-Pad17)*%
X77470000Y-62230000D03*
%TO.P,Con3,18*%
%TO.N,Net-(Con1-Pad18)*%
X77470000Y-64770000D03*
%TO.P,Con3,19*%
%TO.N,Net-(Con1-Pad19)*%
X77470000Y-67310000D03*
%TO.P,Con3,20*%
%TO.N,GND*%
X77470000Y-69850000D03*
%TO.P,Con3,21*%
%TO.N,+5v*%
X77470000Y-72390000D03*
%TO.P,Con3,22*%
%TO.N,Net-(Con1-Pad22)*%
X77470000Y-74930000D03*
%TO.P,Con3,23*%
%TO.N,RESB*%
X77470000Y-77470000D03*
%TO.P,Con3,24*%
%TO.N,Net-(Con1-Pad24)*%
X77470000Y-80010000D03*
%TO.P,Con3,25*%
%TO.N,Net-(Con1-Pad25)*%
X77470000Y-82550000D03*
%TO.P,Con3,26*%
%TO.N,Net-(Con1-Pad26)*%
X77470000Y-85090000D03*
%TO.P,Con3,27*%
%TO.N,Net-(Con1-Pad27)*%
X77470000Y-87630000D03*
%TO.P,Con3,28*%
%TO.N,Net-(Con1-Pad28)*%
X77470000Y-90170000D03*
%TO.P,Con3,29*%
%TO.N,Net-(Con1-Pad29)*%
X77470000Y-92710000D03*
%TO.P,Con3,30*%
%TO.N,Net-(Con1-Pad30)*%
X77470000Y-95250000D03*
%TO.P,Con3,31*%
%TO.N,Net-(Con1-Pad31)*%
X77470000Y-97790000D03*
%TO.P,Con3,32*%
%TO.N,Net-(Con1-Pad32)*%
X77470000Y-100330000D03*
%TO.P,Con3,33*%
%TO.N,Net-(Con1-Pad33)*%
X77470000Y-102870000D03*
%TO.P,Con3,34*%
%TO.N,Net-(Con1-Pad34)*%
X77470000Y-105410000D03*
%TO.P,Con3,35*%
%TO.N,Net-(Con1-Pad35)*%
X77470000Y-107950000D03*
%TO.P,Con3,36*%
%TO.N,Net-(Con1-Pad36)*%
X77470000Y-110490000D03*
%TO.P,Con3,37*%
%TO.N,Net-(Con1-Pad37)*%
X77470000Y-113030000D03*
%TO.P,Con3,38*%
%TO.N,Net-(Con1-Pad38)*%
X77470000Y-115570000D03*
%TO.P,Con3,39*%
%TO.N,Net-(Con1-Pad39)*%
X77470000Y-118110000D03*
%TO.P,Con3,40*%
%TO.N,Net-(Con1-Pad40)*%
X77470000Y-120650000D03*
%TD*%
D13*
%TO.P,Con4,1*%
%TO.N,Net-(Con1-Pad1)*%
X52070000Y-21590000D03*
D12*
%TO.P,Con4,2*%
%TO.N,Net-(Con1-Pad2)*%
X52070000Y-24130000D03*
%TO.P,Con4,3*%
%TO.N,Net-(Con1-Pad3)*%
X52070000Y-26670000D03*
%TO.P,Con4,4*%
%TO.N,Net-(Con1-Pad4)*%
X52070000Y-29210000D03*
%TO.P,Con4,5*%
%TO.N,Net-(Con1-Pad5)*%
X52070000Y-31750000D03*
%TO.P,Con4,6*%
%TO.N,Net-(Con1-Pad6)*%
X52070000Y-34290000D03*
%TO.P,Con4,7*%
%TO.N,Net-(Con1-Pad7)*%
X52070000Y-36830000D03*
%TO.P,Con4,8*%
%TO.N,Net-(Con1-Pad8)*%
X52070000Y-39370000D03*
%TO.P,Con4,9*%
%TO.N,Net-(Con1-Pad9)*%
X52070000Y-41910000D03*
%TO.P,Con4,10*%
%TO.N,Net-(Con1-Pad10)*%
X52070000Y-44450000D03*
%TO.P,Con4,11*%
%TO.N,Net-(Con1-Pad11)*%
X52070000Y-46990000D03*
%TO.P,Con4,12*%
%TO.N,Net-(Con1-Pad12)*%
X52070000Y-49530000D03*
%TO.P,Con4,13*%
%TO.N,Net-(Con1-Pad13)*%
X52070000Y-52070000D03*
%TO.P,Con4,14*%
%TO.N,Net-(Con1-Pad14)*%
X52070000Y-54610000D03*
%TO.P,Con4,15*%
%TO.N,Net-(Con1-Pad15)*%
X52070000Y-57150000D03*
%TO.P,Con4,16*%
%TO.N,Net-(Con1-Pad16)*%
X52070000Y-59690000D03*
%TO.P,Con4,17*%
%TO.N,Net-(Con1-Pad17)*%
X52070000Y-62230000D03*
%TO.P,Con4,18*%
%TO.N,Net-(Con1-Pad18)*%
X52070000Y-64770000D03*
%TO.P,Con4,19*%
%TO.N,Net-(Con1-Pad19)*%
X52070000Y-67310000D03*
%TO.P,Con4,20*%
%TO.N,GND*%
X52070000Y-69850000D03*
%TO.P,Con4,21*%
%TO.N,+5v*%
X52070000Y-72390000D03*
%TO.P,Con4,22*%
%TO.N,Net-(Con1-Pad22)*%
X52070000Y-74930000D03*
%TO.P,Con4,23*%
%TO.N,RESB*%
X52070000Y-77470000D03*
%TO.P,Con4,24*%
%TO.N,Net-(Con1-Pad24)*%
X52070000Y-80010000D03*
%TO.P,Con4,25*%
%TO.N,Net-(Con1-Pad25)*%
X52070000Y-82550000D03*
%TO.P,Con4,26*%
%TO.N,Net-(Con1-Pad26)*%
X52070000Y-85090000D03*
%TO.P,Con4,27*%
%TO.N,Net-(Con1-Pad27)*%
X52070000Y-87630000D03*
%TO.P,Con4,28*%
%TO.N,Net-(Con1-Pad28)*%
X52070000Y-90170000D03*
%TO.P,Con4,29*%
%TO.N,Net-(Con1-Pad29)*%
X52070000Y-92710000D03*
%TO.P,Con4,30*%
%TO.N,Net-(Con1-Pad30)*%
X52070000Y-95250000D03*
%TO.P,Con4,31*%
%TO.N,Net-(Con1-Pad31)*%
X52070000Y-97790000D03*
%TO.P,Con4,32*%
%TO.N,Net-(Con1-Pad32)*%
X52070000Y-100330000D03*
%TO.P,Con4,33*%
%TO.N,Net-(Con1-Pad33)*%
X52070000Y-102870000D03*
%TO.P,Con4,34*%
%TO.N,Net-(Con1-Pad34)*%
X52070000Y-105410000D03*
%TO.P,Con4,35*%
%TO.N,Net-(Con1-Pad35)*%
X52070000Y-107950000D03*
%TO.P,Con4,36*%
%TO.N,Net-(Con1-Pad36)*%
X52070000Y-110490000D03*
%TO.P,Con4,37*%
%TO.N,Net-(Con1-Pad37)*%
X52070000Y-113030000D03*
%TO.P,Con4,38*%
%TO.N,Net-(Con1-Pad38)*%
X52070000Y-115570000D03*
%TO.P,Con4,39*%
%TO.N,Net-(Con1-Pad39)*%
X52070000Y-118110000D03*
%TO.P,Con4,40*%
%TO.N,Net-(Con1-Pad40)*%
X52070000Y-120650000D03*
%TD*%
%TO.P,Con5,40*%
%TO.N,Net-(Con1-Pad40)*%
X26670000Y-120650000D03*
%TO.P,Con5,39*%
%TO.N,Net-(Con1-Pad39)*%
X26670000Y-118110000D03*
%TO.P,Con5,38*%
%TO.N,Net-(Con1-Pad38)*%
X26670000Y-115570000D03*
%TO.P,Con5,37*%
%TO.N,Net-(Con1-Pad37)*%
X26670000Y-113030000D03*
%TO.P,Con5,36*%
%TO.N,Net-(Con1-Pad36)*%
X26670000Y-110490000D03*
%TO.P,Con5,35*%
%TO.N,Net-(Con1-Pad35)*%
X26670000Y-107950000D03*
%TO.P,Con5,34*%
%TO.N,Net-(Con1-Pad34)*%
X26670000Y-105410000D03*
%TO.P,Con5,33*%
%TO.N,Net-(Con1-Pad33)*%
X26670000Y-102870000D03*
%TO.P,Con5,32*%
%TO.N,Net-(Con1-Pad32)*%
X26670000Y-100330000D03*
%TO.P,Con5,31*%
%TO.N,Net-(Con1-Pad31)*%
X26670000Y-97790000D03*
%TO.P,Con5,30*%
%TO.N,Net-(Con1-Pad30)*%
X26670000Y-95250000D03*
%TO.P,Con5,29*%
%TO.N,Net-(Con1-Pad29)*%
X26670000Y-92710000D03*
%TO.P,Con5,28*%
%TO.N,Net-(Con1-Pad28)*%
X26670000Y-90170000D03*
%TO.P,Con5,27*%
%TO.N,Net-(Con1-Pad27)*%
X26670000Y-87630000D03*
%TO.P,Con5,26*%
%TO.N,Net-(Con1-Pad26)*%
X26670000Y-85090000D03*
%TO.P,Con5,25*%
%TO.N,Net-(Con1-Pad25)*%
X26670000Y-82550000D03*
%TO.P,Con5,24*%
%TO.N,Net-(Con1-Pad24)*%
X26670000Y-80010000D03*
%TO.P,Con5,23*%
%TO.N,RESB*%
X26670000Y-77470000D03*
%TO.P,Con5,22*%
%TO.N,Net-(Con1-Pad22)*%
X26670000Y-74930000D03*
%TO.P,Con5,21*%
%TO.N,+5v*%
X26670000Y-72390000D03*
%TO.P,Con5,20*%
%TO.N,GND*%
X26670000Y-69850000D03*
%TO.P,Con5,19*%
%TO.N,Net-(Con1-Pad19)*%
X26670000Y-67310000D03*
%TO.P,Con5,18*%
%TO.N,Net-(Con1-Pad18)*%
X26670000Y-64770000D03*
%TO.P,Con5,17*%
%TO.N,Net-(Con1-Pad17)*%
X26670000Y-62230000D03*
%TO.P,Con5,16*%
%TO.N,Net-(Con1-Pad16)*%
X26670000Y-59690000D03*
%TO.P,Con5,15*%
%TO.N,Net-(Con1-Pad15)*%
X26670000Y-57150000D03*
%TO.P,Con5,14*%
%TO.N,Net-(Con1-Pad14)*%
X26670000Y-54610000D03*
%TO.P,Con5,13*%
%TO.N,Net-(Con1-Pad13)*%
X26670000Y-52070000D03*
%TO.P,Con5,12*%
%TO.N,Net-(Con1-Pad12)*%
X26670000Y-49530000D03*
%TO.P,Con5,11*%
%TO.N,Net-(Con1-Pad11)*%
X26670000Y-46990000D03*
%TO.P,Con5,10*%
%TO.N,Net-(Con1-Pad10)*%
X26670000Y-44450000D03*
%TO.P,Con5,9*%
%TO.N,Net-(Con1-Pad9)*%
X26670000Y-41910000D03*
%TO.P,Con5,8*%
%TO.N,Net-(Con1-Pad8)*%
X26670000Y-39370000D03*
%TO.P,Con5,7*%
%TO.N,Net-(Con1-Pad7)*%
X26670000Y-36830000D03*
%TO.P,Con5,6*%
%TO.N,Net-(Con1-Pad6)*%
X26670000Y-34290000D03*
%TO.P,Con5,5*%
%TO.N,Net-(Con1-Pad5)*%
X26670000Y-31750000D03*
%TO.P,Con5,4*%
%TO.N,Net-(Con1-Pad4)*%
X26670000Y-29210000D03*
%TO.P,Con5,3*%
%TO.N,Net-(Con1-Pad3)*%
X26670000Y-26670000D03*
%TO.P,Con5,2*%
%TO.N,Net-(Con1-Pad2)*%
X26670000Y-24130000D03*
D13*
%TO.P,Con5,1*%
%TO.N,Net-(Con1-Pad1)*%
X26670000Y-21590000D03*
%TD*%
D14*
%TO.P,D1,1*%
%TO.N,GND*%
X137160000Y-101600000D03*
D15*
%TO.P,D1,2*%
%TO.N,Net-(D1-Pad2)*%
X139700000Y-101600000D03*
%TD*%
D16*
%TO.P,J1,1*%
%TO.N,Net-(C6-Pad1)*%
X134620000Y-26670000D03*
%TO.P,J1,2*%
%TO.N,GND*%
%TA.AperFunction,ComponentPad*%
G36*
G01*
X142120000Y-25670000D02*
X142120000Y-27670000D01*
G75*
G02*
X141370000Y-28420000I-750000J0D01*
G01*
X139870000Y-28420000D01*
G75*
G02*
X139120000Y-27670000I0J750000D01*
G01*
X139120000Y-25670000D01*
G75*
G02*
X139870000Y-24920000I750000J0D01*
G01*
X141370000Y-24920000D01*
G75*
G02*
X142120000Y-25670000I0J-750000D01*
G01*
G37*
%TD.AperFunction*%
%TO.P,J1,3*%
%TO.N,N/C*%
%TA.AperFunction,ComponentPad*%
G36*
G01*
X139370000Y-21095000D02*
X139370000Y-22845000D01*
G75*
G02*
X138495000Y-23720000I-875000J0D01*
G01*
X136745000Y-23720000D01*
G75*
G02*
X135870000Y-22845000I0J875000D01*
G01*
X135870000Y-21095000D01*
G75*
G02*
X136745000Y-20220000I875000J0D01*
G01*
X138495000Y-20220000D01*
G75*
G02*
X139370000Y-21095000I0J-875000D01*
G01*
G37*
%TD.AperFunction*%
%TD*%
D17*
%TO.P,R1,1*%
%TO.N,RESB*%
X135890000Y-90170000D03*
D18*
%TO.P,R1,2*%
%TO.N,+5v*%
X135890000Y-82550000D03*
%TD*%
%TO.P,R2,2*%
%TO.N,+5v*%
X140970000Y-82550000D03*
D17*
%TO.P,R2,1*%
%TO.N,Net-(D1-Pad2)*%
X140970000Y-90170000D03*
%TD*%
D19*
%TO.P,SW1,1*%
%TO.N,GND*%
X140970000Y-120650000D03*
%TO.P,SW1,2*%
%TO.N,RESB*%
X135890000Y-120650000D03*
%TO.P,SW1,1*%
%TO.N,GND*%
X140970000Y-113030000D03*
%TO.P,SW1,2*%
%TO.N,RESB*%
X135890000Y-113030000D03*
%TD*%
D13*
%TO.P,SW2,1*%
%TO.N,Net-(C6-Pad1)*%
X140970000Y-54610000D03*
D12*
%TO.P,SW2,2*%
%TO.N,+5v*%
X140970000Y-57150000D03*
%TD*%
D20*
%TO.N,GND*%
X140620000Y-32830000D02*
X137890000Y-35560000D01*
X140620000Y-26670000D02*
X140620000Y-32830000D01*
X137890000Y-41410000D02*
X138390000Y-41910000D01*
X137890000Y-35560000D02*
X137890000Y-41410000D01*
X138390000Y-67310000D02*
X140970000Y-69890000D01*
X138390000Y-41910000D02*
X138390000Y-67310000D01*
X128310000Y-69890000D02*
X128270000Y-69850000D01*
X140970000Y-69890000D02*
X128310000Y-69890000D01*
X27470998Y-69850000D02*
X26670000Y-69850000D01*
X128270000Y-69850000D02*
X27470998Y-69850000D01*
X140970000Y-70724998D02*
X140970000Y-69890000D01*
X137160000Y-74534998D02*
X140970000Y-70724998D01*
X137160000Y-101600000D02*
X137160000Y-74534998D01*
X137160000Y-109220000D02*
X140970000Y-113030000D01*
X137160000Y-101600000D02*
X137160000Y-109220000D01*
X140970000Y-113030000D02*
X140970000Y-120650000D01*
%TD*%
M02*
