%TF.GenerationSoftware,KiCad,Pcbnew,5.1.9+dfsg1-1*%
%TF.CreationDate,2021-08-13T01:52:04-07:00*%
%TF.ProjectId,Bus2021A_5Slot,42757332-3032-4314-915f-35536c6f742e,0*%
%TF.SameCoordinates,Original*%
%TF.FileFunction,Soldermask,Bot*%
%TF.FilePolarity,Negative*%
%FSLAX46Y46*%
G04 Gerber Fmt 4.6, Leading zero omitted, Abs format (unit mm)*
G04 Created by KiCad (PCBNEW 5.1.9+dfsg1-1) date 2021-08-13 01:52:04*
%MOMM*%
%LPD*%
G01*
G04 APERTURE LIST*
%ADD10C,1.600000*%
%ADD11R,1.600000X1.600000*%
%ADD12O,1.700000X1.700000*%
%ADD13R,1.700000X1.700000*%
%ADD14R,1.800000X1.800000*%
%ADD15C,1.800000*%
%ADD16R,3.500000X3.500000*%
%ADD17C,1.400000*%
%ADD18O,1.400000X1.400000*%
%ADD19C,1.397000*%
G04 APERTURE END LIST*
D10*
%TO.C,C1*%
X39370000Y-72390000D03*
X39370000Y-69890000D03*
%TD*%
%TO.C,C2*%
X64770000Y-69890000D03*
X64770000Y-72390000D03*
%TD*%
%TO.C,C3*%
X90170000Y-72390000D03*
X90170000Y-69890000D03*
%TD*%
%TO.C,C4*%
X115570000Y-69890000D03*
X115570000Y-72390000D03*
%TD*%
%TO.C,C5*%
X140970000Y-72390000D03*
X140970000Y-69890000D03*
%TD*%
D11*
%TO.C,C6*%
X135890000Y-35560000D03*
D10*
X137890000Y-35560000D03*
%TD*%
%TO.C,C7*%
X138390000Y-41910000D03*
X135890000Y-41910000D03*
%TD*%
D12*
%TO.C,Con1*%
X128270000Y-120650000D03*
X128270000Y-118110000D03*
X128270000Y-115570000D03*
X128270000Y-113030000D03*
X128270000Y-110490000D03*
X128270000Y-107950000D03*
X128270000Y-105410000D03*
X128270000Y-102870000D03*
X128270000Y-100330000D03*
X128270000Y-97790000D03*
X128270000Y-95250000D03*
X128270000Y-92710000D03*
X128270000Y-90170000D03*
X128270000Y-87630000D03*
X128270000Y-85090000D03*
X128270000Y-82550000D03*
X128270000Y-80010000D03*
X128270000Y-77470000D03*
X128270000Y-74930000D03*
X128270000Y-72390000D03*
X128270000Y-69850000D03*
X128270000Y-67310000D03*
X128270000Y-64770000D03*
X128270000Y-62230000D03*
X128270000Y-59690000D03*
X128270000Y-57150000D03*
X128270000Y-54610000D03*
X128270000Y-52070000D03*
X128270000Y-49530000D03*
X128270000Y-46990000D03*
X128270000Y-44450000D03*
X128270000Y-41910000D03*
X128270000Y-39370000D03*
X128270000Y-36830000D03*
X128270000Y-34290000D03*
X128270000Y-31750000D03*
X128270000Y-29210000D03*
X128270000Y-26670000D03*
X128270000Y-24130000D03*
D13*
X128270000Y-21590000D03*
%TD*%
%TO.C,Con2*%
X102870000Y-21590000D03*
D12*
X102870000Y-24130000D03*
X102870000Y-26670000D03*
X102870000Y-29210000D03*
X102870000Y-31750000D03*
X102870000Y-34290000D03*
X102870000Y-36830000D03*
X102870000Y-39370000D03*
X102870000Y-41910000D03*
X102870000Y-44450000D03*
X102870000Y-46990000D03*
X102870000Y-49530000D03*
X102870000Y-52070000D03*
X102870000Y-54610000D03*
X102870000Y-57150000D03*
X102870000Y-59690000D03*
X102870000Y-62230000D03*
X102870000Y-64770000D03*
X102870000Y-67310000D03*
X102870000Y-69850000D03*
X102870000Y-72390000D03*
X102870000Y-74930000D03*
X102870000Y-77470000D03*
X102870000Y-80010000D03*
X102870000Y-82550000D03*
X102870000Y-85090000D03*
X102870000Y-87630000D03*
X102870000Y-90170000D03*
X102870000Y-92710000D03*
X102870000Y-95250000D03*
X102870000Y-97790000D03*
X102870000Y-100330000D03*
X102870000Y-102870000D03*
X102870000Y-105410000D03*
X102870000Y-107950000D03*
X102870000Y-110490000D03*
X102870000Y-113030000D03*
X102870000Y-115570000D03*
X102870000Y-118110000D03*
X102870000Y-120650000D03*
%TD*%
D13*
%TO.C,Con3*%
X77470000Y-21590000D03*
D12*
X77470000Y-24130000D03*
X77470000Y-26670000D03*
X77470000Y-29210000D03*
X77470000Y-31750000D03*
X77470000Y-34290000D03*
X77470000Y-36830000D03*
X77470000Y-39370000D03*
X77470000Y-41910000D03*
X77470000Y-44450000D03*
X77470000Y-46990000D03*
X77470000Y-49530000D03*
X77470000Y-52070000D03*
X77470000Y-54610000D03*
X77470000Y-57150000D03*
X77470000Y-59690000D03*
X77470000Y-62230000D03*
X77470000Y-64770000D03*
X77470000Y-67310000D03*
X77470000Y-69850000D03*
X77470000Y-72390000D03*
X77470000Y-74930000D03*
X77470000Y-77470000D03*
X77470000Y-80010000D03*
X77470000Y-82550000D03*
X77470000Y-85090000D03*
X77470000Y-87630000D03*
X77470000Y-90170000D03*
X77470000Y-92710000D03*
X77470000Y-95250000D03*
X77470000Y-97790000D03*
X77470000Y-100330000D03*
X77470000Y-102870000D03*
X77470000Y-105410000D03*
X77470000Y-107950000D03*
X77470000Y-110490000D03*
X77470000Y-113030000D03*
X77470000Y-115570000D03*
X77470000Y-118110000D03*
X77470000Y-120650000D03*
%TD*%
D13*
%TO.C,Con4*%
X52070000Y-21590000D03*
D12*
X52070000Y-24130000D03*
X52070000Y-26670000D03*
X52070000Y-29210000D03*
X52070000Y-31750000D03*
X52070000Y-34290000D03*
X52070000Y-36830000D03*
X52070000Y-39370000D03*
X52070000Y-41910000D03*
X52070000Y-44450000D03*
X52070000Y-46990000D03*
X52070000Y-49530000D03*
X52070000Y-52070000D03*
X52070000Y-54610000D03*
X52070000Y-57150000D03*
X52070000Y-59690000D03*
X52070000Y-62230000D03*
X52070000Y-64770000D03*
X52070000Y-67310000D03*
X52070000Y-69850000D03*
X52070000Y-72390000D03*
X52070000Y-74930000D03*
X52070000Y-77470000D03*
X52070000Y-80010000D03*
X52070000Y-82550000D03*
X52070000Y-85090000D03*
X52070000Y-87630000D03*
X52070000Y-90170000D03*
X52070000Y-92710000D03*
X52070000Y-95250000D03*
X52070000Y-97790000D03*
X52070000Y-100330000D03*
X52070000Y-102870000D03*
X52070000Y-105410000D03*
X52070000Y-107950000D03*
X52070000Y-110490000D03*
X52070000Y-113030000D03*
X52070000Y-115570000D03*
X52070000Y-118110000D03*
X52070000Y-120650000D03*
%TD*%
%TO.C,Con5*%
X26670000Y-120650000D03*
X26670000Y-118110000D03*
X26670000Y-115570000D03*
X26670000Y-113030000D03*
X26670000Y-110490000D03*
X26670000Y-107950000D03*
X26670000Y-105410000D03*
X26670000Y-102870000D03*
X26670000Y-100330000D03*
X26670000Y-97790000D03*
X26670000Y-95250000D03*
X26670000Y-92710000D03*
X26670000Y-90170000D03*
X26670000Y-87630000D03*
X26670000Y-85090000D03*
X26670000Y-82550000D03*
X26670000Y-80010000D03*
X26670000Y-77470000D03*
X26670000Y-74930000D03*
X26670000Y-72390000D03*
X26670000Y-69850000D03*
X26670000Y-67310000D03*
X26670000Y-64770000D03*
X26670000Y-62230000D03*
X26670000Y-59690000D03*
X26670000Y-57150000D03*
X26670000Y-54610000D03*
X26670000Y-52070000D03*
X26670000Y-49530000D03*
X26670000Y-46990000D03*
X26670000Y-44450000D03*
X26670000Y-41910000D03*
X26670000Y-39370000D03*
X26670000Y-36830000D03*
X26670000Y-34290000D03*
X26670000Y-31750000D03*
X26670000Y-29210000D03*
X26670000Y-26670000D03*
X26670000Y-24130000D03*
D13*
X26670000Y-21590000D03*
%TD*%
D14*
%TO.C,D1*%
X137160000Y-101600000D03*
D15*
X139700000Y-101600000D03*
%TD*%
D16*
%TO.C,J1*%
X134620000Y-26670000D03*
G36*
G01*
X142120000Y-25670000D02*
X142120000Y-27670000D01*
G75*
G02*
X141370000Y-28420000I-750000J0D01*
G01*
X139870000Y-28420000D01*
G75*
G02*
X139120000Y-27670000I0J750000D01*
G01*
X139120000Y-25670000D01*
G75*
G02*
X139870000Y-24920000I750000J0D01*
G01*
X141370000Y-24920000D01*
G75*
G02*
X142120000Y-25670000I0J-750000D01*
G01*
G37*
G36*
G01*
X139370000Y-21095000D02*
X139370000Y-22845000D01*
G75*
G02*
X138495000Y-23720000I-875000J0D01*
G01*
X136745000Y-23720000D01*
G75*
G02*
X135870000Y-22845000I0J875000D01*
G01*
X135870000Y-21095000D01*
G75*
G02*
X136745000Y-20220000I875000J0D01*
G01*
X138495000Y-20220000D01*
G75*
G02*
X139370000Y-21095000I0J-875000D01*
G01*
G37*
%TD*%
D17*
%TO.C,R1*%
X135890000Y-90170000D03*
D18*
X135890000Y-82550000D03*
%TD*%
%TO.C,R2*%
X140970000Y-82550000D03*
D17*
X140970000Y-90170000D03*
%TD*%
D19*
%TO.C,SW1*%
X140970000Y-120650000D03*
X135890000Y-120650000D03*
X140970000Y-113030000D03*
X135890000Y-113030000D03*
%TD*%
D13*
%TO.C,SW2*%
X140970000Y-54610000D03*
D12*
X140970000Y-57150000D03*
%TD*%
M02*
