%TF.GenerationSoftware,KiCad,Pcbnew,5.1.9+dfsg1-1*%
%TF.CreationDate,2021-08-13T18:22:45-07:00*%
%TF.ProjectId,Bus2021A_Protoboard,42757332-3032-4314-915f-50726f746f62,rev?*%
%TF.SameCoordinates,Original*%
%TF.FileFunction,Soldermask,Top*%
%TF.FilePolarity,Negative*%
%FSLAX46Y46*%
G04 Gerber Fmt 4.6, Leading zero omitted, Abs format (unit mm)*
G04 Created by KiCad (PCBNEW 5.1.9+dfsg1-1) date 2021-08-13 18:22:45*
%MOMM*%
%LPD*%
G01*
G04 APERTURE LIST*
%ADD10C,1.700000*%
%ADD11O,1.700000X1.700000*%
%ADD12R,1.700000X1.700000*%
G04 APERTURE END LIST*
D10*
%TO.C,REF\u002A\u002A*%
X102870000Y-88900000D03*
D11*
X105410000Y-88900000D03*
X107950000Y-88900000D03*
X110490000Y-88900000D03*
X113030000Y-88900000D03*
X115570000Y-88900000D03*
X118110000Y-88900000D03*
X120650000Y-88900000D03*
X123190000Y-88900000D03*
X125730000Y-88900000D03*
X128270000Y-88900000D03*
X130810000Y-88900000D03*
X133350000Y-88900000D03*
X135890000Y-88900000D03*
X138430000Y-88900000D03*
X140970000Y-88900000D03*
X143510000Y-88900000D03*
X146050000Y-88900000D03*
X148590000Y-88900000D03*
X151130000Y-88900000D03*
X153670000Y-88900000D03*
X156210000Y-88900000D03*
X158750000Y-88900000D03*
X161290000Y-88900000D03*
X163830000Y-88900000D03*
X166370000Y-88900000D03*
X168910000Y-88900000D03*
X171450000Y-88900000D03*
X173990000Y-88900000D03*
X176530000Y-88900000D03*
X179070000Y-88900000D03*
X181610000Y-88900000D03*
X184150000Y-88900000D03*
X186690000Y-88900000D03*
X189230000Y-88900000D03*
X191770000Y-88900000D03*
X194310000Y-88900000D03*
X196850000Y-88900000D03*
X199390000Y-88900000D03*
X201930000Y-88900000D03*
%TD*%
D10*
%TO.C,REF\u002A\u002A*%
X102870000Y-63500000D03*
D11*
X105410000Y-63500000D03*
X107950000Y-63500000D03*
X110490000Y-63500000D03*
X113030000Y-63500000D03*
X115570000Y-63500000D03*
X118110000Y-63500000D03*
X120650000Y-63500000D03*
X123190000Y-63500000D03*
X125730000Y-63500000D03*
X128270000Y-63500000D03*
X130810000Y-63500000D03*
X133350000Y-63500000D03*
X135890000Y-63500000D03*
X138430000Y-63500000D03*
X140970000Y-63500000D03*
X143510000Y-63500000D03*
X146050000Y-63500000D03*
X148590000Y-63500000D03*
X151130000Y-63500000D03*
X153670000Y-63500000D03*
X156210000Y-63500000D03*
X158750000Y-63500000D03*
X161290000Y-63500000D03*
X163830000Y-63500000D03*
X166370000Y-63500000D03*
X168910000Y-63500000D03*
X171450000Y-63500000D03*
X173990000Y-63500000D03*
X176530000Y-63500000D03*
X179070000Y-63500000D03*
X181610000Y-63500000D03*
X184150000Y-63500000D03*
X186690000Y-63500000D03*
X189230000Y-63500000D03*
X191770000Y-63500000D03*
X194310000Y-63500000D03*
X196850000Y-63500000D03*
X199390000Y-63500000D03*
X201930000Y-63500000D03*
%TD*%
D10*
%TO.C,REF\u002A\u002A*%
X102870000Y-76200000D03*
D11*
X105410000Y-76200000D03*
X107950000Y-76200000D03*
X110490000Y-76200000D03*
X113030000Y-76200000D03*
X115570000Y-76200000D03*
X118110000Y-76200000D03*
X120650000Y-76200000D03*
X123190000Y-76200000D03*
X125730000Y-76200000D03*
X128270000Y-76200000D03*
X130810000Y-76200000D03*
X133350000Y-76200000D03*
X135890000Y-76200000D03*
X138430000Y-76200000D03*
X140970000Y-76200000D03*
X143510000Y-76200000D03*
X146050000Y-76200000D03*
X148590000Y-76200000D03*
X151130000Y-76200000D03*
X153670000Y-76200000D03*
X156210000Y-76200000D03*
X158750000Y-76200000D03*
X161290000Y-76200000D03*
X163830000Y-76200000D03*
X166370000Y-76200000D03*
X168910000Y-76200000D03*
X171450000Y-76200000D03*
X173990000Y-76200000D03*
X176530000Y-76200000D03*
X179070000Y-76200000D03*
X181610000Y-76200000D03*
X184150000Y-76200000D03*
X186690000Y-76200000D03*
X189230000Y-76200000D03*
X191770000Y-76200000D03*
X194310000Y-76200000D03*
X196850000Y-76200000D03*
X199390000Y-76200000D03*
X201930000Y-76200000D03*
%TD*%
%TO.C,REF\u002A\u002A*%
X201930000Y-55880000D03*
X199390000Y-55880000D03*
X196850000Y-55880000D03*
X194310000Y-55880000D03*
X191770000Y-55880000D03*
X189230000Y-55880000D03*
X186690000Y-55880000D03*
X184150000Y-55880000D03*
X181610000Y-55880000D03*
X179070000Y-55880000D03*
X176530000Y-55880000D03*
X173990000Y-55880000D03*
X171450000Y-55880000D03*
X168910000Y-55880000D03*
X166370000Y-55880000D03*
X163830000Y-55880000D03*
X161290000Y-55880000D03*
X158750000Y-55880000D03*
X156210000Y-55880000D03*
X153670000Y-55880000D03*
X151130000Y-55880000D03*
X148590000Y-55880000D03*
X146050000Y-55880000D03*
X143510000Y-55880000D03*
X140970000Y-55880000D03*
X138430000Y-55880000D03*
X135890000Y-55880000D03*
X133350000Y-55880000D03*
X130810000Y-55880000D03*
X128270000Y-55880000D03*
X125730000Y-55880000D03*
X123190000Y-55880000D03*
X120650000Y-55880000D03*
X118110000Y-55880000D03*
X115570000Y-55880000D03*
X113030000Y-55880000D03*
X110490000Y-55880000D03*
X107950000Y-55880000D03*
X105410000Y-55880000D03*
D10*
X102870000Y-55880000D03*
%TD*%
%TO.C,REF\u002A\u002A*%
X102870000Y-58420000D03*
D11*
X105410000Y-58420000D03*
X107950000Y-58420000D03*
X110490000Y-58420000D03*
X113030000Y-58420000D03*
X115570000Y-58420000D03*
X118110000Y-58420000D03*
X120650000Y-58420000D03*
X123190000Y-58420000D03*
X125730000Y-58420000D03*
X128270000Y-58420000D03*
X130810000Y-58420000D03*
X133350000Y-58420000D03*
X135890000Y-58420000D03*
X138430000Y-58420000D03*
X140970000Y-58420000D03*
X143510000Y-58420000D03*
X146050000Y-58420000D03*
X148590000Y-58420000D03*
X151130000Y-58420000D03*
X153670000Y-58420000D03*
X156210000Y-58420000D03*
X158750000Y-58420000D03*
X161290000Y-58420000D03*
X163830000Y-58420000D03*
X166370000Y-58420000D03*
X168910000Y-58420000D03*
X171450000Y-58420000D03*
X173990000Y-58420000D03*
X176530000Y-58420000D03*
X179070000Y-58420000D03*
X181610000Y-58420000D03*
X184150000Y-58420000D03*
X186690000Y-58420000D03*
X189230000Y-58420000D03*
X191770000Y-58420000D03*
X194310000Y-58420000D03*
X196850000Y-58420000D03*
X199390000Y-58420000D03*
X201930000Y-58420000D03*
%TD*%
%TO.C,REF\u002A\u002A*%
X201930000Y-86360000D03*
X199390000Y-86360000D03*
X196850000Y-86360000D03*
X194310000Y-86360000D03*
X191770000Y-86360000D03*
X189230000Y-86360000D03*
X186690000Y-86360000D03*
X184150000Y-86360000D03*
X181610000Y-86360000D03*
X179070000Y-86360000D03*
X176530000Y-86360000D03*
X173990000Y-86360000D03*
X171450000Y-86360000D03*
X168910000Y-86360000D03*
X166370000Y-86360000D03*
X163830000Y-86360000D03*
X161290000Y-86360000D03*
X158750000Y-86360000D03*
X156210000Y-86360000D03*
X153670000Y-86360000D03*
X151130000Y-86360000D03*
X148590000Y-86360000D03*
X146050000Y-86360000D03*
X143510000Y-86360000D03*
X140970000Y-86360000D03*
X138430000Y-86360000D03*
X135890000Y-86360000D03*
X133350000Y-86360000D03*
X130810000Y-86360000D03*
X128270000Y-86360000D03*
X125730000Y-86360000D03*
X123190000Y-86360000D03*
X120650000Y-86360000D03*
X118110000Y-86360000D03*
X115570000Y-86360000D03*
X113030000Y-86360000D03*
X110490000Y-86360000D03*
X107950000Y-86360000D03*
X105410000Y-86360000D03*
D10*
X102870000Y-86360000D03*
%TD*%
D11*
%TO.C,REF\u002A\u002A*%
X201930000Y-68580000D03*
X199390000Y-68580000D03*
X196850000Y-68580000D03*
X194310000Y-68580000D03*
X191770000Y-68580000D03*
X189230000Y-68580000D03*
X186690000Y-68580000D03*
X184150000Y-68580000D03*
X181610000Y-68580000D03*
X179070000Y-68580000D03*
X176530000Y-68580000D03*
X173990000Y-68580000D03*
X171450000Y-68580000D03*
X168910000Y-68580000D03*
X166370000Y-68580000D03*
X163830000Y-68580000D03*
X161290000Y-68580000D03*
X158750000Y-68580000D03*
X156210000Y-68580000D03*
X153670000Y-68580000D03*
X151130000Y-68580000D03*
X148590000Y-68580000D03*
X146050000Y-68580000D03*
X143510000Y-68580000D03*
X140970000Y-68580000D03*
X138430000Y-68580000D03*
X135890000Y-68580000D03*
X133350000Y-68580000D03*
X130810000Y-68580000D03*
X128270000Y-68580000D03*
X125730000Y-68580000D03*
X123190000Y-68580000D03*
X120650000Y-68580000D03*
X118110000Y-68580000D03*
X115570000Y-68580000D03*
X113030000Y-68580000D03*
X110490000Y-68580000D03*
X107950000Y-68580000D03*
X105410000Y-68580000D03*
D10*
X102870000Y-68580000D03*
%TD*%
D11*
%TO.C,REF\u002A\u002A*%
X201930000Y-60960000D03*
X199390000Y-60960000D03*
X196850000Y-60960000D03*
X194310000Y-60960000D03*
X191770000Y-60960000D03*
X189230000Y-60960000D03*
X186690000Y-60960000D03*
X184150000Y-60960000D03*
X181610000Y-60960000D03*
X179070000Y-60960000D03*
X176530000Y-60960000D03*
X173990000Y-60960000D03*
X171450000Y-60960000D03*
X168910000Y-60960000D03*
X166370000Y-60960000D03*
X163830000Y-60960000D03*
X161290000Y-60960000D03*
X158750000Y-60960000D03*
X156210000Y-60960000D03*
X153670000Y-60960000D03*
X151130000Y-60960000D03*
X148590000Y-60960000D03*
X146050000Y-60960000D03*
X143510000Y-60960000D03*
X140970000Y-60960000D03*
X138430000Y-60960000D03*
X135890000Y-60960000D03*
X133350000Y-60960000D03*
X130810000Y-60960000D03*
X128270000Y-60960000D03*
X125730000Y-60960000D03*
X123190000Y-60960000D03*
X120650000Y-60960000D03*
X118110000Y-60960000D03*
X115570000Y-60960000D03*
X113030000Y-60960000D03*
X110490000Y-60960000D03*
X107950000Y-60960000D03*
X105410000Y-60960000D03*
D10*
X102870000Y-60960000D03*
%TD*%
%TO.C,REF\u002A\u002A*%
X102870000Y-73660000D03*
D11*
X105410000Y-73660000D03*
X107950000Y-73660000D03*
X110490000Y-73660000D03*
X113030000Y-73660000D03*
X115570000Y-73660000D03*
X118110000Y-73660000D03*
X120650000Y-73660000D03*
X123190000Y-73660000D03*
X125730000Y-73660000D03*
X128270000Y-73660000D03*
X130810000Y-73660000D03*
X133350000Y-73660000D03*
X135890000Y-73660000D03*
X138430000Y-73660000D03*
X140970000Y-73660000D03*
X143510000Y-73660000D03*
X146050000Y-73660000D03*
X148590000Y-73660000D03*
X151130000Y-73660000D03*
X153670000Y-73660000D03*
X156210000Y-73660000D03*
X158750000Y-73660000D03*
X161290000Y-73660000D03*
X163830000Y-73660000D03*
X166370000Y-73660000D03*
X168910000Y-73660000D03*
X171450000Y-73660000D03*
X173990000Y-73660000D03*
X176530000Y-73660000D03*
X179070000Y-73660000D03*
X181610000Y-73660000D03*
X184150000Y-73660000D03*
X186690000Y-73660000D03*
X189230000Y-73660000D03*
X191770000Y-73660000D03*
X194310000Y-73660000D03*
X196850000Y-73660000D03*
X199390000Y-73660000D03*
X201930000Y-73660000D03*
%TD*%
%TO.C,REF\u002A\u002A*%
X201930000Y-83820000D03*
X199390000Y-83820000D03*
X196850000Y-83820000D03*
X194310000Y-83820000D03*
X191770000Y-83820000D03*
X189230000Y-83820000D03*
X186690000Y-83820000D03*
X184150000Y-83820000D03*
X181610000Y-83820000D03*
X179070000Y-83820000D03*
X176530000Y-83820000D03*
X173990000Y-83820000D03*
X171450000Y-83820000D03*
X168910000Y-83820000D03*
X166370000Y-83820000D03*
X163830000Y-83820000D03*
X161290000Y-83820000D03*
X158750000Y-83820000D03*
X156210000Y-83820000D03*
X153670000Y-83820000D03*
X151130000Y-83820000D03*
X148590000Y-83820000D03*
X146050000Y-83820000D03*
X143510000Y-83820000D03*
X140970000Y-83820000D03*
X138430000Y-83820000D03*
X135890000Y-83820000D03*
X133350000Y-83820000D03*
X130810000Y-83820000D03*
X128270000Y-83820000D03*
X125730000Y-83820000D03*
X123190000Y-83820000D03*
X120650000Y-83820000D03*
X118110000Y-83820000D03*
X115570000Y-83820000D03*
X113030000Y-83820000D03*
X110490000Y-83820000D03*
X107950000Y-83820000D03*
X105410000Y-83820000D03*
D10*
X102870000Y-83820000D03*
%TD*%
%TO.C,REF\u002A\u002A*%
X102870000Y-81280000D03*
D11*
X105410000Y-81280000D03*
X107950000Y-81280000D03*
X110490000Y-81280000D03*
X113030000Y-81280000D03*
X115570000Y-81280000D03*
X118110000Y-81280000D03*
X120650000Y-81280000D03*
X123190000Y-81280000D03*
X125730000Y-81280000D03*
X128270000Y-81280000D03*
X130810000Y-81280000D03*
X133350000Y-81280000D03*
X135890000Y-81280000D03*
X138430000Y-81280000D03*
X140970000Y-81280000D03*
X143510000Y-81280000D03*
X146050000Y-81280000D03*
X148590000Y-81280000D03*
X151130000Y-81280000D03*
X153670000Y-81280000D03*
X156210000Y-81280000D03*
X158750000Y-81280000D03*
X161290000Y-81280000D03*
X163830000Y-81280000D03*
X166370000Y-81280000D03*
X168910000Y-81280000D03*
X171450000Y-81280000D03*
X173990000Y-81280000D03*
X176530000Y-81280000D03*
X179070000Y-81280000D03*
X181610000Y-81280000D03*
X184150000Y-81280000D03*
X186690000Y-81280000D03*
X189230000Y-81280000D03*
X191770000Y-81280000D03*
X194310000Y-81280000D03*
X196850000Y-81280000D03*
X199390000Y-81280000D03*
X201930000Y-81280000D03*
%TD*%
%TO.C,REF\u002A\u002A*%
X201930000Y-71120000D03*
X199390000Y-71120000D03*
X196850000Y-71120000D03*
X194310000Y-71120000D03*
X191770000Y-71120000D03*
X189230000Y-71120000D03*
X186690000Y-71120000D03*
X184150000Y-71120000D03*
X181610000Y-71120000D03*
X179070000Y-71120000D03*
X176530000Y-71120000D03*
X173990000Y-71120000D03*
X171450000Y-71120000D03*
X168910000Y-71120000D03*
X166370000Y-71120000D03*
X163830000Y-71120000D03*
X161290000Y-71120000D03*
X158750000Y-71120000D03*
X156210000Y-71120000D03*
X153670000Y-71120000D03*
X151130000Y-71120000D03*
X148590000Y-71120000D03*
X146050000Y-71120000D03*
X143510000Y-71120000D03*
X140970000Y-71120000D03*
X138430000Y-71120000D03*
X135890000Y-71120000D03*
X133350000Y-71120000D03*
X130810000Y-71120000D03*
X128270000Y-71120000D03*
X125730000Y-71120000D03*
X123190000Y-71120000D03*
X120650000Y-71120000D03*
X118110000Y-71120000D03*
X115570000Y-71120000D03*
X113030000Y-71120000D03*
X110490000Y-71120000D03*
X107950000Y-71120000D03*
X105410000Y-71120000D03*
D10*
X102870000Y-71120000D03*
%TD*%
%TO.C,REF\u002A\u002A*%
X102870000Y-66040000D03*
D11*
X105410000Y-66040000D03*
X107950000Y-66040000D03*
X110490000Y-66040000D03*
X113030000Y-66040000D03*
X115570000Y-66040000D03*
X118110000Y-66040000D03*
X120650000Y-66040000D03*
X123190000Y-66040000D03*
X125730000Y-66040000D03*
X128270000Y-66040000D03*
X130810000Y-66040000D03*
X133350000Y-66040000D03*
X135890000Y-66040000D03*
X138430000Y-66040000D03*
X140970000Y-66040000D03*
X143510000Y-66040000D03*
X146050000Y-66040000D03*
X148590000Y-66040000D03*
X151130000Y-66040000D03*
X153670000Y-66040000D03*
X156210000Y-66040000D03*
X158750000Y-66040000D03*
X161290000Y-66040000D03*
X163830000Y-66040000D03*
X166370000Y-66040000D03*
X168910000Y-66040000D03*
X171450000Y-66040000D03*
X173990000Y-66040000D03*
X176530000Y-66040000D03*
X179070000Y-66040000D03*
X181610000Y-66040000D03*
X184150000Y-66040000D03*
X186690000Y-66040000D03*
X189230000Y-66040000D03*
X191770000Y-66040000D03*
X194310000Y-66040000D03*
X196850000Y-66040000D03*
X199390000Y-66040000D03*
X201930000Y-66040000D03*
%TD*%
%TO.C,REF\u002A\u002A*%
X201930000Y-78740000D03*
X199390000Y-78740000D03*
X196850000Y-78740000D03*
X194310000Y-78740000D03*
X191770000Y-78740000D03*
X189230000Y-78740000D03*
X186690000Y-78740000D03*
X184150000Y-78740000D03*
X181610000Y-78740000D03*
X179070000Y-78740000D03*
X176530000Y-78740000D03*
X173990000Y-78740000D03*
X171450000Y-78740000D03*
X168910000Y-78740000D03*
X166370000Y-78740000D03*
X163830000Y-78740000D03*
X161290000Y-78740000D03*
X158750000Y-78740000D03*
X156210000Y-78740000D03*
X153670000Y-78740000D03*
X151130000Y-78740000D03*
X148590000Y-78740000D03*
X146050000Y-78740000D03*
X143510000Y-78740000D03*
X140970000Y-78740000D03*
X138430000Y-78740000D03*
X135890000Y-78740000D03*
X133350000Y-78740000D03*
X130810000Y-78740000D03*
X128270000Y-78740000D03*
X125730000Y-78740000D03*
X123190000Y-78740000D03*
X120650000Y-78740000D03*
X118110000Y-78740000D03*
X115570000Y-78740000D03*
X113030000Y-78740000D03*
X110490000Y-78740000D03*
X107950000Y-78740000D03*
X105410000Y-78740000D03*
D10*
X102870000Y-78740000D03*
%TD*%
%TO.C,REF\u002A\u002A*%
X102870000Y-109220000D03*
D11*
X105410000Y-109220000D03*
X107950000Y-109220000D03*
X110490000Y-109220000D03*
X113030000Y-109220000D03*
X115570000Y-109220000D03*
X118110000Y-109220000D03*
X120650000Y-109220000D03*
X123190000Y-109220000D03*
X125730000Y-109220000D03*
X128270000Y-109220000D03*
X130810000Y-109220000D03*
X133350000Y-109220000D03*
X135890000Y-109220000D03*
X138430000Y-109220000D03*
X140970000Y-109220000D03*
X143510000Y-109220000D03*
X146050000Y-109220000D03*
X148590000Y-109220000D03*
X151130000Y-109220000D03*
X153670000Y-109220000D03*
X156210000Y-109220000D03*
X158750000Y-109220000D03*
X161290000Y-109220000D03*
X163830000Y-109220000D03*
X166370000Y-109220000D03*
X168910000Y-109220000D03*
X171450000Y-109220000D03*
X173990000Y-109220000D03*
X176530000Y-109220000D03*
X179070000Y-109220000D03*
X181610000Y-109220000D03*
X184150000Y-109220000D03*
X186690000Y-109220000D03*
X189230000Y-109220000D03*
X191770000Y-109220000D03*
X194310000Y-109220000D03*
X196850000Y-109220000D03*
X199390000Y-109220000D03*
X201930000Y-109220000D03*
%TD*%
D10*
%TO.C,REF\u002A\u002A*%
X102870000Y-96520000D03*
D11*
X105410000Y-96520000D03*
X107950000Y-96520000D03*
X110490000Y-96520000D03*
X113030000Y-96520000D03*
X115570000Y-96520000D03*
X118110000Y-96520000D03*
X120650000Y-96520000D03*
X123190000Y-96520000D03*
X125730000Y-96520000D03*
X128270000Y-96520000D03*
X130810000Y-96520000D03*
X133350000Y-96520000D03*
X135890000Y-96520000D03*
X138430000Y-96520000D03*
X140970000Y-96520000D03*
X143510000Y-96520000D03*
X146050000Y-96520000D03*
X148590000Y-96520000D03*
X151130000Y-96520000D03*
X153670000Y-96520000D03*
X156210000Y-96520000D03*
X158750000Y-96520000D03*
X161290000Y-96520000D03*
X163830000Y-96520000D03*
X166370000Y-96520000D03*
X168910000Y-96520000D03*
X171450000Y-96520000D03*
X173990000Y-96520000D03*
X176530000Y-96520000D03*
X179070000Y-96520000D03*
X181610000Y-96520000D03*
X184150000Y-96520000D03*
X186690000Y-96520000D03*
X189230000Y-96520000D03*
X191770000Y-96520000D03*
X194310000Y-96520000D03*
X196850000Y-96520000D03*
X199390000Y-96520000D03*
X201930000Y-96520000D03*
%TD*%
%TO.C,REF\u002A\u002A*%
X201930000Y-106680000D03*
X199390000Y-106680000D03*
X196850000Y-106680000D03*
X194310000Y-106680000D03*
X191770000Y-106680000D03*
X189230000Y-106680000D03*
X186690000Y-106680000D03*
X184150000Y-106680000D03*
X181610000Y-106680000D03*
X179070000Y-106680000D03*
X176530000Y-106680000D03*
X173990000Y-106680000D03*
X171450000Y-106680000D03*
X168910000Y-106680000D03*
X166370000Y-106680000D03*
X163830000Y-106680000D03*
X161290000Y-106680000D03*
X158750000Y-106680000D03*
X156210000Y-106680000D03*
X153670000Y-106680000D03*
X151130000Y-106680000D03*
X148590000Y-106680000D03*
X146050000Y-106680000D03*
X143510000Y-106680000D03*
X140970000Y-106680000D03*
X138430000Y-106680000D03*
X135890000Y-106680000D03*
X133350000Y-106680000D03*
X130810000Y-106680000D03*
X128270000Y-106680000D03*
X125730000Y-106680000D03*
X123190000Y-106680000D03*
X120650000Y-106680000D03*
X118110000Y-106680000D03*
X115570000Y-106680000D03*
X113030000Y-106680000D03*
X110490000Y-106680000D03*
X107950000Y-106680000D03*
X105410000Y-106680000D03*
D10*
X102870000Y-106680000D03*
%TD*%
%TO.C,REF\u002A\u002A*%
X102870000Y-93980000D03*
D11*
X105410000Y-93980000D03*
X107950000Y-93980000D03*
X110490000Y-93980000D03*
X113030000Y-93980000D03*
X115570000Y-93980000D03*
X118110000Y-93980000D03*
X120650000Y-93980000D03*
X123190000Y-93980000D03*
X125730000Y-93980000D03*
X128270000Y-93980000D03*
X130810000Y-93980000D03*
X133350000Y-93980000D03*
X135890000Y-93980000D03*
X138430000Y-93980000D03*
X140970000Y-93980000D03*
X143510000Y-93980000D03*
X146050000Y-93980000D03*
X148590000Y-93980000D03*
X151130000Y-93980000D03*
X153670000Y-93980000D03*
X156210000Y-93980000D03*
X158750000Y-93980000D03*
X161290000Y-93980000D03*
X163830000Y-93980000D03*
X166370000Y-93980000D03*
X168910000Y-93980000D03*
X171450000Y-93980000D03*
X173990000Y-93980000D03*
X176530000Y-93980000D03*
X179070000Y-93980000D03*
X181610000Y-93980000D03*
X184150000Y-93980000D03*
X186690000Y-93980000D03*
X189230000Y-93980000D03*
X191770000Y-93980000D03*
X194310000Y-93980000D03*
X196850000Y-93980000D03*
X199390000Y-93980000D03*
X201930000Y-93980000D03*
%TD*%
%TO.C,REF\u002A\u002A*%
X201930000Y-104140000D03*
X199390000Y-104140000D03*
X196850000Y-104140000D03*
X194310000Y-104140000D03*
X191770000Y-104140000D03*
X189230000Y-104140000D03*
X186690000Y-104140000D03*
X184150000Y-104140000D03*
X181610000Y-104140000D03*
X179070000Y-104140000D03*
X176530000Y-104140000D03*
X173990000Y-104140000D03*
X171450000Y-104140000D03*
X168910000Y-104140000D03*
X166370000Y-104140000D03*
X163830000Y-104140000D03*
X161290000Y-104140000D03*
X158750000Y-104140000D03*
X156210000Y-104140000D03*
X153670000Y-104140000D03*
X151130000Y-104140000D03*
X148590000Y-104140000D03*
X146050000Y-104140000D03*
X143510000Y-104140000D03*
X140970000Y-104140000D03*
X138430000Y-104140000D03*
X135890000Y-104140000D03*
X133350000Y-104140000D03*
X130810000Y-104140000D03*
X128270000Y-104140000D03*
X125730000Y-104140000D03*
X123190000Y-104140000D03*
X120650000Y-104140000D03*
X118110000Y-104140000D03*
X115570000Y-104140000D03*
X113030000Y-104140000D03*
X110490000Y-104140000D03*
X107950000Y-104140000D03*
X105410000Y-104140000D03*
D10*
X102870000Y-104140000D03*
%TD*%
%TO.C,REF\u002A\u002A*%
X102870000Y-101600000D03*
D11*
X105410000Y-101600000D03*
X107950000Y-101600000D03*
X110490000Y-101600000D03*
X113030000Y-101600000D03*
X115570000Y-101600000D03*
X118110000Y-101600000D03*
X120650000Y-101600000D03*
X123190000Y-101600000D03*
X125730000Y-101600000D03*
X128270000Y-101600000D03*
X130810000Y-101600000D03*
X133350000Y-101600000D03*
X135890000Y-101600000D03*
X138430000Y-101600000D03*
X140970000Y-101600000D03*
X143510000Y-101600000D03*
X146050000Y-101600000D03*
X148590000Y-101600000D03*
X151130000Y-101600000D03*
X153670000Y-101600000D03*
X156210000Y-101600000D03*
X158750000Y-101600000D03*
X161290000Y-101600000D03*
X163830000Y-101600000D03*
X166370000Y-101600000D03*
X168910000Y-101600000D03*
X171450000Y-101600000D03*
X173990000Y-101600000D03*
X176530000Y-101600000D03*
X179070000Y-101600000D03*
X181610000Y-101600000D03*
X184150000Y-101600000D03*
X186690000Y-101600000D03*
X189230000Y-101600000D03*
X191770000Y-101600000D03*
X194310000Y-101600000D03*
X196850000Y-101600000D03*
X199390000Y-101600000D03*
X201930000Y-101600000D03*
%TD*%
%TO.C,REF\u002A\u002A*%
X201930000Y-91440000D03*
X199390000Y-91440000D03*
X196850000Y-91440000D03*
X194310000Y-91440000D03*
X191770000Y-91440000D03*
X189230000Y-91440000D03*
X186690000Y-91440000D03*
X184150000Y-91440000D03*
X181610000Y-91440000D03*
X179070000Y-91440000D03*
X176530000Y-91440000D03*
X173990000Y-91440000D03*
X171450000Y-91440000D03*
X168910000Y-91440000D03*
X166370000Y-91440000D03*
X163830000Y-91440000D03*
X161290000Y-91440000D03*
X158750000Y-91440000D03*
X156210000Y-91440000D03*
X153670000Y-91440000D03*
X151130000Y-91440000D03*
X148590000Y-91440000D03*
X146050000Y-91440000D03*
X143510000Y-91440000D03*
X140970000Y-91440000D03*
X138430000Y-91440000D03*
X135890000Y-91440000D03*
X133350000Y-91440000D03*
X130810000Y-91440000D03*
X128270000Y-91440000D03*
X125730000Y-91440000D03*
X123190000Y-91440000D03*
X120650000Y-91440000D03*
X118110000Y-91440000D03*
X115570000Y-91440000D03*
X113030000Y-91440000D03*
X110490000Y-91440000D03*
X107950000Y-91440000D03*
X105410000Y-91440000D03*
D10*
X102870000Y-91440000D03*
%TD*%
D11*
%TO.C,REF\u002A\u002A*%
X201930000Y-99060000D03*
X199390000Y-99060000D03*
X196850000Y-99060000D03*
X194310000Y-99060000D03*
X191770000Y-99060000D03*
X189230000Y-99060000D03*
X186690000Y-99060000D03*
X184150000Y-99060000D03*
X181610000Y-99060000D03*
X179070000Y-99060000D03*
X176530000Y-99060000D03*
X173990000Y-99060000D03*
X171450000Y-99060000D03*
X168910000Y-99060000D03*
X166370000Y-99060000D03*
X163830000Y-99060000D03*
X161290000Y-99060000D03*
X158750000Y-99060000D03*
X156210000Y-99060000D03*
X153670000Y-99060000D03*
X151130000Y-99060000D03*
X148590000Y-99060000D03*
X146050000Y-99060000D03*
X143510000Y-99060000D03*
X140970000Y-99060000D03*
X138430000Y-99060000D03*
X135890000Y-99060000D03*
X133350000Y-99060000D03*
X130810000Y-99060000D03*
X128270000Y-99060000D03*
X125730000Y-99060000D03*
X123190000Y-99060000D03*
X120650000Y-99060000D03*
X118110000Y-99060000D03*
X115570000Y-99060000D03*
X113030000Y-99060000D03*
X110490000Y-99060000D03*
X107950000Y-99060000D03*
X105410000Y-99060000D03*
D10*
X102870000Y-99060000D03*
%TD*%
%TO.C,REF\u002A\u002A*%
X102870000Y-119380000D03*
D11*
X105410000Y-119380000D03*
X107950000Y-119380000D03*
X110490000Y-119380000D03*
X113030000Y-119380000D03*
X115570000Y-119380000D03*
X118110000Y-119380000D03*
X120650000Y-119380000D03*
X123190000Y-119380000D03*
X125730000Y-119380000D03*
X128270000Y-119380000D03*
X130810000Y-119380000D03*
X133350000Y-119380000D03*
X135890000Y-119380000D03*
X138430000Y-119380000D03*
X140970000Y-119380000D03*
X143510000Y-119380000D03*
X146050000Y-119380000D03*
X148590000Y-119380000D03*
X151130000Y-119380000D03*
X153670000Y-119380000D03*
X156210000Y-119380000D03*
X158750000Y-119380000D03*
X161290000Y-119380000D03*
X163830000Y-119380000D03*
X166370000Y-119380000D03*
X168910000Y-119380000D03*
X171450000Y-119380000D03*
X173990000Y-119380000D03*
X176530000Y-119380000D03*
X179070000Y-119380000D03*
X181610000Y-119380000D03*
X184150000Y-119380000D03*
X186690000Y-119380000D03*
X189230000Y-119380000D03*
X191770000Y-119380000D03*
X194310000Y-119380000D03*
X196850000Y-119380000D03*
X199390000Y-119380000D03*
X201930000Y-119380000D03*
%TD*%
D10*
%TO.C,REF\u002A\u002A*%
X102870000Y-116840000D03*
D11*
X105410000Y-116840000D03*
X107950000Y-116840000D03*
X110490000Y-116840000D03*
X113030000Y-116840000D03*
X115570000Y-116840000D03*
X118110000Y-116840000D03*
X120650000Y-116840000D03*
X123190000Y-116840000D03*
X125730000Y-116840000D03*
X128270000Y-116840000D03*
X130810000Y-116840000D03*
X133350000Y-116840000D03*
X135890000Y-116840000D03*
X138430000Y-116840000D03*
X140970000Y-116840000D03*
X143510000Y-116840000D03*
X146050000Y-116840000D03*
X148590000Y-116840000D03*
X151130000Y-116840000D03*
X153670000Y-116840000D03*
X156210000Y-116840000D03*
X158750000Y-116840000D03*
X161290000Y-116840000D03*
X163830000Y-116840000D03*
X166370000Y-116840000D03*
X168910000Y-116840000D03*
X171450000Y-116840000D03*
X173990000Y-116840000D03*
X176530000Y-116840000D03*
X179070000Y-116840000D03*
X181610000Y-116840000D03*
X184150000Y-116840000D03*
X186690000Y-116840000D03*
X189230000Y-116840000D03*
X191770000Y-116840000D03*
X194310000Y-116840000D03*
X196850000Y-116840000D03*
X199390000Y-116840000D03*
X201930000Y-116840000D03*
%TD*%
%TO.C,REF\u002A\u002A*%
X201930000Y-114300000D03*
X199390000Y-114300000D03*
X196850000Y-114300000D03*
X194310000Y-114300000D03*
X191770000Y-114300000D03*
X189230000Y-114300000D03*
X186690000Y-114300000D03*
X184150000Y-114300000D03*
X181610000Y-114300000D03*
X179070000Y-114300000D03*
X176530000Y-114300000D03*
X173990000Y-114300000D03*
X171450000Y-114300000D03*
X168910000Y-114300000D03*
X166370000Y-114300000D03*
X163830000Y-114300000D03*
X161290000Y-114300000D03*
X158750000Y-114300000D03*
X156210000Y-114300000D03*
X153670000Y-114300000D03*
X151130000Y-114300000D03*
X148590000Y-114300000D03*
X146050000Y-114300000D03*
X143510000Y-114300000D03*
X140970000Y-114300000D03*
X138430000Y-114300000D03*
X135890000Y-114300000D03*
X133350000Y-114300000D03*
X130810000Y-114300000D03*
X128270000Y-114300000D03*
X125730000Y-114300000D03*
X123190000Y-114300000D03*
X120650000Y-114300000D03*
X118110000Y-114300000D03*
X115570000Y-114300000D03*
X113030000Y-114300000D03*
X110490000Y-114300000D03*
X107950000Y-114300000D03*
X105410000Y-114300000D03*
D10*
X102870000Y-114300000D03*
%TD*%
%TO.C,REF\u002A\u002A*%
X102870000Y-111760000D03*
D11*
X105410000Y-111760000D03*
X107950000Y-111760000D03*
X110490000Y-111760000D03*
X113030000Y-111760000D03*
X115570000Y-111760000D03*
X118110000Y-111760000D03*
X120650000Y-111760000D03*
X123190000Y-111760000D03*
X125730000Y-111760000D03*
X128270000Y-111760000D03*
X130810000Y-111760000D03*
X133350000Y-111760000D03*
X135890000Y-111760000D03*
X138430000Y-111760000D03*
X140970000Y-111760000D03*
X143510000Y-111760000D03*
X146050000Y-111760000D03*
X148590000Y-111760000D03*
X151130000Y-111760000D03*
X153670000Y-111760000D03*
X156210000Y-111760000D03*
X158750000Y-111760000D03*
X161290000Y-111760000D03*
X163830000Y-111760000D03*
X166370000Y-111760000D03*
X168910000Y-111760000D03*
X171450000Y-111760000D03*
X173990000Y-111760000D03*
X176530000Y-111760000D03*
X179070000Y-111760000D03*
X181610000Y-111760000D03*
X184150000Y-111760000D03*
X186690000Y-111760000D03*
X189230000Y-111760000D03*
X191770000Y-111760000D03*
X194310000Y-111760000D03*
X196850000Y-111760000D03*
X199390000Y-111760000D03*
X201930000Y-111760000D03*
%TD*%
D10*
%TO.C,REF\u002A\u002A*%
X102870000Y-124460000D03*
D11*
X105410000Y-124460000D03*
X107950000Y-124460000D03*
X110490000Y-124460000D03*
X113030000Y-124460000D03*
X115570000Y-124460000D03*
X118110000Y-124460000D03*
X120650000Y-124460000D03*
X123190000Y-124460000D03*
X125730000Y-124460000D03*
X128270000Y-124460000D03*
X130810000Y-124460000D03*
X133350000Y-124460000D03*
X135890000Y-124460000D03*
X138430000Y-124460000D03*
X140970000Y-124460000D03*
X143510000Y-124460000D03*
X146050000Y-124460000D03*
X148590000Y-124460000D03*
X151130000Y-124460000D03*
X153670000Y-124460000D03*
X156210000Y-124460000D03*
X158750000Y-124460000D03*
X161290000Y-124460000D03*
X163830000Y-124460000D03*
X166370000Y-124460000D03*
X168910000Y-124460000D03*
X171450000Y-124460000D03*
X173990000Y-124460000D03*
X176530000Y-124460000D03*
X179070000Y-124460000D03*
X181610000Y-124460000D03*
X184150000Y-124460000D03*
X186690000Y-124460000D03*
X189230000Y-124460000D03*
X191770000Y-124460000D03*
X194310000Y-124460000D03*
X196850000Y-124460000D03*
X199390000Y-124460000D03*
X201930000Y-124460000D03*
%TD*%
%TO.C,REF\u002A\u002A*%
X201930000Y-121920000D03*
X199390000Y-121920000D03*
X196850000Y-121920000D03*
X194310000Y-121920000D03*
X191770000Y-121920000D03*
X189230000Y-121920000D03*
X186690000Y-121920000D03*
X184150000Y-121920000D03*
X181610000Y-121920000D03*
X179070000Y-121920000D03*
X176530000Y-121920000D03*
X173990000Y-121920000D03*
X171450000Y-121920000D03*
X168910000Y-121920000D03*
X166370000Y-121920000D03*
X163830000Y-121920000D03*
X161290000Y-121920000D03*
X158750000Y-121920000D03*
X156210000Y-121920000D03*
X153670000Y-121920000D03*
X151130000Y-121920000D03*
X148590000Y-121920000D03*
X146050000Y-121920000D03*
X143510000Y-121920000D03*
X140970000Y-121920000D03*
X138430000Y-121920000D03*
X135890000Y-121920000D03*
X133350000Y-121920000D03*
X130810000Y-121920000D03*
X128270000Y-121920000D03*
X125730000Y-121920000D03*
X123190000Y-121920000D03*
X120650000Y-121920000D03*
X118110000Y-121920000D03*
X115570000Y-121920000D03*
X113030000Y-121920000D03*
X110490000Y-121920000D03*
X107950000Y-121920000D03*
X105410000Y-121920000D03*
D10*
X102870000Y-121920000D03*
%TD*%
%TO.C,REF\u002A\u002A*%
X102870000Y-127000000D03*
D11*
X105410000Y-127000000D03*
X107950000Y-127000000D03*
X110490000Y-127000000D03*
X113030000Y-127000000D03*
X115570000Y-127000000D03*
X118110000Y-127000000D03*
X120650000Y-127000000D03*
X123190000Y-127000000D03*
X125730000Y-127000000D03*
X128270000Y-127000000D03*
X130810000Y-127000000D03*
X133350000Y-127000000D03*
X135890000Y-127000000D03*
X138430000Y-127000000D03*
X140970000Y-127000000D03*
X143510000Y-127000000D03*
X146050000Y-127000000D03*
X148590000Y-127000000D03*
X151130000Y-127000000D03*
X153670000Y-127000000D03*
X156210000Y-127000000D03*
X158750000Y-127000000D03*
X161290000Y-127000000D03*
X163830000Y-127000000D03*
X166370000Y-127000000D03*
X168910000Y-127000000D03*
X171450000Y-127000000D03*
X173990000Y-127000000D03*
X176530000Y-127000000D03*
X179070000Y-127000000D03*
X181610000Y-127000000D03*
X184150000Y-127000000D03*
X186690000Y-127000000D03*
X189230000Y-127000000D03*
X191770000Y-127000000D03*
X194310000Y-127000000D03*
X196850000Y-127000000D03*
X199390000Y-127000000D03*
X201930000Y-127000000D03*
%TD*%
%TO.C,REF\u002A\u002A*%
X201930000Y-129540000D03*
X199390000Y-129540000D03*
X196850000Y-129540000D03*
X194310000Y-129540000D03*
X191770000Y-129540000D03*
X189230000Y-129540000D03*
X186690000Y-129540000D03*
X184150000Y-129540000D03*
X181610000Y-129540000D03*
X179070000Y-129540000D03*
X176530000Y-129540000D03*
X173990000Y-129540000D03*
X171450000Y-129540000D03*
X168910000Y-129540000D03*
X166370000Y-129540000D03*
X163830000Y-129540000D03*
X161290000Y-129540000D03*
X158750000Y-129540000D03*
X156210000Y-129540000D03*
X153670000Y-129540000D03*
X151130000Y-129540000D03*
X148590000Y-129540000D03*
X146050000Y-129540000D03*
X143510000Y-129540000D03*
X140970000Y-129540000D03*
X138430000Y-129540000D03*
X135890000Y-129540000D03*
X133350000Y-129540000D03*
X130810000Y-129540000D03*
X128270000Y-129540000D03*
X125730000Y-129540000D03*
X123190000Y-129540000D03*
X120650000Y-129540000D03*
X118110000Y-129540000D03*
X115570000Y-129540000D03*
X113030000Y-129540000D03*
X110490000Y-129540000D03*
X107950000Y-129540000D03*
X105410000Y-129540000D03*
D10*
X102870000Y-129540000D03*
%TD*%
D11*
%TO.C,BUS*%
X102870000Y-132080000D03*
X105410000Y-132080000D03*
X107950000Y-132080000D03*
X110490000Y-132080000D03*
X113030000Y-132080000D03*
X115570000Y-132080000D03*
X118110000Y-132080000D03*
X120650000Y-132080000D03*
X123190000Y-132080000D03*
X125730000Y-132080000D03*
X128270000Y-132080000D03*
X130810000Y-132080000D03*
X133350000Y-132080000D03*
X135890000Y-132080000D03*
X138430000Y-132080000D03*
X140970000Y-132080000D03*
X143510000Y-132080000D03*
X146050000Y-132080000D03*
X148590000Y-132080000D03*
X151130000Y-132080000D03*
X153670000Y-132080000D03*
X156210000Y-132080000D03*
X158750000Y-132080000D03*
X161290000Y-132080000D03*
X163830000Y-132080000D03*
X166370000Y-132080000D03*
X168910000Y-132080000D03*
X171450000Y-132080000D03*
X173990000Y-132080000D03*
X176530000Y-132080000D03*
X179070000Y-132080000D03*
X181610000Y-132080000D03*
X184150000Y-132080000D03*
X186690000Y-132080000D03*
X189230000Y-132080000D03*
X191770000Y-132080000D03*
X194310000Y-132080000D03*
X196850000Y-132080000D03*
X199390000Y-132080000D03*
D12*
X201930000Y-132080000D03*
%TD*%
M02*
